AcariSans-ExtraBoldItalic.ufo
<glyph name="quotedbl" format="2">
  <advance width="972"/>
  <unicode hex="0022"/>
  <outline>
    <contour>
      <point x="929" y="829" type="line"/>
      <point x="702" y="829" type="line"/>
      <point x="838" y="1413" type="line"/>
      <point x="1065" y="1413" type="line"/>
    </contour>
    <contour>
      <point x="421" y="829" type="line"/>
      <point x="195" y="829" type="line"/>
      <point x="330" y="1413" type="line"/>
      <point x="556" y="1413" type="line"/>
    </contour>
  </outline>
</glyph>
<glyph name="numbersign" format="2">
  <advance width="1384"/>
  <unicode hex="0023"/>
  <outline>
    <contour>
      <point x="745" y="0" type="line"/>
      <point x="531" y="0" type="line"/>
      <point x="723" y="436" type="line"/>
      <point x="496" y="436" type="line"/>
      <point x="307" y="0" type="line"/>
      <point x="91" y="0" type="line"/>
      <point x="277" y="406" type="line"/>
      <point x="45" y="406" type="line"/>
      <point x="90" y="597" type="line"/>
      <point x="361" y="597" type="line"/>
      <point x="466" y="837" type="line"/>
      <point x="227" y="837" type="line"/>
      <point x="275" y="1039" type="line"/>
      <point x="553" y="1039" type="line"/>
      <point x="740" y="1434" type="line"/>
      <point x="956" y="1434" type="line"/>
      <point x="759" y="997" type="line"/>
      <point x="982" y="997" type="line"/>
      <point x="1178" y="1434" type="line"/>
      <point x="1394" y="1434" type="line"/>
      <point x="1205" y="1028" type="line"/>
      <point x="1437" y="1028" type="line"/>
      <point x="1391" y="837" type="line"/>
      <point x="1121" y="837" type="line"/>
      <point x="1015" y="597" type="line"/>
      <point x="1255" y="597" type="line"/>
      <point x="1207" y="395" type="line"/>
      <point x="929" y="395" type="line"/>
    </contour>
    <contour>
      <point x="801" y="597" type="line"/>
      <point x="907" y="837" type="line"/>
      <point x="681" y="837" type="line"/>
      <point x="575" y="597" type="line"/>
    </contour>
  </outline>
</glyph>
<glyph name="percent" format="2">
  <advance width="1526"/>
  <unicode hex="0025"/>
  <outline>
    <contour>
      <point x="353" y="-27" type="line"/>
      <point x="111" y="-27" type="line"/>
      <point x="1259" y="1469" type="line"/>
      <point x="1501" y="1469" type="line"/>
    </contour>
    <contour>
      <point x="427" y="757" type="qcurve" smooth="yes"/>
      <point x="341" y="757"/>
      <point x="236" y="827"/>
      <point x="188" y="945"/>
      <point x="188" y="1017" type="qcurve" smooth="yes"/>
      <point x="188" y="1085"/>
      <point x="239" y="1244"/>
      <point x="347" y="1380"/>
      <point x="433" y="1416" type="qcurve"/>
      <point x="484" y="1436"/>
      <point x="549" y="1436" type="qcurve" smooth="yes"/>
      <point x="627" y="1436"/>
      <point x="731" y="1366"/>
      <point x="783" y="1247"/>
      <point x="783" y="1173" type="qcurve" smooth="yes"/>
      <point x="783" y="1079"/>
      <point x="699" y="887"/>
      <point x="622" y="824" type="qcurve"/>
      <point x="537" y="757"/>
    </contour>
    <contour>
      <point x="438" y="951" type="qcurve" smooth="yes"/>
      <point x="484" y="951"/>
      <point x="567" y="1055"/>
      <point x="581" y="1121" type="qcurve"/>
      <point x="586" y="1139"/>
      <point x="587" y="1152" type="qcurve"/>
      <point x="587" y="1176"/>
      <point x="582" y="1207"/>
      <point x="573" y="1220" type="qcurve" smooth="yes"/>
      <point x="558" y="1239"/>
      <point x="531" y="1239" type="qcurve" smooth="yes"/>
      <point x="510" y="1239"/>
      <point x="446" y="1206"/>
      <point x="391" y="1120"/>
      <point x="382" y="1043" type="qcurve"/>
      <point x="382" y="1018"/>
      <point x="386" y="985"/>
      <point x="396" y="972" type="qcurve"/>
      <point x="410" y="951"/>
    </contour>
    <contour>
      <point x="1075" y="-14" type="qcurve" smooth="yes"/>
      <point x="991" y="-14"/>
      <point x="887" y="57"/>
      <point x="839" y="176"/>
      <point x="839" y="249" type="qcurve" smooth="yes"/>
      <point x="839" y="308"/>
      <point x="879" y="456"/>
      <point x="966" y="590"/>
      <point x="1105" y="679"/>
      <point x="1203" y="679" type="qcurve" smooth="yes"/>
      <point x="1282" y="679"/>
      <point x="1386" y="611"/>
      <point x="1436" y="492"/>
      <point x="1436" y="416" type="qcurve" smooth="yes"/>
      <point x="1436" y="357"/>
      <point x="1393" y="209"/>
      <point x="1305" y="74"/>
      <point x="1168" y="-14"/>
    </contour>
    <contour>
      <point x="1093" y="180" type="qcurve" smooth="yes"/>
      <point x="1138" y="180"/>
      <point x="1215" y="286"/>
      <point x="1232" y="358" type="qcurve"/>
      <point x="1237" y="374"/>
      <point x="1238" y="388" type="qcurve"/>
      <point x="1238" y="406" type="line" smooth="yes"/>
      <point x="1238" y="440"/>
      <point x="1211" y="483"/>
      <point x="1185" y="483" type="qcurve" smooth="yes"/>
      <point x="1161" y="483"/>
      <point x="1094" y="441"/>
      <point x="1039" y="348"/>
      <point x="1031" y="274" type="qcurve"/>
      <point x="1031" y="249"/>
      <point x="1036" y="216"/>
      <point x="1046" y="202" type="qcurve" smooth="yes"/>
      <point x="1061" y="180"/>
    </contour>
  </outline>
</glyph>
<glyph name="parenright" format="2">
  <advance width="574"/>
  <unicode hex="0029"/>
  <outline>
    <contour>
      <point x="88" y="-163" type="qcurve"/>
      <point x="-34" y="-155"/>
      <point x="-156" y="-145" type="qcurve"/>
      <point x="38" y="46"/>
      <point x="256" y="430"/>
      <point x="322" y="727" type="qcurve"/>
      <point x="370" y="931"/>
      <point x="370" y="1103" type="qcurve" smooth="yes"/>
      <point x="370" y="1372"/>
      <point x="247" y="1572" type="qcurve"/>
      <point x="363" y="1562"/>
      <point x="482" y="1554" type="qcurve"/>
      <point x="583" y="1400"/>
      <point x="583" y="1132" type="qcurve" smooth="yes"/>
      <point x="583" y="982"/>
      <point x="518" y="618"/>
      <point x="379" y="235"/>
      <point x="268" y="53" type="qcurve" smooth="yes"/>
      <point x="182" y="-87"/>
    </contour>
  </outline>
</glyph>
<glyph name="asterisk" format="2">
  <advance width="908"/>
  <unicode hex="002A"/>
  <outline>
    <contour>
      <point x="642" y="829" type="line"/>
      <point x="581" y="1029" type="line"/>
      <point x="429" y="829" type="line"/>
      <point x="272" y="942" type="line"/>
      <point x="456" y="1090" type="line"/>
      <point x="243" y="1117" type="line"/>
      <point x="353" y="1302" type="line"/>
      <point x="541" y="1226" type="line"/>
      <point x="556" y="1413" type="line"/>
      <point x="777" y="1413" type="line"/>
      <point x="704" y="1226" type="line"/>
      <point x="921" y="1302" type="line"/>
      <point x="948" y="1117" type="line"/>
      <point x="719" y="1090" type="line"/>
      <point x="840" y="942" type="line"/>
    </contour>
  </outline>
</glyph>
<glyph name="plus" format="2">
  <advance width="1246"/>
  <unicode hex="002B"/>
  <outline>
    <contour>
      <point x="727" y="106" type="line"/>
      <point x="521" y="106" type="line"/>
      <point x="521" y="520" type="line"/>
      <point x="64" y="520" type="line"/>
      <point x="64" y="728" type="line"/>
      <point x="521" y="728" type="line"/>
      <point x="521" y="1143" type="line"/>
      <point x="727" y="1143" type="line"/>
      <point x="727" y="728" type="line"/>
      <point x="1184" y="728" type="line"/>
      <point x="1184" y="520" type="line"/>
      <point x="727" y="520" type="line"/>
    </contour>
  </outline>
</glyph>
<glyph name="comma" format="2">
  <advance width="634"/>
  <unicode hex="002C"/>
  <outline>
    <contour>
      <point x="161" y="-225" type="line"/>
      <point x="-25" y="-225" type="line"/>
      <point x="188" y="264" type="line"/>
      <point x="499" y="264" type="line"/>
    </contour>
  </outline>
</glyph>
<glyph name="hyphen" format="2">
  <advance width="875"/>
  <unicode hex="002D"/>
  <outline>
    <contour>
      <point x="742" y="504" type="line"/>
      <point x="137" y="504" type="line"/>
      <point x="182" y="711" type="line"/>
      <point x="788" y="711" type="line"/>
    </contour>
  </outline>
</glyph>
<glyph name="zero" format="2">
  <advance width="1200"/>
  <unicode hex="0030"/>
  <outline>
    <contour>
      <point x="502" y="-20" type="qcurve" smooth="yes"/>
      <point x="493" y="-20" type="line" smooth="yes"/>
      <point x="374" y="-20"/>
      <point x="204" y="61"/>
      <point x="150" y="133" type="qcurve" smooth="yes"/>
      <point x="95" y="204"/>
      <point x="46" y="393"/>
      <point x="46" y="496" type="qcurve" smooth="yes"/>
      <point x="46" y="589"/>
      <point x="88" y="801"/>
      <point x="171" y="1010"/>
      <point x="296" y="1202"/>
      <point x="463" y="1350"/>
      <point x="673" y="1436"/>
      <point x="797" y="1436" type="qcurve" smooth="yes"/>
      <point x="805" y="1436" type="line" smooth="yes"/>
      <point x="915" y="1436"/>
      <point x="1083" y="1355"/>
      <point x="1194" y="1211"/>
      <point x="1250" y="1018"/>
      <point x="1250" y="908" type="qcurve" smooth="yes"/>
      <point x="1250" y="805"/>
      <point x="1202" y="587"/>
      <point x="1111" y="381"/>
      <point x="980" y="198"/>
      <point x="814" y="60"/>
      <point x="615" y="-20"/>
    </contour>
    <contour>
      <point x="542" y="249" type="line" smooth="yes"/>
      <point x="628" y="249"/>
      <point x="799" y="392"/>
      <point x="857" y="504" type="qcurve" smooth="yes"/>
      <point x="917" y="622"/>
      <point x="941" y="733" type="qcurve" smooth="yes"/>
      <point x="960" y="819"/>
      <point x="960" y="895" type="qcurve" smooth="yes"/>
      <point x="960" y="1084"/>
      <point x="849" y="1143" type="qcurve" smooth="yes"/>
      <point x="812" y="1162"/>
      <point x="759" y="1162" type="qcurve" smooth="yes"/>
      <point x="752" y="1162" type="line" smooth="yes"/>
      <point x="694" y="1162"/>
      <point x="641" y="1137" type="qcurve" smooth="yes"/>
      <point x="584" y="1109"/>
      <point x="487" y="1012"/>
      <point x="408" y="883"/>
      <point x="352" y="738"/>
      <point x="322" y="587"/>
      <point x="322" y="518" type="qcurve" smooth="yes"/>
      <point x="322" y="393"/>
      <point x="372" y="325" type="qcurve"/>
      <point x="425" y="249"/>
      <point x="530" y="249" type="qcurve" smooth="yes"/>
    </contour>
  </outline>
</glyph>
<glyph name="one" format="2">
  <advance width="1200"/>
  <unicode hex="0031"/>
  <outline>
    <contour>
      <point x="718" y="0" type="line"/>
      <point x="439" y="0" type="line"/>
      <point x="674" y="1014" type="line"/>
      <point x="367" y="1014" type="line"/>
      <point x="414" y="1227" type="line"/>
      <point x="580" y="1227" type="line" smooth="yes"/>
      <point x="664" y="1227"/>
      <point x="759" y="1331"/>
      <point x="774" y="1413" type="qcurve"/>
      <point x="1044" y="1413" type="line"/>
    </contour>
  </outline>
</glyph>
<glyph name="two" format="2">
  <advance width="1200"/>
  <unicode hex="0032"/>
  <outline>
    <contour>
      <point x="1030" y="0" type="qcurve"/>
      <point x="-70" y="0" type="line"/>
      <point x="-59" y="57"/>
      <point x="-47" y="113" type="qcurve" smooth="yes"/>
      <point x="-34" y="169"/>
      <point x="-23" y="226" type="qcurve"/>
      <point x="167" y="321"/>
      <point x="499" y="549"/>
      <point x="603" y="637" type="qcurve"/>
      <point x="861" y="816"/>
      <point x="913" y="1017" type="qcurve"/>
      <point x="918" y="1043"/>
      <point x="918" y="1061" type="qcurve" smooth="yes"/>
      <point x="918" y="1114"/>
      <point x="852" y="1177"/>
      <point x="779" y="1177" type="qcurve" smooth="yes"/>
      <point x="688" y="1177"/>
      <point x="560" y="1083"/>
      <point x="480" y="944"/>
      <point x="461" y="872" type="qcurve"/>
      <point x="195" y="912" type="line"/>
      <point x="228" y="1056"/>
      <point x="432" y="1313"/>
      <point x="593" y="1387" type="qcurve"/>
      <point x="695" y="1432"/>
      <point x="811" y="1432" type="qcurve" smooth="yes"/>
      <point x="984" y="1432"/>
      <point x="1198" y="1236"/>
      <point x="1198" y="1085" type="qcurve" smooth="yes"/>
      <point x="1198" y="975"/>
      <point x="1082" y="755"/>
      <point x="879" y="532"/>
      <point x="745" y="419" type="qcurve"/>
      <point x="599" y="320"/>
      <point x="474" y="252" type="qcurve"/>
      <point x="1090" y="258" type="line"/>
      <point x="1068" y="163" type="line" smooth="yes"/>
      <point x="1050" y="82"/>
    </contour>
  </outline>
</glyph>
<glyph name="three" format="2">
  <advance width="1200"/>
  <unicode hex="0033"/>
  <outline>
    <contour>
      <point x="481" y="-20" type="qcurve" smooth="yes"/>
      <point x="470" y="-20" type="line" smooth="yes"/>
      <point x="384" y="-20"/>
      <point x="306" y="2" type="qcurve" smooth="yes"/>
      <point x="223" y="26"/>
      <point x="99" y="121"/>
      <point x="27" y="260"/>
      <point x="27" y="347" type="qcurve" smooth="yes"/>
      <point x="27" y="354" type="line" smooth="yes"/>
      <point x="27" y="411"/>
      <point x="42" y="473" type="qcurve"/>
      <point x="311" y="465" type="line"/>
      <point x="305" y="440"/>
      <point x="305" y="408" type="qcurve" smooth="yes"/>
      <point x="305" y="327"/>
      <point x="417" y="243"/>
      <point x="514" y="243" type="qcurve" smooth="yes"/>
      <point x="574" y="243"/>
      <point x="694" y="279"/>
      <point x="791" y="345"/>
      <point x="851" y="440"/>
      <point x="851" y="500" type="qcurve" smooth="yes"/>
      <point x="851" y="563"/>
      <point x="741" y="624"/>
      <point x="642" y="624" type="qcurve" smooth="yes"/>
      <point x="475" y="624" type="line"/>
      <point x="535" y="875" type="line"/>
      <point x="687" y="875" type="line" smooth="yes"/>
      <point x="773" y="875"/>
      <point x="886" y="968"/>
      <point x="903" y="1046" type="qcurve" smooth="yes"/>
      <point x="906" y="1059"/>
      <point x="906" y="1072" type="qcurve" smooth="yes"/>
      <point x="906" y="1119"/>
      <point x="821" y="1168"/>
      <point x="752" y="1168" type="qcurve" smooth="yes"/>
      <point x="707" y="1168"/>
      <point x="624" y="1141"/>
      <point x="555" y="1090"/>
      <point x="506" y="1015"/>
      <point x="495" y="970" type="qcurve"/>
      <point x="234" y="1010" type="line"/>
      <point x="255" y="1109"/>
      <point x="363" y="1267"/>
      <point x="514" y="1378"/>
      <point x="690" y="1434"/>
      <point x="778" y="1434" type="qcurve" smooth="yes"/>
      <point x="797" y="1434" type="line" smooth="yes"/>
      <point x="859" y="1434"/>
      <point x="917" y="1420" type="qcurve"/>
      <point x="1043" y="1387"/>
      <point x="1118" y="1296" type="qcurve" smooth="yes"/>
      <point x="1156" y="1251"/>
      <point x="1172" y="1194" type="qcurve" smooth="yes"/>
      <point x="1177" y="1176"/>
      <point x="1179" y="1157" type="qcurve" smooth="yes"/>
      <point x="1181" y="1132"/>
      <point x="1182" y="1106" type="qcurve"/>
      <point x="1182" y="1016"/>
      <point x="1138" y="926" type="qcurve"/>
      <point x="1087" y="825"/>
      <point x="999" y="756" type="qcurve"/>
      <point x="1060" y="711"/>
      <point x="1116" y="587"/>
      <point x="1116" y="506" type="qcurve" smooth="yes"/>
      <point x="1116" y="385"/>
      <point x="1013" y="191"/>
      <point x="839" y="54"/>
      <point x="609" y="-20"/>
    </contour>
  </outline>
</glyph>
<glyph name="six" format="2">
  <advance width="1200"/>
  <unicode hex="0036"/>
  <outline>
    <contour>
      <point x="493" y="-20" type="qcurve" smooth="yes"/>
      <point x="484" y="-20" type="line" smooth="yes"/>
      <point x="398" y="-20"/>
      <point x="322" y="8" type="qcurve" smooth="yes"/>
      <point x="242" y="38"/>
      <point x="123" y="146"/>
      <point x="58" y="292"/>
      <point x="58" y="376" type="qcurve" smooth="yes"/>
      <point x="58" y="384" type="line" smooth="yes"/>
      <point x="58" y="477"/>
      <point x="126" y="657"/>
      <point x="198" y="735" type="qcurve"/>
      <point x="784" y="1413" type="line"/>
      <point x="1116" y="1413" type="line"/>
      <point x="701" y="966" type="line"/>
      <point x="700" y="963"/>
      <point x="695" y="963" type="qcurve"/>
      <point x="704" y="963" type="line" smooth="yes"/>
      <point x="790" y="963"/>
      <point x="867" y="936" type="qcurve" smooth="yes"/>
      <point x="948" y="908"/>
      <point x="1068" y="803"/>
      <point x="1135" y="660"/>
      <point x="1135" y="575" type="qcurve"/>
      <point x="1134" y="496"/>
      <point x="1112" y="426" type="qcurve" smooth="yes"/>
      <point x="1067" y="283"/>
      <point x="946" y="168" type="qcurve" smooth="yes"/>
      <point x="887" y="111"/>
      <point x="746" y="28"/>
      <point x="582" y="-20"/>
    </contour>
    <contour>
      <point x="538" y="247" type="qcurve"/>
      <point x="639" y="247"/>
      <point x="736" y="326" type="qcurve" smooth="yes"/>
      <point x="781" y="362"/>
      <point x="812" y="409" type="qcurve" smooth="yes"/>
      <point x="849" y="465"/>
      <point x="856" y="526" type="qcurve" smooth="yes"/>
      <point x="857" y="536"/>
      <point x="857" y="548" type="qcurve" smooth="yes"/>
      <point x="857" y="583"/>
      <point x="843" y="613" type="qcurve" smooth="yes"/>
      <point x="816" y="674"/>
      <point x="743" y="701" type="qcurve"/>
      <point x="709" y="712"/>
      <point x="658" y="713" type="qcurve"/>
      <point x="602" y="713"/>
      <point x="487" y="664"/>
      <point x="393" y="577"/>
      <point x="334" y="470"/>
      <point x="334" y="414" type="qcurve" smooth="yes"/>
      <point x="334" y="378"/>
      <point x="363" y="317"/>
      <point x="390" y="295" type="qcurve"/>
      <point x="443" y="248"/>
    </contour>
  </outline>
</glyph>
<glyph name="nine" format="2">
  <advance width="1200"/>
  <unicode hex="0039"/>
  <outline>
    <contour>
      <point x="511" y="0" type="line"/>
      <point x="176" y="0" type="line"/>
      <point x="593" y="446" type="line"/>
      <point x="595" y="450"/>
      <point x="599" y="450" type="qcurve"/>
      <point x="590" y="450" type="line" smooth="yes"/>
      <point x="504" y="450"/>
      <point x="428" y="477" type="qcurve" smooth="yes"/>
      <point x="347" y="505"/>
      <point x="228" y="610"/>
      <point x="161" y="753"/>
      <point x="161" y="838" type="qcurve"/>
      <point x="162" y="920"/>
      <point x="185" y="990" type="qcurve"/>
      <point x="229" y="1130"/>
      <point x="351" y="1249" type="qcurve"/>
      <point x="470" y="1363"/>
      <point x="635" y="1411" type="qcurve" smooth="yes"/>
      <point x="713" y="1433"/>
      <point x="812" y="1434" type="qcurve"/>
      <point x="901" y="1434"/>
      <point x="1057" y="1375"/>
      <point x="1173" y="1266"/>
      <point x="1239" y="1117"/>
      <point x="1239" y="1028" type="qcurve" smooth="yes"/>
      <point x="1239" y="929"/>
      <point x="1161" y="749"/>
      <point x="1098" y="678" type="qcurve"/>
    </contour>
    <contour>
      <point x="638" y="699" type="qcurve"/>
      <point x="740" y="699"/>
      <point x="839" y="778" type="qcurve" smooth="yes"/>
      <point x="884" y="814"/>
      <point x="916" y="861" type="qcurve" smooth="yes"/>
      <point x="954" y="917"/>
      <point x="961" y="978" type="qcurve" smooth="yes"/>
      <point x="962" y="988"/>
      <point x="962" y="1000" type="qcurve" smooth="yes"/>
      <point x="962" y="1036"/>
      <point x="948" y="1067" type="qcurve"/>
      <point x="917" y="1128"/>
      <point x="844" y="1154" type="qcurve"/>
      <point x="810" y="1165"/>
      <point x="759" y="1166" type="qcurve"/>
      <point x="704" y="1166"/>
      <point x="589" y="1117"/>
      <point x="495" y="1030"/>
      <point x="436" y="921"/>
      <point x="436" y="865" type="qcurve" smooth="yes"/>
      <point x="436" y="831"/>
      <point x="465" y="770"/>
      <point x="516" y="726"/>
      <point x="585" y="700"/>
    </contour>
  </outline>
</glyph>
<glyph name="colon" format="2">
  <advance width="675"/>
  <unicode hex="003A"/>
  <outline>
    <contour>
      <point x="519" y="668" type="line"/>
      <point x="232" y="668" type="line"/>
      <point x="298" y="954" type="line"/>
      <point x="586" y="954" type="line"/>
    </contour>
    <contour>
      <point x="367" y="0" type="line"/>
      <point x="79" y="0" type="line"/>
      <point x="143" y="286" type="line"/>
      <point x="431" y="286" type="line"/>
    </contour>
  </outline>
</glyph>
<glyph name="equal" format="2">
  <advance width="1267"/>
  <unicode hex="003D"/>
  <outline>
    <contour>
      <point x="1060" y="745" type="line"/>
      <point x="208" y="745" type="line"/>
      <point x="208" y="973" type="line"/>
      <point x="1060" y="973" type="line"/>
    </contour>
    <contour>
      <point x="1060" y="370" type="line"/>
      <point x="208" y="370" type="line"/>
      <point x="208" y="599" type="line"/>
      <point x="1060" y="599" type="line"/>
    </contour>
  </outline>
</glyph>
<glyph name="at" format="2">
  <advance width="1993"/>
  <unicode hex="0040"/>
  <outline>
    <contour>
      <point x="806" y="-348" type="qcurve" smooth="yes"/>
      <point x="796" y="-348" type="line" smooth="yes"/>
      <point x="641" y="-348"/>
      <point x="510" y="-302" type="qcurve" smooth="yes"/>
      <point x="374" y="-255"/>
      <point x="173" y="-77"/>
      <point x="118" y="47" type="qcurve" smooth="yes"/>
      <point x="65" y="165"/>
      <point x="65" y="311" type="qcurve" smooth="yes"/>
      <point x="65" y="326" type="line" smooth="yes"/>
      <point x="65" y="478"/>
      <point x="158" y="771"/>
      <point x="327" y="1029"/>
      <point x="562" y="1242"/>
      <point x="704" y="1314" type="qcurve" smooth="yes"/>
      <point x="937" y="1432"/>
      <point x="1205" y="1432" type="qcurve" smooth="yes"/>
      <point x="1214" y="1432" type="line" smooth="yes"/>
      <point x="1387" y="1432"/>
      <point x="1521" y="1380" type="qcurve" smooth="yes"/>
      <point x="1659" y="1326"/>
      <point x="1847" y="1136"/>
      <point x="1945" y="879"/>
      <point x="1945" y="732" type="qcurve" smooth="yes"/>
      <point x="1945" y="553"/>
      <point x="1871" y="367" type="qcurve" smooth="yes"/>
      <point x="1793" y="170"/>
      <point x="1659" y="52" type="qcurve" smooth="yes"/>
      <point x="1505" y="-83"/>
      <point x="1322" y="-83" type="qcurve" smooth="yes"/>
      <point x="1208" y="-83"/>
      <point x="1086" y="22"/>
      <point x="1086" y="115" type="qcurve" smooth="yes"/>
      <point x="1086" y="133" type="line"/>
      <point x="1085" y="145" type="line"/>
      <point x="943" y="36"/>
      <point x="780" y="36" type="qcurve" smooth="yes"/>
      <point x="713" y="36"/>
      <point x="610" y="79"/>
      <point x="541" y="157"/>
      <point x="506" y="269"/>
      <point x="506" y="336" type="qcurve" smooth="yes"/>
      <point x="506" y="405"/>
      <point x="551" y="567"/>
      <point x="631" y="730"/>
      <point x="745" y="881"/>
      <point x="887" y="999"/>
      <point x="1051" y="1068"/>
      <point x="1141" y="1068" type="qcurve" smooth="yes"/>
      <point x="1230" y="1068"/>
      <point x="1347" y="996"/>
      <point x="1377" y="938" type="qcurve"/>
      <point x="1414" y="1019" type="line"/>
      <point x="1626" y="1007" type="line"/>
      <point x="1582" y="907"/>
      <point x="1554" y="846" type="qcurve" smooth="yes"/>
      <point x="1384" y="477"/>
      <point x="1366" y="436" type="qcurve" smooth="yes"/>
      <point x="1344" y="384"/>
      <point x="1333" y="353" type="qcurve"/>
      <point x="1318" y="315"/>
      <point x="1307" y="280" type="qcurve" smooth="yes"/>
      <point x="1281" y="200"/>
      <point x="1281" y="164" type="qcurve" smooth="yes"/>
      <point x="1281" y="139"/>
      <point x="1312" y="126"/>
      <point x="1344" y="126" type="qcurve" smooth="yes"/>
      <point x="1358" y="126" type="line"/>
      <point x="1393" y="132"/>
      <point x="1400" y="135" type="qcurve"/>
      <point x="1456" y="147"/>
      <point x="1502" y="182" type="qcurve" smooth="yes"/>
      <point x="1589" y="246"/>
      <point x="1655" y="374" type="qcurve"/>
      <point x="1712" y="489"/>
      <point x="1734" y="616" type="qcurve" smooth="yes"/>
      <point x="1744" y="672"/>
      <point x="1744" y="732" type="qcurve" smooth="yes"/>
      <point x="1744" y="834"/>
      <point x="1673" y="1014"/>
      <point x="1531" y="1151"/>
      <point x="1322" y="1230"/>
      <point x="1187" y="1230" type="qcurve" smooth="yes"/>
      <point x="1081" y="1230"/>
      <point x="981" y="1205" type="qcurve" smooth="yes"/>
      <point x="782" y="1156"/>
      <point x="451" y="889"/>
      <point x="357" y="700" type="qcurve" smooth="yes"/>
      <point x="289" y="562"/>
      <point x="272" y="422" type="qcurve" smooth="yes"/>
      <point x="267" y="380"/>
      <point x="267" y="336" type="qcurve" smooth="yes"/>
      <point x="267" y="228"/>
      <point x="350" y="53"/>
      <point x="501" y="-71"/>
      <point x="708" y="-137"/>
      <point x="829" y="-137" type="qcurve" smooth="yes"/>
      <point x="897" y="-137"/>
      <point x="1017" y="-115"/>
      <point x="1083" y="-94" type="qcurve"/>
      <point x="1094" y="-145"/>
      <point x="1103" y="-197" type="qcurve" smooth="yes"/>
      <point x="1112" y="-248"/>
      <point x="1123" y="-299" type="qcurve"/>
      <point x="980" y="-348"/>
    </contour>
    <contour>
      <point x="817" y="245" type="line" smooth="yes"/>
      <point x="898" y="245"/>
      <point x="1042" y="330"/>
      <point x="1159" y="464"/>
      <point x="1239" y="622"/>
      <point x="1257" y="697" type="qcurve"/>
      <point x="1259" y="711" type="line"/>
      <point x="1265" y="738"/>
      <point x="1265" y="761" type="qcurve" smooth="yes"/>
      <point x="1265" y="812"/>
      <point x="1207" y="859"/>
      <point x="1150" y="859" type="qcurve" smooth="yes"/>
      <point x="1050" y="859"/>
      <point x="841" y="707"/>
      <point x="774" y="593" type="qcurve" smooth="yes"/>
      <point x="702" y="469"/>
      <point x="702" y="347" type="qcurve" smooth="yes"/>
      <point x="702" y="245"/>
      <point x="811" y="245" type="qcurve" smooth="yes"/>
    </contour>
  </outline>
</glyph>
<glyph name="A" format="2">
  <advance width="1355"/>
  <unicode hex="0041"/>
  <outline>
    <contour>
      <point x="1241" y="0" type="line"/>
      <point x="939" y="0" type="line"/>
      <point x="900" y="307" type="line"/>
      <point x="373" y="307" type="line"/>
      <point x="193" y="0" type="line"/>
      <point x="-120" y="0" type="line"/>
      <point x="781" y="1413" type="line"/>
      <point x="993" y="1413" type="line"/>
    </contour>
    <contour>
      <point x="860" y="546" type="line"/>
      <point x="799" y="996" type="line"/>
      <point x="527" y="546" type="line"/>
    </contour>
  </outline>
</glyph>
<glyph name="D" format="2">
  <advance width="1408"/>
  <unicode hex="0044"/>
  <outline>
    <contour>
      <point x="486" y="0" type="qcurve" smooth="yes"/>
      <point x="58" y="0" type="line"/>
      <point x="383" y="1413" type="line"/>
      <point x="802" y="1413" type="line" smooth="yes"/>
      <point x="1099" y="1413"/>
      <point x="1409" y="1151"/>
      <point x="1409" y="903" type="qcurve" smooth="yes"/>
      <point x="1409" y="777"/>
      <point x="1329" y="488"/>
      <point x="1262" y="379" type="qcurve" smooth="yes"/>
      <point x="1189" y="262"/>
      <point x="968" y="92"/>
      <point x="672" y="0"/>
    </contour>
    <contour>
      <point x="509" y="260" type="line" smooth="yes"/>
      <point x="673" y="260"/>
      <point x="912" y="355"/>
      <point x="1069" y="563"/>
      <point x="1109" y="731" type="qcurve" smooth="yes"/>
      <point x="1132" y="828"/>
      <point x="1132" y="902" type="qcurve" smooth="yes"/>
      <point x="1132" y="1041"/>
      <point x="952" y="1151"/>
      <point x="751" y="1151" type="qcurve" smooth="yes"/>
      <point x="607" y="1151" type="line"/>
      <point x="447" y="463"/>
      <point x="401" y="260" type="qcurve"/>
    </contour>
  </outline>
</glyph>
<glyph name="E" format="2">
  <advance width="1245"/>
  <unicode hex="0045"/>
  <outline>
    <contour>
      <point x="1005" y="0" type="line"/>
      <point x="58" y="0" type="line"/>
      <point x="383" y="1413" type="line"/>
      <point x="1330" y="1413" type="line"/>
      <point x="1271" y="1150" type="line"/>
      <point x="607" y="1150" type="line"/>
      <point x="532" y="838" type="line"/>
      <point x="1166" y="838" type="line"/>
      <point x="1106" y="574" type="line"/>
      <point x="473" y="574" type="line"/>
      <point x="404" y="270" type="line"/>
      <point x="1068" y="270" type="line"/>
    </contour>
  </outline>
</glyph>
<glyph name="F" format="2">
  <advance width="1245"/>
  <unicode hex="0046"/>
  <outline>
    <contour>
      <point x="341" y="0" type="line"/>
      <point x="58" y="0" type="line"/>
      <point x="383" y="1413" type="line"/>
      <point x="1414" y="1413" type="line"/>
      <point x="1354" y="1150" type="line"/>
      <point x="607" y="1150" type="line"/>
      <point x="532" y="838" type="line"/>
      <point x="1191" y="838" type="line"/>
      <point x="1132" y="574" type="line"/>
      <point x="473" y="574" type="line"/>
    </contour>
  </outline>
</glyph>
<glyph name="G" format="2">
  <advance width="1542"/>
  <unicode hex="0047"/>
  <outline>
    <contour>
      <point x="661" y="-20" type="qcurve" smooth="yes"/>
      <point x="650" y="-20" type="line" smooth="yes"/>
      <point x="517" y="-20"/>
      <point x="415" y="18" type="qcurve" smooth="yes"/>
      <point x="202" y="98"/>
      <point x="131" y="302" type="qcurve" smooth="yes"/>
      <point x="97" y="397"/>
      <point x="97" y="510" type="qcurve"/>
      <point x="98" y="671"/>
      <point x="146" y="815" type="qcurve"/>
      <point x="169" y="887"/>
      <point x="236" y="1023"/>
      <point x="278" y="1084" type="qcurve" smooth="yes"/>
      <point x="390" y="1247"/>
      <point x="566" y="1340" type="qcurve"/>
      <point x="751" y="1436"/>
      <point x="968" y="1436" type="qcurve" smooth="yes"/>
      <point x="1179" y="1436"/>
      <point x="1471" y="1213"/>
      <point x="1512" y="1010" type="qcurve"/>
      <point x="1246" y="928" type="line"/>
      <point x="1235" y="1065"/>
      <point x="1074" y="1191"/>
      <point x="937" y="1191" type="qcurve" smooth="yes"/>
      <point x="930" y="1191" type="line" smooth="yes"/>
      <point x="830" y="1191"/>
      <point x="656" y="1115"/>
      <point x="515" y="979"/>
      <point x="418" y="795"/>
      <point x="395" y="691" type="qcurve" smooth="yes"/>
      <point x="375" y="600"/>
      <point x="375" y="538" type="qcurve" smooth="yes"/>
      <point x="375" y="466"/>
      <point x="395" y="410" type="qcurve"/>
      <point x="434" y="294"/>
      <point x="554" y="252" type="qcurve" smooth="yes"/>
      <point x="611" y="232"/>
      <point x="701" y="231" type="qcurve"/>
      <point x="771" y="231"/>
      <point x="910" y="281"/>
      <point x="1034" y="371"/>
      <point x="1134" y="491"/>
      <point x="1162" y="560" type="qcurve"/>
      <point x="1081" y="558"/>
      <point x="1001" y="555" type="qcurve" smooth="yes"/>
      <point x="920" y="551"/>
      <point x="839" y="549" type="qcurve"/>
      <point x="850" y="592"/>
      <point x="859" y="635" type="qcurve" smooth="yes"/>
      <point x="871" y="693" type="line"/>
      <point x="881" y="736"/>
      <point x="891" y="779" type="qcurve"/>
      <point x="1488" y="779" type="line"/>
      <point x="1442" y="583"/>
      <point x="1398" y="389" type="qcurve" smooth="yes"/>
      <point x="1353" y="195"/>
      <point x="1308" y="0" type="qcurve"/>
      <point x="1087" y="0" type="line"/>
      <point x="1100" y="168" type="line"/>
      <point x="1059" y="120"/>
      <point x="1009" y="85" type="qcurve"/>
      <point x="864" y="-20"/>
    </contour>
  </outline>
</glyph>
<glyph name="J" format="2">
  <advance width="1143"/>
  <unicode hex="004A"/>
  <outline>
    <contour>
      <point x="403" y="-20" type="qcurve" smooth="yes"/>
      <point x="393" y="-20" type="line" smooth="yes"/>
      <point x="303" y="-20"/>
      <point x="157" y="39"/>
      <point x="53" y="147"/>
      <point x="27" y="221" type="qcurve" smooth="yes"/>
      <point x="2" y="290"/>
      <point x="2" y="369" type="qcurve" smooth="yes"/>
      <point x="2" y="393"/>
      <point x="5" y="439"/>
      <point x="9" y="466" type="qcurve"/>
      <point x="289" y="474" type="line"/>
      <point x="283" y="442"/>
      <point x="283" y="407" type="qcurve" smooth="yes"/>
      <point x="283" y="245"/>
      <point x="438" y="245" type="qcurve" smooth="yes"/>
      <point x="506" y="245"/>
      <point x="598" y="282"/>
      <point x="664" y="352"/>
      <point x="707" y="457"/>
      <point x="723" y="524" type="qcurve" smooth="yes"/>
      <point x="868" y="1150" type="line"/>
      <point x="335" y="1150" type="line"/>
      <point x="378" y="1339"/>
      <point x="396" y="1413" type="qcurve"/>
      <point x="1211" y="1413" type="line"/>
      <point x="1001" y="501" type="line" smooth="yes"/>
      <point x="944" y="255"/>
      <point x="800" y="123" type="qcurve" smooth="yes"/>
      <point x="646" y="-20"/>
    </contour>
  </outline>
</glyph>
<glyph name="L" format="2">
  <advance width="1069"/>
  <unicode hex="004C"/>
  <outline>
    <contour>
      <point x="945" y="0" type="line"/>
      <point x="58" y="0" type="line"/>
      <point x="383" y="1413" type="line"/>
      <point x="666" y="1413" type="line"/>
      <point x="404" y="270" type="line"/>
      <point x="1008" y="270" type="line"/>
    </contour>
  </outline>
</glyph>
<glyph name="N" format="2">
  <advance width="1463"/>
  <unicode hex="004E"/>
  <outline>
    <contour>
      <point x="1176" y="0" type="line"/>
      <point x="916" y="0" type="line"/>
      <point x="542" y="916" type="line"/>
      <point x="327" y="0" type="line"/>
      <point x="58" y="0" type="line"/>
      <point x="383" y="1413" type="line"/>
      <point x="642" y="1413" type="line"/>
      <point x="1017" y="499" type="line"/>
      <point x="1231" y="1413" type="line"/>
      <point x="1502" y="1413" type="line"/>
    </contour>
  </outline>
</glyph>
<glyph name="O" format="2">
  <advance width="1529"/>
  <unicode hex="004F"/>
  <outline>
    <contour>
      <point x="658" y="-20" type="qcurve" smooth="yes"/>
      <point x="647" y="-20" type="line" smooth="yes"/>
      <point x="514" y="-20"/>
      <point x="412" y="18" type="qcurve" smooth="yes"/>
      <point x="306" y="58"/>
      <point x="164" y="201"/>
      <point x="129" y="300" type="qcurve"/>
      <point x="94" y="395"/>
      <point x="94" y="507" type="qcurve"/>
      <point x="96" y="768"/>
      <point x="219" y="988" type="qcurve" smooth="yes"/>
      <point x="279" y="1097"/>
      <point x="454" y="1280"/>
      <point x="565" y="1338" type="qcurve"/>
      <point x="741" y="1434"/>
      <point x="967" y="1434" type="qcurve" smooth="yes"/>
      <point x="977" y="1434" type="line" smooth="yes"/>
      <point x="1242" y="1434"/>
      <point x="1390" y="1283" type="qcurve" smooth="yes"/>
      <point x="1529" y="1141"/>
      <point x="1529" y="896" type="qcurve" smooth="yes"/>
      <point x="1529" y="776"/>
      <point x="1498" y="656" type="qcurve" smooth="yes"/>
      <point x="1433" y="408"/>
      <point x="1260" y="227" type="qcurve" smooth="yes"/>
      <point x="1025" y="-20"/>
    </contour>
    <contour>
      <point x="696" y="230" type="qcurve"/>
      <point x="799" y="230"/>
      <point x="968" y="308"/>
      <point x="1099" y="445"/>
      <point x="1187" y="628"/>
      <point x="1211" y="731" type="qcurve"/>
      <point x="1220" y="775"/>
      <point x="1231" y="855"/>
      <point x="1231" y="894" type="qcurve" smooth="yes"/>
      <point x="1231" y="1031"/>
      <point x="1088" y="1183"/>
      <point x="936" y="1183" type="qcurve" smooth="yes"/>
      <point x="928" y="1183" type="line" smooth="yes"/>
      <point x="826" y="1183"/>
      <point x="743" y="1145" type="qcurve" smooth="yes"/>
      <point x="574" y="1069"/>
      <point x="482" y="877" type="qcurve" smooth="yes"/>
      <point x="437" y="785"/>
      <point x="413" y="681" type="qcurve"/>
      <point x="393" y="603"/>
      <point x="393" y="518" type="qcurve" smooth="yes"/>
      <point x="393" y="451"/>
      <point x="411" y="398" type="qcurve"/>
      <point x="445" y="289"/>
      <point x="556" y="250" type="qcurve" smooth="yes"/>
      <point x="610" y="231"/>
    </contour>
  </outline>
</glyph>
<glyph name="P" format="2">
  <advance width="1170"/>
  <unicode hex="0050"/>
  <outline>
    <contour>
      <point x="338" y="0" type="qcurve"/>
      <point x="58" y="0" type="line"/>
      <point x="139" y="355"/>
      <point x="221" y="708" type="qcurve" smooth="yes"/>
      <point x="302" y="1060"/>
      <point x="383" y="1413" type="qcurve"/>
      <point x="833" y="1413" type="line" smooth="yes"/>
      <point x="1027" y="1413"/>
      <point x="1142" y="1325" type="qcurve" smooth="yes"/>
      <point x="1262" y="1234"/>
      <point x="1262" y="1071" type="qcurve" smooth="yes"/>
      <point x="1262" y="977"/>
      <point x="1228" y="890" type="qcurve"/>
      <point x="1147" y="692"/>
      <point x="920" y="613" type="qcurve"/>
      <point x="802" y="570"/>
      <point x="666" y="570" type="qcurve" smooth="yes"/>
      <point x="470" y="570" type="line"/>
      <point x="439" y="428"/>
      <point x="405" y="286" type="qcurve" smooth="yes"/>
      <point x="370" y="143"/>
    </contour>
    <contour>
      <point x="698" y="837" type="line" smooth="yes"/>
      <point x="817" y="837"/>
      <point x="957" y="922"/>
      <point x="979" y="1012" type="qcurve" smooth="yes"/>
      <point x="984" y="1034"/>
      <point x="984" y="1047" type="qcurve" smooth="yes"/>
      <point x="984" y="1100"/>
      <point x="884" y="1146"/>
      <point x="783" y="1146" type="qcurve" smooth="yes"/>
      <point x="602" y="1146" type="line"/>
      <point x="574" y="1026" type="line" smooth="yes"/>
      <point x="551" y="931"/>
      <point x="530" y="837" type="qcurve"/>
    </contour>
  </outline>
</glyph>
<glyph name="Q" format="2">
  <advance width="1579"/>
  <unicode hex="0051"/>
  <outline>
    <contour>
      <point x="1206" y="-126" type="qcurve"/>
      <point x="1166" y="-76"/>
      <point x="1127" y="-27" type="qcurve" smooth="yes"/>
      <point x="1088" y="23"/>
      <point x="1048" y="72" type="qcurve"/>
      <point x="876" y="-20"/>
      <point x="658" y="-20" type="qcurve" smooth="yes"/>
      <point x="647" y="-20" type="line" smooth="yes"/>
      <point x="514" y="-20"/>
      <point x="413" y="17" type="qcurve" smooth="yes"/>
      <point x="307" y="56"/>
      <point x="166" y="198"/>
      <point x="94" y="396"/>
      <point x="94" y="516" type="qcurve" smooth="yes"/>
      <point x="94" y="636"/>
      <point x="158" y="879"/>
      <point x="279" y="1097"/>
      <point x="454" y="1280"/>
      <point x="565" y="1338" type="qcurve"/>
      <point x="654" y="1386"/>
      <point x="852" y="1433"/>
      <point x="977" y="1434" type="qcurve"/>
      <point x="1112" y="1434"/>
      <point x="1214" y="1395" type="qcurve" smooth="yes"/>
      <point x="1425" y="1315"/>
      <point x="1496" y="1110" type="qcurve" smooth="yes"/>
      <point x="1529" y="1014"/>
      <point x="1529" y="903" type="qcurve"/>
      <point x="1528" y="716"/>
      <point x="1462" y="546" type="qcurve" smooth="yes"/>
      <point x="1388" y="357"/>
      <point x="1265" y="228" type="qcurve"/>
      <point x="1429" y="46" type="line"/>
      <point x="1372" y="3"/>
      <point x="1317" y="-40" type="qcurve" smooth="yes"/>
      <point x="1262" y="-83"/>
    </contour>
    <contour>
      <point x="693" y="249" type="qcurve" smooth="yes"/>
      <point x="786" y="249"/>
      <point x="885" y="281" type="qcurve"/>
      <point x="811" y="363"/>
      <point x="736" y="444" type="qcurve"/>
      <point x="956" y="611" type="line"/>
      <point x="1107" y="457" type="line"/>
      <point x="1170" y="546"/>
      <point x="1249" y="754"/>
      <point x="1249" y="872" type="qcurve" smooth="yes"/>
      <point x="1249" y="940"/>
      <point x="1230" y="993" type="qcurve" smooth="yes"/>
      <point x="1191" y="1102"/>
      <point x="1074" y="1144" type="qcurve"/>
      <point x="1016" y="1163"/>
      <point x="925" y="1164" type="qcurve"/>
      <point x="820" y="1164"/>
      <point x="648" y="1093"/>
      <point x="514" y="964"/>
      <point x="421" y="786"/>
      <point x="394" y="681" type="qcurve" smooth="yes"/>
      <point x="385" y="643"/>
      <point x="375" y="572"/>
      <point x="375" y="539" type="qcurve" smooth="yes"/>
      <point x="375" y="401"/>
      <point x="452" y="327" type="qcurve" smooth="yes"/>
      <point x="532" y="249"/>
    </contour>
  </outline>
</glyph>
<glyph name="V" format="2">
  <advance width="1346"/>
  <unicode hex="0056"/>
  <outline>
    <contour>
      <point x="665" y="0" type="line"/>
      <point x="458" y="0" type="line"/>
      <point x="207" y="1413" type="line"/>
      <point x="520" y="1413" type="line"/>
      <point x="665" y="475" type="line"/>
      <point x="1246" y="1413" type="line"/>
      <point x="1564" y="1413" type="line"/>
    </contour>
  </outline>
</glyph>
<glyph name="W" format="2">
  <advance width="2012"/>
  <unicode hex="0057"/>
  <outline>
    <contour>
      <point x="1407" y="0" type="line"/>
      <point x="1140" y="0" type="line"/>
      <point x="1064" y="966" type="line"/>
      <point x="546" y="0" type="line"/>
      <point x="279" y="0" type="line"/>
      <point x="173" y="1413" type="line"/>
      <point x="468" y="1413" type="line"/>
      <point x="532" y="429" type="line"/>
      <point x="1060" y="1413" type="line"/>
      <point x="1278" y="1413" type="line"/>
      <point x="1352" y="429" type="line"/>
      <point x="1870" y="1413" type="line"/>
      <point x="2165" y="1413" type="line"/>
    </contour>
  </outline>
</glyph>
<glyph name="Y" format="2">
  <advance width="1412"/>
  <unicode hex="0059"/>
  <outline>
    <contour>
      <point x="735" y="0" type="line"/>
      <point x="450" y="0" type="line"/>
      <point x="579" y="550" type="line"/>
      <point x="190" y="1413" type="line"/>
      <point x="521" y="1413" type="line"/>
      <point x="771" y="799" type="line"/>
      <point x="1308" y="1413" type="line"/>
      <point x="1648" y="1413" type="line"/>
      <point x="864" y="550" type="line"/>
    </contour>
  </outline>
</glyph>
<glyph name="backslash" format="2">
  <advance width="933"/>
  <unicode hex="005C"/>
  <outline>
    <contour>
      <point x="769" y="-430" type="line"/>
      <point x="522" y="-430" type="line"/>
      <point x="185" y="1516" type="line"/>
      <point x="428" y="1516" type="line"/>
    </contour>
  </outline>
</glyph>
<glyph name="asciicircum" format="2">
  <advance width="980"/>
  <unicode hex="005E"/>
  <outline>
    <contour>
      <point x="1001" y="794" type="line"/>
      <point x="741" y="794" type="line"/>
      <point x="630" y="1085" type="line"/>
      <point x="382" y="794" type="line"/>
      <point x="108" y="794" type="line"/>
      <point x="719" y="1518" type="line"/>
    </contour>
  </outline>
</glyph>
<glyph name="underscore" format="2">
  <advance width="1248"/>
  <unicode hex="005F"/>
  <outline>
    <contour>
      <point x="898" y="-206" type="line"/>
      <point x="26" y="-206" type="line"/>
      <point x="74" y="0" type="line"/>
      <point x="946" y="0" type="line"/>
    </contour>
  </outline>
</glyph>
<glyph name="a" format="2">
  <advance width="1183"/>
  <unicode hex="0061"/>
  <outline>
    <contour>
      <point x="388" y="-20" type="qcurve" smooth="yes"/>
      <point x="301" y="-20"/>
      <point x="169" y="38"/>
      <point x="82" y="140"/>
      <point x="37" y="280"/>
      <point x="37" y="362" type="qcurve" smooth="yes"/>
      <point x="37" y="434"/>
      <point x="72" y="588"/>
      <point x="138" y="735"/>
      <point x="235" y="867"/>
      <point x="359" y="965"/>
      <point x="506" y="1020"/>
      <point x="586" y="1020" type="qcurve" smooth="yes"/>
      <point x="595" y="1020" type="line" smooth="yes"/>
      <point x="677" y="1020"/>
      <point x="817" y="957"/>
      <point x="853" y="901" type="qcurve"/>
      <point x="872" y="972"/>
      <point x="877" y="987" type="qcurve"/>
      <point x="880" y="999" type="line"/>
      <point x="1158" y="999" type="line"/>
      <point x="928" y="0" type="line"/>
      <point x="676" y="0" type="line"/>
      <point x="685" y="91" type="line"/>
      <point x="570" y="-20"/>
    </contour>
    <contour>
      <point x="484" y="233" type="qcurve" smooth="yes"/>
      <point x="591" y="233"/>
      <point x="766" y="380"/>
      <point x="793" y="524" type="qcurve"/>
      <point x="804" y="576"/>
      <point x="804" y="612" type="qcurve" smooth="yes"/>
      <point x="804" y="685"/>
      <point x="726" y="773"/>
      <point x="636" y="773" type="qcurve" smooth="yes"/>
      <point x="523" y="773"/>
      <point x="348" y="607"/>
      <point x="325" y="474" type="qcurve"/>
      <point x="314" y="432"/>
      <point x="314" y="391" type="qcurve" smooth="yes"/>
      <point x="314" y="321"/>
      <point x="394" y="233"/>
    </contour>
  </outline>
</glyph>
<glyph name="f" format="2">
  <advance width="688"/>
  <unicode hex="0066"/>
  <outline>
    <contour>
      <point x="368" y="0" type="qcurve"/>
      <point x="83" y="0" type="line"/>
      <point x="129" y="196"/>
      <point x="171" y="385" type="qcurve" smooth="yes"/>
      <point x="213" y="573"/>
      <point x="259" y="769" type="qcurve"/>
      <point x="77" y="769" type="line"/>
      <point x="91" y="826"/>
      <point x="104" y="883" type="qcurve" smooth="yes"/>
      <point x="116" y="940"/>
      <point x="130" y="997" type="qcurve"/>
      <point x="315" y="997" type="line"/>
      <point x="318" y="1011" type="line" smooth="yes"/>
      <point x="347" y="1135"/>
      <point x="411" y="1300"/>
      <point x="479" y="1356" type="qcurve" smooth="yes"/>
      <point x="576" y="1434"/>
      <point x="740" y="1434" type="qcurve" smooth="yes"/>
      <point x="824" y="1434"/>
      <point x="921" y="1387" type="qcurve"/>
      <point x="780" y="1176" type="line"/>
      <point x="752" y="1198"/>
      <point x="715" y="1198" type="qcurve" smooth="yes"/>
      <point x="684" y="1198"/>
      <point x="632" y="1148"/>
      <point x="622" y="1101" type="qcurve"/>
      <point x="616" y="1080"/>
      <point x="612" y="1059" type="qcurve"/>
      <point x="605" y="1030"/>
      <point x="596" y="999" type="qcurve"/>
      <point x="814" y="999" type="line"/>
      <point x="761" y="769" type="line"/>
      <point x="543" y="769" type="line"/>
      <point x="497" y="573"/>
      <point x="456" y="385" type="qcurve" smooth="yes"/>
      <point x="414" y="196"/>
    </contour>
  </outline>
</glyph>
<glyph name="k" format="2">
  <advance width="1138"/>
  <unicode hex="006B"/>
  <outline>
    <contour>
      <point x="1041" y="0" type="line"/>
      <point x="723" y="0" type="line"/>
      <point x="539" y="442" type="line"/>
      <point x="367" y="293" type="line"/>
      <point x="297" y="0" type="line"/>
      <point x="25" y="0" type="line"/>
      <point x="350" y="1413" type="line"/>
      <point x="623" y="1413" type="line"/>
      <point x="438" y="622" type="line"/>
      <point x="881" y="999" type="line"/>
      <point x="1243" y="999" type="line"/>
      <point x="761" y="606" type="line"/>
    </contour>
  </outline>
</glyph>
<glyph name="p" format="2">
  <advance width="1183"/>
  <unicode hex="0070"/>
  <outline>
    <contour>
      <point x="201" y="-438" type="qcurve"/>
      <point x="-78" y="-438" type="line"/>
      <point x="254" y="999" type="line"/>
      <point x="525" y="999" type="line"/>
      <point x="522" y="977"/>
      <point x="510" y="919" type="qcurve"/>
      <point x="623" y="1020"/>
      <point x="795" y="1020" type="qcurve" smooth="yes"/>
      <point x="882" y="1020"/>
      <point x="1014" y="962"/>
      <point x="1101" y="859"/>
      <point x="1145" y="718"/>
      <point x="1145" y="635" type="qcurve" smooth="yes"/>
      <point x="1145" y="559"/>
      <point x="1109" y="400"/>
      <point x="1041" y="254"/>
      <point x="942" y="124"/>
      <point x="819" y="30"/>
      <point x="675" y="-20"/>
      <point x="597" y="-20" type="qcurve" smooth="yes"/>
      <point x="588" y="-20" type="line" smooth="yes"/>
      <point x="548" y="-20"/>
      <point x="470" y="-4"/>
      <point x="403" y="26"/>
      <point x="348" y="70"/>
      <point x="330" y="98" type="qcurve"/>
      <point x="303" y="-9"/>
    </contour>
    <contour>
      <point x="549" y="234" type="qcurve" smooth="yes"/>
      <point x="658" y="234"/>
      <point x="823" y="377"/>
      <point x="857" y="524" type="qcurve" smooth="yes"/>
      <point x="868" y="574"/>
      <point x="868" y="612" type="qcurve" smooth="yes"/>
      <point x="868" y="684"/>
      <point x="788" y="774"/>
      <point x="699" y="774" type="qcurve" smooth="yes"/>
      <point x="611" y="774"/>
      <point x="465" y="673"/>
      <point x="379" y="500"/>
      <point x="379" y="392" type="qcurve" smooth="yes"/>
      <point x="379" y="322"/>
      <point x="459" y="234"/>
    </contour>
  </outline>
</glyph>
<glyph name="q" format="2">
  <advance width="1180"/>
  <unicode hex="0071"/>
  <outline>
    <contour>
      <point x="824" y="-438" type="line"/>
      <point x="548" y="-438" type="line"/>
      <point x="673" y="80" type="line"/>
      <point x="566" y="-20"/>
      <point x="388" y="-20" type="qcurve" smooth="yes"/>
      <point x="298" y="-20"/>
      <point x="166" y="40"/>
      <point x="80" y="143"/>
      <point x="38" y="283"/>
      <point x="38" y="362" type="qcurve" smooth="yes"/>
      <point x="38" y="433"/>
      <point x="72" y="587"/>
      <point x="105" y="661" type="qcurve" smooth="yes"/>
      <point x="177" y="820"/>
      <point x="296" y="916" type="qcurve" smooth="yes"/>
      <point x="426" y="1020"/>
      <point x="585" y="1020" type="qcurve" smooth="yes"/>
      <point x="595" y="1020" type="line" smooth="yes"/>
      <point x="677" y="1020"/>
      <point x="816" y="959"/>
      <point x="853" y="901" type="qcurve"/>
      <point x="888" y="999" type="line"/>
      <point x="1156" y="999" type="line"/>
    </contour>
    <contour>
      <point x="485" y="234" type="qcurve" smooth="yes"/>
      <point x="592" y="234"/>
      <point x="759" y="374"/>
      <point x="793" y="524" type="qcurve"/>
      <point x="805" y="572"/>
      <point x="805" y="611" type="qcurve" smooth="yes"/>
      <point x="805" y="683"/>
      <point x="727" y="771"/>
      <point x="636" y="771" type="qcurve" smooth="yes"/>
      <point x="546" y="771"/>
      <point x="400" y="668"/>
      <point x="315" y="495"/>
      <point x="315" y="392" type="qcurve" smooth="yes"/>
      <point x="315" y="323"/>
      <point x="394" y="234"/>
    </contour>
  </outline>
</glyph>
<glyph name="s" format="2">
  <advance width="917"/>
  <unicode hex="0073"/>
  <outline>
    <contour>
      <point x="376" y="-20" type="qcurve" smooth="yes"/>
      <point x="366" y="-20" type="line" smooth="yes"/>
      <point x="288" y="-20"/>
      <point x="220" y="3" type="qcurve" smooth="yes"/>
      <point x="148" y="27"/>
      <point x="40" y="110"/>
      <point x="-25" y="220"/>
      <point x="-29" y="281" type="qcurve"/>
      <point x="196" y="352" type="line"/>
      <point x="208" y="283"/>
      <point x="250" y="246" type="qcurve" smooth="yes"/>
      <point x="297" y="203"/>
      <point x="375" y="203" type="qcurve" smooth="yes"/>
      <point x="416" y="203"/>
      <point x="479" y="225"/>
      <point x="524" y="260"/>
      <point x="548" y="305"/>
      <point x="548" y="327" type="qcurve" smooth="yes"/>
      <point x="548" y="367"/>
      <point x="491" y="398" type="qcurve" smooth="yes"/>
      <point x="466" y="412"/>
      <point x="436" y="424" type="qcurve"/>
      <point x="378" y="444" type="line"/>
      <point x="326" y="458" type="line"/>
      <point x="304" y="463"/>
      <point x="293" y="467" type="qcurve" smooth="yes"/>
      <point x="220" y="494"/>
      <point x="186" y="542" type="qcurve"/>
      <point x="165" y="568"/>
      <point x="141" y="636"/>
      <point x="141" y="688" type="qcurve" smooth="yes"/>
      <point x="141" y="761"/>
      <point x="208" y="882"/>
      <point x="323" y="970"/>
      <point x="399" y="992" type="qcurve" smooth="yes"/>
      <point x="471" y="1014"/>
      <point x="549" y="1014" type="qcurve" smooth="yes"/>
      <point x="558" y="1014" type="line" smooth="yes"/>
      <point x="700" y="1014"/>
      <point x="798" y="959" type="qcurve" smooth="yes"/>
      <point x="908" y="898"/>
      <point x="942" y="786" type="qcurve"/>
      <point x="717" y="696" type="line"/>
      <point x="682" y="808"/>
      <point x="549" y="808" type="qcurve" smooth="yes"/>
      <point x="488" y="808"/>
      <point x="412" y="760"/>
      <point x="412" y="725" type="qcurve" smooth="yes"/>
      <point x="412" y="694"/>
      <point x="463" y="656"/>
      <point x="544" y="623"/>
      <point x="594" y="606" type="qcurve" smooth="yes"/>
      <point x="643" y="589"/>
      <point x="692" y="563" type="qcurve" smooth="yes"/>
      <point x="779" y="516"/>
      <point x="809" y="423" type="qcurve" smooth="yes"/>
      <point x="819" y="391"/>
      <point x="819" y="343" type="qcurve" smooth="yes"/>
      <point x="819" y="264"/>
      <point x="749" y="132"/>
      <point x="626" y="33"/>
      <point x="465" y="-20"/>
    </contour>
  </outline>
</glyph>
<glyph name="t" format="2">
  <advance width="787"/>
  <unicode hex="0074"/>
  <outline>
    <contour>
      <point x="395" y="-21" type="qcurve"/>
      <point x="325" y="-20"/>
      <point x="273" y="-1" type="qcurve"/>
      <point x="206" y="26"/>
      <point x="127" y="137"/>
      <point x="127" y="217" type="qcurve" smooth="yes"/>
      <point x="127" y="257"/>
      <point x="136" y="292" type="qcurve"/>
      <point x="246" y="769" type="line"/>
      <point x="82" y="769" type="line"/>
      <point x="135" y="999" type="line"/>
      <point x="304" y="999" type="line"/>
      <point x="360" y="1254" type="line"/>
      <point x="510" y="1346"/>
      <point x="659" y="1439" type="qcurve"/>
      <point x="559" y="999" type="line"/>
      <point x="821" y="999" type="line"/>
      <point x="767" y="769" type="line"/>
      <point x="505" y="769" type="line"/>
      <point x="476" y="645" type="line" smooth="yes"/>
      <point x="397" y="314"/>
      <point x="397" y="286" type="qcurve" smooth="yes"/>
      <point x="397" y="250"/>
      <point x="442" y="224"/>
      <point x="485" y="224" type="qcurve" smooth="yes"/>
      <point x="567" y="224"/>
      <point x="653" y="269" type="qcurve"/>
      <point x="643" y="218"/>
      <point x="605" y="8" type="qcurve"/>
      <point x="570" y="-5"/>
      <point x="445" y="-21"/>
    </contour>
  </outline>
</glyph>
<glyph name="v" format="2">
  <advance width="1012"/>
  <unicode hex="0076"/>
  <outline>
    <contour>
      <point x="505" y="0" type="line"/>
      <point x="283" y="0" type="line"/>
      <point x="94" y="999" type="line"/>
      <point x="388" y="999" type="line"/>
      <point x="468" y="353" type="line"/>
      <point x="851" y="999" type="line"/>
      <point x="1152" y="999" type="line"/>
    </contour>
  </outline>
</glyph>
<glyph name="z" format="2">
  <advance width="1025"/>
  <unicode hex="007A"/>
  <outline>
    <contour>
      <point x="843" y="0" type="line"/>
      <point x="-66" y="0" type="line"/>
      <point x="-29" y="177" type="line"/>
      <point x="655" y="769" type="line"/>
      <point x="139" y="769" type="line"/>
      <point x="192" y="999" type="line"/>
      <point x="1074" y="999" type="line"/>
      <point x="1033" y="809" type="line"/>
      <point x="376" y="229" type="line"/>
      <point x="896" y="229" type="line"/>
    </contour>
  </outline>
</glyph>
<glyph name="braceright" format="2">
  <advance width="622"/>
  <unicode hex="007D"/>
  <outline>
    <contour>
      <point x="68" y="-167" type="qcurve" smooth="yes"/>
      <point x="-5" y="-167" type="line"/>
      <point x="-52" y="-165" type="line"/>
      <point x="-82" y="-162"/>
      <point x="-99" y="-162" type="qcurve"/>
      <point x="-70" y="23" type="line"/>
      <point x="-33" y="14"/>
      <point x="6" y="14" type="qcurve" smooth="yes"/>
      <point x="62" y="14"/>
      <point x="130" y="90"/>
      <point x="140" y="147" type="qcurve"/>
      <point x="221" y="508" type="line"/>
      <point x="253" y="616"/>
      <point x="394" y="687" type="qcurve"/>
      <point x="305" y="743"/>
      <point x="305" y="844" type="qcurve" smooth="yes"/>
      <point x="305" y="872"/>
      <point x="313" y="902" type="qcurve"/>
      <point x="432" y="1413"/>
      <point x="433" y="1421" type="qcurve"/>
      <point x="433" y="1427"/>
      <point x="427" y="1427" type="qcurve" smooth="yes"/>
      <point x="389" y="1427" type="line" smooth="yes"/>
      <point x="380" y="1427"/>
      <point x="333" y="1421"/>
      <point x="281" y="1412"/>
      <point x="263" y="1408" type="qcurve"/>
      <point x="279" y="1504"/>
      <point x="293" y="1597" type="qcurve"/>
      <point x="329" y="1600"/>
      <point x="363" y="1602"/>
      <point x="439" y="1602" type="qcurve" smooth="yes"/>
      <point x="549" y="1602"/>
      <point x="649" y="1501"/>
      <point x="649" y="1414" type="qcurve" smooth="yes"/>
      <point x="649" y="1365"/>
      <point x="638" y="1320" type="qcurve" smooth="yes"/>
      <point x="539" y="896"/>
      <point x="534" y="866"/>
      <point x="534" y="858" type="qcurve" smooth="yes"/>
      <point x="534" y="822"/>
      <point x="579" y="785"/>
      <point x="634" y="763" type="qcurve"/>
      <point x="607" y="589" type="line"/>
      <point x="593" y="584" type="line" smooth="yes"/>
      <point x="528" y="562"/>
      <point x="452" y="519"/>
      <point x="444" y="480" type="qcurve" smooth="yes"/>
      <point x="423" y="387"/>
      <point x="403" y="298" type="qcurve" smooth="yes"/>
      <point x="382" y="209"/>
      <point x="363" y="122" type="qcurve" smooth="yes"/>
      <point x="343" y="34"/>
      <point x="290" y="-79"/>
      <point x="166" y="-167"/>
    </contour>
  </outline>
</glyph>
<glyph name="exclamdown" format="2">
  <advance width="635"/>
  <unicode hex="00A1"/>
  <outline>
    <contour>
      <point x="513" y="713" type="line"/>
      <point x="225" y="713" type="line"/>
      <point x="288" y="999" type="line"/>
      <point x="576" y="999" type="line"/>
    </contour>
    <contour>
      <point x="235" y="-434" type="line"/>
      <point x="-28" y="-434" type="line"/>
      <point x="228" y="556" type="line"/>
      <point x="434" y="556" type="line"/>
    </contour>
  </outline>
</glyph>
<glyph name="yen" format="2">
  <advance width="1320"/>
  <unicode hex="00A5"/>
  <outline>
    <contour>
      <point x="660" y="0" type="line"/>
      <point x="430" y="0" type="line"/>
      <point x="468" y="163" type="line"/>
      <point x="169" y="163" type="line"/>
      <point x="215" y="368" type="line"/>
      <point x="514" y="368" type="line"/>
      <point x="543" y="485" type="line"/>
      <point x="244" y="485" type="line"/>
      <point x="292" y="693" type="line"/>
      <point x="497" y="693" type="line"/>
      <point x="190" y="1413" type="line"/>
      <point x="462" y="1413" type="line"/>
      <point x="713" y="752" type="line"/>
      <point x="1276" y="1413" type="line"/>
      <point x="1556" y="1413" type="line"/>
      <point x="918" y="690" type="line"/>
      <point x="1116" y="690" type="line"/>
      <point x="1071" y="485" type="line"/>
      <point x="772" y="485" type="line"/>
      <point x="743" y="368" type="line"/>
      <point x="1041" y="368" type="line"/>
      <point x="996" y="163" type="line"/>
      <point x="697" y="163" type="line"/>
    </contour>
  </outline>
</glyph>
<glyph name="brokenbar" format="2">
  <advance width="648"/>
  <unicode hex="00A6"/>
  <outline>
    <contour>
      <point x="492" y="731" type="line"/>
      <point x="262" y="731" type="line"/>
      <point x="434" y="1475" type="line"/>
      <point x="664" y="1475" type="line"/>
    </contour>
    <contour>
      <point x="253" y="-307" type="line"/>
      <point x="23" y="-307" type="line"/>
      <point x="191" y="420" type="line"/>
      <point x="420" y="420" type="line"/>
    </contour>
  </outline>
</glyph>
<glyph name="section" format="2">
  <advance width="1098"/>
  <unicode hex="00A7"/>
  <outline>
    <contour>
      <point x="452" y="-18" type="qcurve" smooth="yes"/>
      <point x="442" y="-18" type="line" smooth="yes"/>
      <point x="368" y="-18"/>
      <point x="300" y="1" type="qcurve"/>
      <point x="227" y="20"/>
      <point x="118" y="98"/>
      <point x="88" y="157" type="qcurve" smooth="yes"/>
      <point x="62" y="206"/>
      <point x="62" y="267" type="qcurve"/>
      <point x="63" y="292" type="line"/>
      <point x="336" y="346" type="line"/>
      <point x="336" y="265"/>
      <point x="403" y="198"/>
      <point x="494" y="198" type="qcurve" smooth="yes"/>
      <point x="586" y="198"/>
      <point x="699" y="263"/>
      <point x="714" y="319" type="qcurve"/>
      <point x="715" y="325"/>
      <point x="715" y="336" type="qcurve" smooth="yes"/>
      <point x="715" y="362"/>
      <point x="703" y="376" type="qcurve" smooth="yes"/>
      <point x="681" y="403"/>
      <point x="614" y="418" type="qcurve" smooth="yes"/>
      <point x="543" y="433" type="line"/>
      <point x="438" y="457"/>
      <point x="360" y="491" type="qcurve"/>
      <point x="311" y="509"/>
      <point x="274" y="539" type="qcurve"/>
      <point x="252" y="562" type="line"/>
      <point x="207" y="612"/>
      <point x="207" y="685" type="qcurve" smooth="yes"/>
      <point x="207" y="765"/>
      <point x="279" y="888"/>
      <point x="342" y="949" type="qcurve"/>
      <point x="299" y="997"/>
      <point x="299" y="1068" type="qcurve" smooth="yes"/>
      <point x="299" y="1151"/>
      <point x="375" y="1286"/>
      <point x="503" y="1383"/>
      <point x="667" y="1434"/>
      <point x="754" y="1434" type="qcurve"/>
      <point x="833" y="1433"/>
      <point x="888" y="1418" type="qcurve" smooth="yes"/>
      <point x="1006" y="1384"/>
      <point x="1070" y="1317" type="qcurve" smooth="yes"/>
      <point x="1102" y="1284"/>
      <point x="1115" y="1250" type="qcurve"/>
      <point x="1057" y="1221"/>
      <point x="998" y="1194" type="qcurve" smooth="yes"/>
      <point x="939" y="1167"/>
      <point x="880" y="1139" type="qcurve"/>
      <point x="865" y="1226"/>
      <point x="731" y="1226" type="qcurve" smooth="yes"/>
      <point x="688" y="1226"/>
      <point x="653" y="1215" type="qcurve" smooth="yes"/>
      <point x="583" y="1192"/>
      <point x="545" y="1142" type="qcurve" smooth="yes"/>
      <point x="522" y="1111"/>
      <point x="517" y="1078" type="qcurve"/>
      <point x="517" y="1059"/>
      <point x="541" y="1032"/>
      <point x="588" y="1010"/>
      <point x="623" y="1001" type="qcurve" smooth="yes"/>
      <point x="702" y="982" type="line"/>
      <point x="769" y="968"/>
      <point x="888" y="934"/>
      <point x="978" y="879"/>
      <point x="1030" y="797"/>
      <point x="1030" y="735" type="qcurve" smooth="yes"/>
      <point x="1030" y="669"/>
      <point x="971" y="536"/>
      <point x="899" y="467" type="qcurve"/>
      <point x="920" y="445"/>
      <point x="939" y="384"/>
      <point x="939" y="346" type="qcurve" smooth="yes"/>
      <point x="939" y="252"/>
      <point x="853" y="114"/>
      <point x="715" y="25"/>
      <point x="541" y="-18"/>
    </contour>
    <contour>
      <point x="685" y="586" type="qcurve"/>
      <point x="776" y="609"/>
      <point x="802" y="704" type="qcurve" smooth="yes"/>
      <point x="805" y="717"/>
      <point x="805" y="726" type="qcurve"/>
      <point x="803" y="739" type="line"/>
      <point x="794" y="769"/>
      <point x="729" y="798"/>
      <point x="679" y="809" type="qcurve"/>
      <point x="640" y="819"/>
      <point x="594" y="833" type="qcurve" smooth="yes"/>
      <point x="580" y="837"/>
      <point x="563" y="840" type="qcurve"/>
      <point x="547" y="844" type="line"/>
      <point x="503" y="823"/>
      <point x="448" y="760"/>
      <point x="437" y="727" type="qcurve"/>
      <point x="431" y="705"/>
      <point x="431" y="697" type="qcurve" smooth="yes"/>
      <point x="431" y="671"/>
      <point x="474" y="639"/>
      <point x="545" y="619"/>
      <point x="591" y="610" type="qcurve" smooth="yes"/>
      <point x="636" y="600"/>
    </contour>
  </outline>
</glyph>
<glyph name="copyright" format="2">
  <advance width="1771"/>
  <unicode hex="00A9"/>
  <outline>
    <contour>
      <point x="935" y="-49" type="qcurve" smooth="yes"/>
      <point x="778" y="-49"/>
      <point x="490" y="64"/>
      <point x="266" y="267"/>
      <point x="136" y="544"/>
      <point x="136" y="707" type="qcurve" smooth="yes"/>
      <point x="136" y="861"/>
      <point x="259" y="1134"/>
      <point x="477" y="1342"/>
      <point x="767" y="1461"/>
      <point x="935" y="1461" type="qcurve" smooth="yes"/>
      <point x="1098" y="1461"/>
      <point x="1386" y="1346"/>
      <point x="1605" y="1140"/>
      <point x="1731" y="866"/>
      <point x="1731" y="707" type="qcurve" smooth="yes"/>
      <point x="1731" y="557"/>
      <point x="1611" y="284"/>
      <point x="1396" y="73"/>
      <point x="1106" y="-49"/>
    </contour>
    <contour>
      <point x="935" y="161" type="qcurve" smooth="yes"/>
      <point x="1087" y="161"/>
      <point x="1355" y="307"/>
      <point x="1522" y="555"/>
      <point x="1522" y="707" type="qcurve" smooth="yes"/>
      <point x="1522" y="822"/>
      <point x="1425" y="1021"/>
      <point x="1259" y="1169"/>
      <point x="1048" y="1252"/>
      <point x="935" y="1252" type="qcurve" smooth="yes"/>
      <point x="825" y="1252"/>
      <point x="616" y="1171"/>
      <point x="448" y="1025"/>
      <point x="348" y="826"/>
      <point x="348" y="707" type="qcurve" smooth="yes"/>
      <point x="348" y="588"/>
      <point x="446" y="389"/>
      <point x="613" y="242"/>
      <point x="823" y="161"/>
    </contour>
    <contour>
      <point x="951" y="253" type="qcurve" smooth="yes"/>
      <point x="944" y="253" type="line" smooth="yes"/>
      <point x="851" y="253"/>
      <point x="704" y="326"/>
      <point x="602" y="452"/>
      <point x="550" y="612"/>
      <point x="550" y="696" type="qcurve" smooth="yes"/>
      <point x="550" y="714" type="line" smooth="yes"/>
      <point x="550" y="800"/>
      <point x="576" y="878" type="qcurve"/>
      <point x="602" y="961"/>
      <point x="704" y="1083"/>
      <point x="855" y="1156"/>
      <point x="951" y="1156" type="qcurve" smooth="yes"/>
      <point x="1019" y="1156"/>
      <point x="1129" y="1124"/>
      <point x="1218" y="1059"/>
      <point x="1291" y="961"/>
      <point x="1321" y="895" type="qcurve"/>
      <point x="1126" y="812" type="line"/>
      <point x="1110" y="848"/>
      <point x="1076" y="898"/>
      <point x="1035" y="929"/>
      <point x="984" y="943"/>
      <point x="951" y="943" type="qcurve" smooth="yes"/>
      <point x="857" y="943"/>
      <point x="760" y="815"/>
      <point x="760" y="705" type="qcurve" smooth="yes"/>
      <point x="760" y="531"/>
      <point x="865" y="485" type="qcurve"/>
      <point x="900" y="468"/>
      <point x="949" y="468" type="qcurve" smooth="yes"/>
      <point x="988" y="468"/>
      <point x="1014" y="476" type="qcurve" smooth="yes"/>
      <point x="1063" y="490"/>
      <point x="1093" y="540" type="qcurve" smooth="yes"/>
      <point x="1107" y="564"/>
      <point x="1124" y="598" type="qcurve"/>
      <point x="1174" y="577"/>
      <point x="1223" y="557" type="qcurve" smooth="yes"/>
      <point x="1271" y="536"/>
      <point x="1321" y="516" type="qcurve"/>
      <point x="1258" y="383"/>
      <point x="1082" y="253"/>
    </contour>
  </outline>
</glyph>
<glyph name="ordfeminine" format="2">
  <advance width="753"/>
  <unicode hex="00AA"/>
  <outline>
    <contour>
      <point x="354" y="709" type="qcurve" smooth="yes"/>
      <point x="263" y="709"/>
      <point x="137" y="810"/>
      <point x="137" y="898" type="qcurve" smooth="yes"/>
      <point x="137" y="984"/>
      <point x="225" y="1098"/>
      <point x="375" y="1153"/>
      <point x="468" y="1153" type="qcurve"/>
      <point x="546" y="1156"/>
      <point x="624" y="1162" type="qcurve"/>
      <point x="665" y="1164" type="line"/>
      <point x="669" y="1187"/>
      <point x="669" y="1205" type="qcurve" smooth="yes"/>
      <point x="669" y="1286"/>
      <point x="566" y="1286" type="qcurve" smooth="yes"/>
      <point x="556" y="1286" type="line" smooth="yes"/>
      <point x="450" y="1286"/>
      <point x="346" y="1168" type="qcurve"/>
      <point x="231" y="1274" type="line"/>
      <point x="315" y="1363"/>
      <point x="470" y="1434"/>
      <point x="568" y="1434" type="qcurve" smooth="yes"/>
      <point x="689" y="1434"/>
      <point x="823" y="1312"/>
      <point x="823" y="1210" type="qcurve" smooth="yes"/>
      <point x="823" y="1177"/>
      <point x="814" y="1137" type="qcurve" smooth="yes"/>
      <point x="717" y="723" type="line"/>
      <point x="573" y="723" type="line"/>
      <point x="578" y="739"/>
      <point x="582" y="756" type="qcurve" smooth="yes"/>
      <point x="586" y="772"/>
      <point x="591" y="788" type="qcurve"/>
      <point x="492" y="709"/>
    </contour>
    <contour>
      <point x="389" y="857" type="qcurve" smooth="yes"/>
      <point x="444" y="857"/>
      <point x="541" y="906"/>
      <point x="614" y="980"/>
      <point x="632" y="1019" type="qcurve"/>
      <point x="457" y="1008" type="line"/>
      <point x="371" y="1008"/>
      <point x="322" y="950" type="qcurve"/>
      <point x="304" y="922"/>
      <point x="304" y="905" type="qcurve" smooth="yes"/>
      <point x="304" y="885"/>
      <point x="353" y="857"/>
    </contour>
  </outline>
</glyph>
<glyph name="guillemotleft" format="2">
  <advance width="948"/>
  <unicode hex="00AB"/>
  <outline>
    <contour>
      <point x="366" y="147" type="line"/>
      <point x="1" y="509" type="line"/>
      <point x="529" y="875" type="line"/>
      <point x="481" y="649" type="line"/>
      <point x="271" y="509" type="line"/>
      <point x="415" y="373" type="line"/>
    </contour>
    <contour>
      <point x="728" y="147" type="line"/>
      <point x="364" y="509" type="line"/>
      <point x="892" y="875" type="line"/>
      <point x="843" y="649" type="line"/>
      <point x="635" y="509" type="line"/>
      <point x="776" y="373" type="line"/>
    </contour>
  </outline>
</glyph>
<glyph name="logicalnot" format="2">
  <advance width="1302"/>
  <unicode hex="00AC"/>
  <outline>
    <contour>
      <point x="1098" y="291" type="line"/>
      <point x="836" y="291" type="line"/>
      <point x="836" y="554" type="line"/>
      <point x="128" y="554" type="line"/>
      <point x="128" y="797" type="line"/>
      <point x="1098" y="797" type="line"/>
    </contour>
  </outline>
</glyph>
<glyph name="sfthyphen" format="2">
  <advance width="1019"/>
  <unicode hex="00AD"/>
  <outline>
    <contour>
      <point x="880" y="486" type="line"/>
      <point x="131" y="486" type="line"/>
      <point x="179" y="692" type="line"/>
      <point x="928" y="692" type="line"/>
    </contour>
  </outline>
</glyph>
<glyph name="registered" format="2">
  <advance width="1771"/>
  <unicode hex="00AE"/>
  <outline>
    <contour>
      <point x="934" y="-47" type="qcurve" smooth="yes"/>
      <point x="779" y="-47"/>
      <point x="492" y="65"/>
      <point x="267" y="268"/>
      <point x="135" y="544"/>
      <point x="135" y="709" type="qcurve" smooth="yes"/>
      <point x="135" y="915"/>
      <point x="350" y="1257"/>
      <point x="712" y="1463"/>
      <point x="934" y="1463" type="qcurve" smooth="yes"/>
      <point x="1150" y="1463"/>
      <point x="1511" y="1262"/>
      <point x="1618" y="1097" type="qcurve" smooth="yes"/>
      <point x="1731" y="921"/>
      <point x="1731" y="709" type="qcurve" smooth="yes"/>
      <point x="1731" y="559"/>
      <point x="1611" y="286"/>
      <point x="1396" y="75"/>
      <point x="1105" y="-47"/>
    </contour>
    <contour>
      <point x="934" y="155" type="qcurve" smooth="yes"/>
      <point x="1048" y="155"/>
      <point x="1155" y="197" type="qcurve" smooth="yes"/>
      <point x="1239" y="230"/>
      <point x="1309" y="284" type="qcurve"/>
      <point x="1111" y="284" type="line"/>
      <point x="940" y="594" type="line"/>
      <point x="864" y="594" type="line"/>
      <point x="864" y="284" type="line"/>
      <point x="660" y="284" type="line"/>
      <point x="660" y="1118" type="line"/>
      <point x="987" y="1118" type="line" smooth="yes"/>
      <point x="1134" y="1118"/>
      <point x="1279" y="973"/>
      <point x="1279" y="858" type="qcurve" smooth="yes"/>
      <point x="1279" y="771"/>
      <point x="1206" y="656"/>
      <point x="1146" y="625" type="qcurve"/>
      <point x="1206" y="523"/>
      <point x="1262" y="424" type="qcurve" smooth="yes"/>
      <point x="1332" y="302" type="line"/>
      <point x="1339" y="308"/>
      <point x="1346" y="314" type="qcurve" smooth="yes"/>
      <point x="1430" y="388"/>
      <point x="1529" y="591"/>
      <point x="1529" y="709" type="qcurve" smooth="yes"/>
      <point x="1529" y="859"/>
      <point x="1365" y="1111"/>
      <point x="1234" y="1185" type="qcurve"/>
      <point x="1093" y="1262"/>
      <point x="934" y="1262" type="qcurve" smooth="yes"/>
      <point x="819" y="1262"/>
      <point x="605" y="1180"/>
      <point x="436" y="1031"/>
      <point x="337" y="829"/>
      <point x="337" y="709" type="qcurve" smooth="yes"/>
      <point x="337" y="603"/>
      <point x="425" y="404"/>
      <point x="585" y="247"/>
      <point x="804" y="155"/>
    </contour>
    <contour>
      <point x="987" y="788" type="line" smooth="yes"/>
      <point x="1044" y="788"/>
      <point x="1086" y="818"/>
      <point x="1086" y="858" type="qcurve" smooth="yes"/>
      <point x="1086" y="901"/>
      <point x="1047" y="925"/>
      <point x="987" y="925" type="qcurve" smooth="yes"/>
      <point x="854" y="925" type="line"/>
      <point x="854" y="788" type="line"/>
    </contour>
  </outline>
</glyph>
<glyph name="twosuperior" format="2">
  <advance width="811"/>
  <unicode hex="00B2"/>
  <outline>
    <contour>
      <point x="688" y="486" type="line"/>
      <point x="-51" y="486" type="line"/>
      <point x="-19" y="656" type="line"/>
      <point x="40" y="684"/>
      <point x="156" y="749"/>
      <point x="264" y="816"/>
      <point x="359" y="883"/>
      <point x="396" y="914" type="qcurve"/>
      <point x="437" y="940"/>
      <point x="513" y="1003"/>
      <point x="571" y="1071"/>
      <point x="605" y="1142"/>
      <point x="605" y="1178" type="qcurve" smooth="yes"/>
      <point x="605" y="1213"/>
      <point x="562" y="1249"/>
      <point x="512" y="1249" type="qcurve" smooth="yes"/>
      <point x="431" y="1249"/>
      <point x="372" y="1190" type="qcurve"/>
      <point x="326" y="1142"/>
      <point x="300" y="1060" type="qcurve"/>
      <point x="126" y="1084" type="line"/>
      <point x="139" y="1150"/>
      <point x="216" y="1279"/>
      <point x="329" y="1380"/>
      <point x="468" y="1441"/>
      <point x="542" y="1441" type="qcurve" smooth="yes"/>
      <point x="549" y="1441" type="line" smooth="yes"/>
      <point x="666" y="1441"/>
      <point x="814" y="1315"/>
      <point x="814" y="1215" type="qcurve" smooth="yes"/>
      <point x="814" y="1112"/>
      <point x="724" y="997" type="qcurve" smooth="yes"/>
      <point x="649" y="901"/>
      <point x="500" y="783" type="qcurve"/>
      <point x="404" y="726" type="line" smooth="yes"/>
      <point x="347" y="693"/>
      <point x="329" y="684" type="qcurve" smooth="yes"/>
      <point x="312" y="675" type="line"/>
      <point x="734" y="680" type="line"/>
    </contour>
  </outline>
</glyph>
<glyph name="threesuperior" format="2">
  <advance width="841"/>
  <unicode hex="00B3"/>
  <outline>
    <contour>
      <point x="335" y="461" type="qcurve" smooth="yes"/>
      <point x="269" y="461"/>
      <point x="153" y="495"/>
      <point x="66" y="558"/>
      <point x="14" y="654"/>
      <point x="14" y="717" type="qcurve" smooth="yes"/>
      <point x="14" y="758"/>
      <point x="25" y="799" type="qcurve"/>
      <point x="126" y="797"/>
      <point x="226" y="794" type="qcurve"/>
      <point x="222" y="777"/>
      <point x="222" y="760" type="qcurve" smooth="yes"/>
      <point x="222" y="709"/>
      <point x="263" y="684" type="qcurve"/>
      <point x="297" y="659"/>
      <point x="361" y="659" type="qcurve" smooth="yes"/>
      <point x="399" y="659"/>
      <point x="478" y="678"/>
      <point x="543" y="718"/>
      <point x="585" y="775"/>
      <point x="585" y="814" type="qcurve" smooth="yes"/>
      <point x="585" y="852"/>
      <point x="514" y="890"/>
      <point x="446" y="890" type="qcurve" smooth="yes"/>
      <point x="335" y="890" type="line"/>
      <point x="375" y="1080" type="line"/>
      <point x="478" y="1080" type="line" smooth="yes"/>
      <point x="534" y="1080"/>
      <point x="611" y="1131"/>
      <point x="624" y="1182" type="qcurve"/>
      <point x="627" y="1192" type="line"/>
      <point x="626" y="1196" type="line"/>
      <point x="626" y="1225"/>
      <point x="568" y="1253"/>
      <point x="521" y="1253" type="qcurve" smooth="yes"/>
      <point x="493" y="1253"/>
      <point x="438" y="1237"/>
      <point x="391" y="1207"/>
      <point x="356" y="1163"/>
      <point x="348" y="1135" type="qcurve"/>
      <point x="207" y="1154"/>
      <point x="171" y="1158" type="qcurve"/>
      <point x="201" y="1290"/>
      <point x="313" y="1374" type="qcurve"/>
      <point x="422" y="1453"/>
      <point x="557" y="1453" type="qcurve" smooth="yes"/>
      <point x="673" y="1453"/>
      <point x="753" y="1394" type="qcurve"/>
      <point x="833" y="1332"/>
      <point x="833" y="1229" type="qcurve" smooth="yes"/>
      <point x="833" y="1166"/>
      <point x="758" y="1034"/>
      <point x="695" y="990" type="qcurve"/>
      <point x="784" y="934"/>
      <point x="784" y="820" type="qcurve" smooth="yes"/>
      <point x="784" y="732"/>
      <point x="705" y="597"/>
      <point x="577" y="507"/>
      <point x="416" y="461"/>
    </contour>
  </outline>
</glyph>
<glyph name="paragraph" format="2">
  <advance width="1232"/>
  <unicode hex="00B6"/>
  <outline>
    <contour>
      <point x="508" y="-246" type="qcurve"/>
      <point x="327" y="-246" type="line"/>
      <point x="534" y="623" type="line"/>
      <point x="525" y="623" type="line" smooth="yes"/>
      <point x="455" y="623"/>
      <point x="391" y="644" type="qcurve" smooth="yes"/>
      <point x="322" y="666"/>
      <point x="219" y="751"/>
      <point x="160" y="869"/>
      <point x="160" y="939" type="qcurve" smooth="yes"/>
      <point x="160" y="946" type="line" smooth="yes"/>
      <point x="160" y="1048"/>
      <point x="252" y="1221"/>
      <point x="405" y="1346"/>
      <point x="596" y="1413"/>
      <point x="695" y="1413" type="qcurve" smooth="yes"/>
      <point x="891" y="1413" type="line"/>
      <point x="806" y="1050"/>
      <point x="724" y="691" type="qcurve" smooth="yes"/>
      <point x="606" y="171"/>
    </contour>
    <contour>
      <point x="855" y="-246" type="qcurve"/>
      <point x="672" y="-246" type="line"/>
      <point x="771" y="178"/>
      <point x="864" y="584" type="qcurve" smooth="yes"/>
      <point x="956" y="989"/>
      <point x="1055" y="1413" type="qcurve"/>
      <point x="1238" y="1413" type="line"/>
      <point x="1139" y="989"/>
      <point x="1047" y="584" type="qcurve" smooth="yes"/>
      <point x="954" y="178"/>
    </contour>
  </outline>
</glyph>
<glyph name="onesuperior" format="2">
  <advance width="862"/>
  <unicode hex="00B9"/>
  <outline>
    <contour>
      <point x="506" y="486" type="line"/>
      <point x="295" y="486" type="line"/>
      <point x="336" y="639"/>
      <point x="380" y="796" type="qcurve"/>
      <point x="476" y="1149" type="line"/>
      <point x="240" y="1149" type="line"/>
      <point x="308" y="1308" type="line"/>
      <point x="418" y="1308" type="line" smooth="yes"/>
      <point x="463" y="1308"/>
      <point x="532" y="1358"/>
      <point x="544" y="1401" type="qcurve" smooth="yes"/>
      <point x="551" y="1428" type="line"/>
      <point x="762" y="1428" type="line"/>
    </contour>
  </outline>
</glyph>
<glyph name="ordmasculine" format="2">
  <advance width="811"/>
  <unicode hex="00BA"/>
  <outline>
    <contour>
      <point x="474" y="711" type="qcurve" smooth="yes"/>
      <point x="466" y="711" type="line" smooth="yes"/>
      <point x="399" y="711"/>
      <point x="288" y="754"/>
      <point x="210" y="832"/>
      <point x="168" y="939"/>
      <point x="168" y="1002" type="qcurve" smooth="yes"/>
      <point x="168" y="1086"/>
      <point x="237" y="1244"/>
      <point x="357" y="1364"/>
      <point x="513" y="1434"/>
      <point x="601" y="1434" type="qcurve"/>
      <point x="677" y="1433"/>
      <point x="786" y="1390"/>
      <point x="825" y="1351" type="qcurve" smooth="yes"/>
      <point x="904" y="1269"/>
      <point x="904" y="1143" type="qcurve" smooth="yes"/>
      <point x="904" y="1062"/>
      <point x="837" y="906"/>
      <point x="720" y="784"/>
      <point x="640" y="746" type="qcurve" smooth="yes"/>
      <point x="564" y="711"/>
    </contour>
    <contour>
      <point x="477" y="867" type="qcurve" smooth="yes"/>
      <point x="548" y="867"/>
      <point x="648" y="929"/>
      <point x="710" y="1033"/>
      <point x="726" y="1099" type="qcurve" smooth="yes"/>
      <point x="734" y="1131"/>
      <point x="734" y="1160" type="qcurve" smooth="yes"/>
      <point x="734" y="1215"/>
      <point x="668" y="1279"/>
      <point x="596" y="1279" type="qcurve" smooth="yes"/>
      <point x="528" y="1279"/>
      <point x="411" y="1207"/>
      <point x="339" y="1076"/>
      <point x="339" y="989" type="qcurve" smooth="yes"/>
      <point x="339" y="867"/>
    </contour>
  </outline>
</glyph>
<glyph name="guillemotright" format="2">
  <advance width="951"/>
  <unicode hex="00BB"/>
  <outline>
    <contour>
      <point x="59" y="147" type="line"/>
      <point x="108" y="373" type="line"/>
      <point x="317" y="509" type="line"/>
      <point x="176" y="649" type="line"/>
      <point x="222" y="875" type="line"/>
      <point x="587" y="509" type="line"/>
    </contour>
    <contour>
      <point x="421" y="147" type="line"/>
      <point x="470" y="373" type="line"/>
      <point x="679" y="509" type="line"/>
      <point x="539" y="649" type="line"/>
      <point x="585" y="875" type="line"/>
      <point x="949" y="509" type="line"/>
    </contour>
  </outline>
</glyph>
<glyph name="questiondown" format="2">
  <advance width="982"/>
  <unicode hex="00BF"/>
  <outline>
    <contour>
      <point x="693" y="713" type="qcurve"/>
      <point x="405" y="713" type="line"/>
      <point x="418" y="768"/>
      <point x="429" y="821" type="qcurve"/>
      <point x="445" y="891" type="line"/>
      <point x="456" y="944"/>
      <point x="469" y="999" type="qcurve"/>
      <point x="758" y="999" type="line"/>
      <point x="727" y="860"/>
    </contour>
    <contour>
      <point x="318" y="-434" type="qcurve" smooth="yes"/>
      <point x="309" y="-434" type="line" smooth="yes"/>
      <point x="228" y="-434"/>
      <point x="86" y="-392"/>
      <point x="-20" y="-310"/>
      <point x="-81" y="-188"/>
      <point x="-81" y="-107" type="qcurve" smooth="yes"/>
      <point x="-81" y="-39"/>
      <point x="-46" y="84"/>
      <point x="11" y="183"/>
      <point x="80" y="257"/>
      <point x="114" y="279" type="qcurve"/>
      <point x="138" y="297"/>
      <point x="188" y="324"/>
      <point x="228" y="342" type="qcurve" smooth="yes"/>
      <point x="291" y="372" type="line" smooth="yes"/>
      <point x="317" y="385"/>
      <point x="353" y="410"/>
      <point x="374" y="436"/>
      <point x="378" y="454" type="qcurve" smooth="yes"/>
      <point x="403" y="560" type="line"/>
      <point x="632" y="560" type="line"/>
      <point x="609" y="454" type="line" smooth="yes"/>
      <point x="579" y="313"/>
      <point x="502" y="240" type="qcurve" smooth="yes"/>
      <point x="467" y="207"/>
      <point x="399" y="170" type="qcurve" smooth="yes"/>
      <point x="332" y="133" type="line" smooth="yes"/>
      <point x="250" y="88"/>
      <point x="217" y="57" type="qcurve" smooth="yes"/>
      <point x="176" y="19"/>
      <point x="159" y="-34" type="qcurve"/>
      <point x="149" y="-62"/>
      <point x="149" y="-95" type="qcurve" smooth="yes"/>
      <point x="149" y="-156"/>
      <point x="241" y="-209"/>
      <point x="323" y="-209" type="qcurve" smooth="yes"/>
      <point x="373" y="-209"/>
      <point x="465" y="-181"/>
      <point x="539" y="-127"/>
      <point x="592" y="-50"/>
      <point x="604" y="0" type="qcurve"/>
      <point x="837" y="-23" type="line"/>
      <point x="816" y="-119"/>
      <point x="714" y="-272"/>
      <point x="571" y="-379"/>
      <point x="485" y="-407" type="qcurve" smooth="yes"/>
      <point x="403" y="-434"/>
    </contour>
  </outline>
</glyph>
<glyph name="Aring" format="2">
  <advance width="1351"/>
  <unicode hex="00C5"/>
  <outline>
    <contour>
      <point x="1240" y="0" type="line"/>
      <point x="942" y="0" type="line"/>
      <point x="903" y="307" type="line"/>
      <point x="372" y="307" type="line"/>
      <point x="281" y="154"/>
      <point x="191" y="0" type="qcurve"/>
      <point x="-121" y="0" type="line"/>
      <point x="730" y="1328" type="line"/>
      <point x="700" y="1355"/>
      <point x="671" y="1437"/>
      <point x="671" y="1480" type="qcurve" smooth="yes"/>
      <point x="671" y="1558"/>
      <point x="755" y="1681"/>
      <point x="883" y="1752"/>
      <point x="949" y="1752" type="qcurve" smooth="yes"/>
      <point x="1034" y="1752"/>
      <point x="1152" y="1639"/>
      <point x="1152" y="1549" type="qcurve" smooth="yes"/>
      <point x="1152" y="1470"/>
      <point x="1072" y="1350"/>
      <point x="1010" y="1313" type="qcurve"/>
    </contour>
    <contour>
      <point x="890" y="1398" type="qcurve" smooth="yes"/>
      <point x="947" y="1398"/>
      <point x="1027" y="1489"/>
      <point x="1027" y="1541" type="qcurve" smooth="yes"/>
      <point x="1027" y="1585"/>
      <point x="974" y="1627"/>
      <point x="932" y="1627" type="qcurve" smooth="yes"/>
      <point x="869" y="1627"/>
      <point x="797" y="1540"/>
      <point x="797" y="1487" type="qcurve" smooth="yes"/>
      <point x="797" y="1445"/>
      <point x="852" y="1398"/>
    </contour>
    <contour>
      <point x="864" y="546" type="line"/>
      <point x="801" y="1003" type="line"/>
      <point x="526" y="546" type="line"/>
    </contour>
  </outline>
</glyph>
<glyph name="divide" format="2">
  <advance width="1359"/>
  <unicode hex="00F7"/>
  <outline>
    <contour>
      <point x="825" y="812" type="line"/>
      <point x="537" y="812" type="line"/>
      <point x="537" y="1098" type="line"/>
      <point x="825" y="1098" type="line"/>
    </contour>
    <contour>
      <point x="1292" y="526" type="line"/>
      <point x="70" y="526" type="line"/>
      <point x="70" y="732" type="line"/>
      <point x="1292" y="732" type="line"/>
    </contour>
    <contour>
      <point x="825" y="143" type="line"/>
      <point x="537" y="143" type="line"/>
      <point x="537" y="431" type="line"/>
      <point x="825" y="431" type="line"/>
    </contour>
  </outline>
</glyph>
<glyph name="oslash" format="2">
  <advance width="1129"/>
  <unicode hex="00F8"/>
  <outline>
    <contour>
      <point x="469" y="-20" type="qcurve" smooth="yes"/>
      <point x="458" y="-20" type="line" smooth="yes"/>
      <point x="332" y="-20"/>
      <point x="236" y="28" type="qcurve"/>
      <point x="229" y="21"/>
      <point x="224" y="14" type="qcurve" smooth="yes"/>
      <point x="218" y="6"/>
      <point x="211" y="-2" type="qcurve"/>
      <point x="65" y="-2" type="line"/>
      <point x="145" y="92" type="line"/>
      <point x="88" y="149"/>
      <point x="29" y="302"/>
      <point x="29" y="390" type="qcurve" smooth="yes"/>
      <point x="29" y="468"/>
      <point x="74" y="622"/>
      <point x="116" y="692" type="qcurve"/>
      <point x="196" y="832"/>
      <point x="489" y="1012"/>
      <point x="657" y="1012" type="qcurve" smooth="yes"/>
      <point x="668" y="1012" type="line" smooth="yes"/>
      <point x="794" y="1012"/>
      <point x="887" y="966" type="qcurve"/>
      <point x="890" y="969"/>
      <point x="893" y="974" type="qcurve" smooth="yes"/>
      <point x="896" y="978"/>
      <point x="916" y="999" type="qcurve"/>
      <point x="1060" y="999" type="line"/>
      <point x="978" y="903" type="line"/>
      <point x="1096" y="789"/>
      <point x="1096" y="604" type="qcurve" smooth="yes"/>
      <point x="1096" y="523"/>
      <point x="1050" y="366"/>
      <point x="1009" y="296" type="qcurve" smooth="yes"/>
      <point x="924" y="152"/>
      <point x="638" y="-20"/>
    </contour>
    <contour>
      <point x="320" y="301" type="qcurve"/>
      <point x="718" y="766" type="line"/>
      <point x="688" y="776"/>
      <point x="640" y="776" type="qcurve" smooth="yes"/>
      <point x="517" y="776"/>
      <point x="344" y="607"/>
      <point x="314" y="470" type="qcurve"/>
      <point x="303" y="428"/>
      <point x="303" y="386" type="qcurve" smooth="yes"/>
      <point x="303" y="334"/>
    </contour>
    <contour>
      <point x="484" y="214" type="qcurve" smooth="yes"/>
      <point x="568" y="214"/>
      <point x="702" y="294"/>
      <point x="791" y="431"/>
      <point x="810" y="520" type="qcurve"/>
      <point x="821" y="564"/>
      <point x="821" y="604" type="qcurve" smooth="yes"/>
      <point x="821" y="657"/>
      <point x="802" y="694" type="qcurve"/>
      <point x="403" y="226" type="line"/>
      <point x="438" y="214"/>
    </contour>
  </outline>
</glyph>
<glyph name="thorn" format="2">
  <advance width="1158"/>
  <unicode hex="00FE"/>
  <outline>
    <contour>
      <point x="179" y="-438" type="qcurve"/>
      <point x="-80" y="-438" type="line"/>
      <point x="348" y="1413" type="line"/>
      <point x="607" y="1413" type="line"/>
      <point x="551" y="1180"/>
      <point x="494" y="948" type="qcurve"/>
      <point x="555" y="986"/>
      <point x="686" y="1020"/>
      <point x="764" y="1020" type="qcurve" smooth="yes"/>
      <point x="938" y="1020"/>
      <point x="1032" y="913" type="qcurve" smooth="yes"/>
      <point x="1122" y="812"/>
      <point x="1122" y="636" type="qcurve" smooth="yes"/>
      <point x="1122" y="566"/>
      <point x="1088" y="411"/>
      <point x="1055" y="337" type="qcurve"/>
      <point x="981" y="177"/>
      <point x="860" y="82" type="qcurve"/>
      <point x="725" y="-20"/>
      <point x="570" y="-20" type="qcurve" smooth="yes"/>
      <point x="552" y="-20" type="line" smooth="yes"/>
      <point x="474" y="-20"/>
      <point x="346" y="29"/>
      <point x="301" y="69" type="qcurve"/>
      <point x="271" y="-59"/>
      <point x="240" y="-185" type="qcurve" smooth="yes"/>
      <point x="209" y="-310"/>
    </contour>
    <contour>
      <point x="538" y="217" type="qcurve" smooth="yes"/>
      <point x="652" y="217"/>
      <point x="824" y="376"/>
      <point x="860" y="525" type="qcurve"/>
      <point x="872" y="567"/>
      <point x="872" y="611" type="qcurve" smooth="yes"/>
      <point x="872" y="688"/>
      <point x="788" y="779"/>
      <point x="695" y="779" type="qcurve" smooth="yes"/>
      <point x="584" y="779"/>
      <point x="426" y="638"/>
      <point x="385" y="515" type="qcurve"/>
      <point x="373" y="471"/>
      <point x="362" y="416"/>
      <point x="362" y="387" type="qcurve" smooth="yes"/>
      <point x="362" y="311"/>
      <point x="445" y="217"/>
    </contour>
  </outline>
</glyph>
<glyph name="Aogonek" format="2">
  <advance width="1355"/>
  <unicode hex="0104"/>
  <outline>
    <contour>
      <point x="1023" y="-451" type="qcurve" smooth="yes"/>
      <point x="935" y="-451"/>
      <point x="824" y="-356"/>
      <point x="824" y="-275" type="qcurve" smooth="yes"/>
      <point x="824" y="-209"/>
      <point x="888" y="-102"/>
      <point x="978" y="-24"/>
      <point x="1018" y="0" type="qcurve"/>
      <point x="939" y="0" type="line"/>
      <point x="900" y="307" type="line"/>
      <point x="373" y="307" type="line"/>
      <point x="193" y="0" type="line"/>
      <point x="-120" y="0" type="line"/>
      <point x="781" y="1413" type="line"/>
      <point x="993" y="1413" type="line"/>
      <point x="1241" y="0" type="line"/>
      <point x="1126" y="0" type="line"/>
      <point x="1251" y="-5" type="line"/>
      <point x="1220" y="-14"/>
      <point x="1105" y="-79"/>
      <point x="1052" y="-124" type="qcurve"/>
      <point x="1023" y="-151"/>
      <point x="982" y="-223"/>
      <point x="982" y="-259" type="qcurve" smooth="yes"/>
      <point x="982" y="-280"/>
      <point x="1005" y="-290"/>
      <point x="1028" y="-290" type="qcurve" smooth="yes"/>
      <point x="1088" y="-290"/>
      <point x="1149" y="-226" type="qcurve"/>
      <point x="1264" y="-337" type="line"/>
      <point x="1163" y="-451"/>
    </contour>
    <contour>
      <point x="860" y="546" type="line"/>
      <point x="799" y="996" type="line"/>
      <point x="527" y="546" type="line"/>
    </contour>
  </outline>
</glyph>
<glyph name="dcaron" format="2">
  <advance width="1420"/>
  <unicode hex="010F"/>
  <outline>
    <contour>
      <point x="388" y="-20" type="qcurve" smooth="yes"/>
      <point x="297" y="-20"/>
      <point x="165" y="40"/>
      <point x="79" y="143"/>
      <point x="37" y="283"/>
      <point x="37" y="362" type="qcurve" smooth="yes"/>
      <point x="37" y="433"/>
      <point x="71" y="587"/>
      <point x="137" y="734"/>
      <point x="234" y="866"/>
      <point x="358" y="966"/>
      <point x="433" y="994" type="qcurve" smooth="yes"/>
      <point x="504" y="1020"/>
      <point x="585" y="1020" type="qcurve" smooth="yes"/>
      <point x="595" y="1020" type="line" smooth="yes"/>
      <point x="677" y="1020"/>
      <point x="817" y="957"/>
      <point x="853" y="901" type="qcurve"/>
      <point x="976" y="1413" type="line"/>
      <point x="1254" y="1413" type="line"/>
      <point x="928" y="0" type="line"/>
      <point x="651" y="0" type="line"/>
      <point x="672" y="80" type="line"/>
      <point x="566" y="-20"/>
    </contour>
    <contour>
      <point x="1412" y="939" type="line"/>
      <point x="1254" y="939" type="line"/>
      <point x="1481" y="1413" type="line"/>
      <point x="1755" y="1413" type="line"/>
      <point x="1650" y="1269"/>
      <point x="1544" y="1121" type="qcurve" smooth="yes"/>
    </contour>
    <contour>
      <point x="484" y="233" type="qcurve" smooth="yes"/>
      <point x="592" y="233"/>
      <point x="758" y="375"/>
      <point x="793" y="524" type="qcurve"/>
      <point x="804" y="576"/>
      <point x="804" y="612" type="qcurve" smooth="yes"/>
      <point x="804" y="685"/>
      <point x="726" y="773"/>
      <point x="636" y="773" type="qcurve" smooth="yes"/>
      <point x="522" y="773"/>
      <point x="348" y="605"/>
      <point x="325" y="474" type="qcurve"/>
      <point x="314" y="432"/>
      <point x="314" y="391" type="qcurve" smooth="yes"/>
      <point x="314" y="321"/>
      <point x="394" y="233"/>
    </contour>
  </outline>
</glyph>
<glyph name="Hbar" format="2">
  <advance width="1500"/>
  <unicode hex="0126"/>
  <outline>
    <contour>
      <point x="1213" y="0" type="line"/>
      <point x="930" y="0" type="line"/>
      <point x="1061" y="574" type="line"/>
      <point x="473" y="574" type="line"/>
      <point x="341" y="0" type="line"/>
      <point x="58" y="0" type="line"/>
      <point x="296" y="1034" type="line"/>
      <point x="197" y="1034" type="line"/>
      <point x="234" y="1194" type="line"/>
      <point x="333" y="1194" type="line"/>
      <point x="383" y="1413" type="line"/>
      <point x="666" y="1413" type="line"/>
      <point x="615" y="1194" type="line"/>
      <point x="1204" y="1194" type="line"/>
      <point x="1256" y="1413" type="line"/>
      <point x="1539" y="1413" type="line"/>
      <point x="1489" y="1194" type="line"/>
      <point x="1587" y="1194" type="line"/>
      <point x="1550" y="1034" type="line"/>
      <point x="1453" y="1034" type="line"/>
    </contour>
    <contour>
      <point x="1121" y="838" type="line"/>
      <point x="1166" y="1034" type="line"/>
      <point x="578" y="1034" type="line"/>
      <point x="532" y="838" type="line"/>
    </contour>
  </outline>
</glyph>
<glyph name="hbar" format="2">
  <advance width="1177"/>
  <unicode hex="0127"/>
  <outline>
    <contour>
      <point x="958" y="0" type="line"/>
      <point x="680" y="0" type="line"/>
      <point x="712" y="144"/>
      <point x="778" y="431" type="qcurve" smooth="yes"/>
      <point x="817" y="598"/>
      <point x="825" y="641"/>
      <point x="825" y="669" type="qcurve" smooth="yes"/>
      <point x="825" y="713"/>
      <point x="780" y="761"/>
      <point x="724" y="761" type="qcurve" smooth="yes"/>
      <point x="717" y="761" type="line" smooth="yes"/>
      <point x="627" y="761"/>
      <point x="535" y="689" type="qcurve" smooth="yes"/>
      <point x="492" y="656"/>
      <point x="430" y="575"/>
      <point x="423" y="536" type="qcurve"/>
      <point x="392" y="401"/>
      <point x="363" y="268" type="qcurve" smooth="yes"/>
      <point x="333" y="135"/>
      <point x="302" y="0" type="qcurve"/>
      <point x="23" y="0" type="line"/>
      <point x="276" y="1102" type="line"/>
      <point x="143" y="1102" type="line"/>
      <point x="183" y="1281" type="line"/>
      <point x="318" y="1281" type="line"/>
      <point x="348" y="1413" type="line"/>
      <point x="627" y="1413" type="line"/>
      <point x="595" y="1281" type="line"/>
      <point x="818" y="1281" type="line"/>
      <point x="778" y="1102" type="line"/>
      <point x="552" y="1102" type="line"/>
      <point x="541" y="1053"/>
      <point x="529" y="1004" type="qcurve" smooth="yes"/>
      <point x="516" y="955"/>
      <point x="505" y="906" type="qcurve"/>
      <point x="631" y="1016"/>
      <point x="799" y="1016" type="qcurve" smooth="yes"/>
      <point x="877" y="1016"/>
      <point x="994" y="970"/>
      <point x="1069" y="888"/>
      <point x="1106" y="776"/>
      <point x="1106" y="708" type="qcurve" smooth="yes"/>
      <point x="1106" y="645"/>
      <point x="1091" y="584" type="qcurve"/>
    </contour>
  </outline>
</glyph>
<glyph name="iogonek" format="2">
  <advance width="519"/>
  <unicode hex="012F"/>
  <outline>
    <contour>
      <point x="558" y="1178" type="line"/>
      <point x="276" y="1178" type="line"/>
      <point x="329" y="1413" type="line"/>
      <point x="611" y="1413" type="line"/>
    </contour>
    <contour>
      <point x="48" y="-451" type="qcurve" smooth="yes"/>
      <point x="-41" y="-451"/>
      <point x="-151" y="-355"/>
      <point x="-151" y="-275" type="qcurve" smooth="yes"/>
      <point x="-151" y="-209"/>
      <point x="-87" y="-102"/>
      <point x="3" y="-24"/>
      <point x="43" y="0" type="qcurve"/>
      <point x="21" y="0" type="line"/>
      <point x="250" y="999" type="line"/>
      <point x="499" y="999" type="line"/>
      <point x="270" y="0" type="line"/>
      <point x="151" y="0" type="line"/>
      <point x="276" y="-5" type="line"/>
      <point x="245" y="-14"/>
      <point x="130" y="-79"/>
      <point x="77" y="-124" type="qcurve"/>
      <point x="48" y="-151"/>
      <point x="7" y="-223"/>
      <point x="7" y="-259" type="qcurve" smooth="yes"/>
      <point x="7" y="-279"/>
      <point x="29" y="-290"/>
      <point x="53" y="-290" type="qcurve" smooth="yes"/>
      <point x="113" y="-290"/>
      <point x="174" y="-226" type="qcurve"/>
      <point x="289" y="-337" type="line"/>
      <point x="192" y="-451"/>
    </contour>
  </outline>
</glyph>
<glyph name="ij" format="2">
  <advance width="1102"/>
  <unicode hex="0133"/>
  <outline>
    <contour>
      <point x="572" y="1178" type="line"/>
      <point x="290" y="1178" type="line"/>
      <point x="343" y="1413" type="line"/>
      <point x="625" y="1413" type="line"/>
    </contour>
    <contour>
      <point x="1122" y="1149" type="line"/>
      <point x="840" y="1149" type="line"/>
      <point x="870" y="1283"/>
      <point x="901" y="1411" type="qcurve"/>
      <point x="1182" y="1411" type="line"/>
    </contour>
    <contour>
      <point x="292" y="0" type="line"/>
      <point x="23" y="0" type="line"/>
      <point x="252" y="999" type="line"/>
      <point x="522" y="999" type="line"/>
    </contour>
    <contour>
      <point x="459" y="-438" type="qcurve" smooth="yes"/>
      <point x="360" y="-438"/>
      <point x="278" y="-400" type="qcurve"/>
      <point x="389" y="-168" type="line"/>
      <point x="408" y="-178"/>
      <point x="438" y="-187"/>
      <point x="458" y="-187" type="qcurve" smooth="yes"/>
      <point x="501" y="-187"/>
      <point x="546" y="-125"/>
      <point x="557" y="-67" type="qcurve"/>
      <point x="802" y="999" type="line"/>
      <point x="1077" y="999" type="line"/>
      <point x="818" y="-127" type="line"/>
      <point x="783" y="-254"/>
      <point x="696" y="-343" type="qcurve"/>
      <point x="601" y="-438"/>
    </contour>
  </outline>
</glyph>
<glyph name="Kcedilla" format="2">
  <advance width="1501"/>
  <unicode hex="0136"/>
  <outline>
    <contour>
      <point x="1381" y="0" type="line"/>
      <point x="1032" y="0" type="line"/>
      <point x="759" y="635" type="line"/>
      <point x="426" y="360" type="line"/>
      <point x="341" y="0" type="line"/>
      <point x="58" y="0" type="line"/>
      <point x="383" y="1413" type="line"/>
      <point x="666" y="1413" type="line"/>
      <point x="501" y="705" type="line"/>
      <point x="1323" y="1413" type="line"/>
      <point x="1710" y="1413" type="line"/>
      <point x="998" y="827" type="line"/>
    </contour>
    <contour>
      <point x="432" y="-463" type="line"/>
      <point x="276" y="-463" type="line"/>
      <point x="498" y="-104" type="line"/>
      <point x="770" y="-104" type="line"/>
    </contour>
  </outline>
</glyph>
<glyph name="kcedilla" format="2">
  <advance width="1138"/>
  <unicode hex="0137"/>
  <outline>
    <contour>
      <point x="1041" y="0" type="line"/>
      <point x="723" y="0" type="line"/>
      <point x="539" y="442" type="line"/>
      <point x="367" y="293" type="line"/>
      <point x="297" y="0" type="line"/>
      <point x="25" y="0" type="line"/>
      <point x="350" y="1413" type="line"/>
      <point x="623" y="1413" type="line"/>
      <point x="438" y="622" type="line"/>
      <point x="881" y="999" type="line"/>
      <point x="1243" y="999" type="line"/>
      <point x="761" y="606" type="line"/>
    </contour>
    <contour>
      <point x="304" y="-463" type="line"/>
      <point x="148" y="-463" type="line"/>
      <point x="370" y="-104" type="line"/>
      <point x="642" y="-104" type="line"/>
    </contour>
  </outline>
</glyph>
<glyph name="Lcaron" format="2">
  <advance width="1071"/>
  <unicode hex="013D"/>
  <outline>
    <contour>
      <point x="946" y="0" type="line"/>
      <point x="59" y="0" type="line"/>
      <point x="384" y="1413" type="line"/>
      <point x="667" y="1413" type="line"/>
      <point x="405" y="270" type="line"/>
      <point x="1009" y="270" type="line"/>
    </contour>
    <contour>
      <point x="951" y="939" type="line"/>
      <point x="791" y="939" type="line"/>
      <point x="1018" y="1413" type="line"/>
      <point x="1292" y="1413" type="line"/>
    </contour>
  </outline>
</glyph>
<glyph name="lcaron" format="2">
  <advance width="810"/>
  <unicode hex="013E"/>
  <outline>
    <contour>
      <point x="249" y="-20" type="qcurve" smooth="yes"/>
      <point x="147" y="-20"/>
      <point x="92" y="33" type="qcurve" smooth="yes"/>
      <point x="56" y="68"/>
      <point x="56" y="141" type="qcurve" smooth="yes"/>
      <point x="56" y="176"/>
      <point x="74" y="248" type="qcurve"/>
      <point x="342" y="1413" type="line"/>
      <point x="615" y="1413" type="line"/>
      <point x="407" y="519"/>
      <point x="353" y="283" type="qcurve"/>
      <point x="353" y="277"/>
      <point x="352" y="273" type="qcurve" smooth="yes"/>
      <point x="351" y="268"/>
      <point x="351" y="264" type="qcurve" smooth="yes"/>
      <point x="351" y="242"/>
      <point x="385" y="227"/>
      <point x="425" y="227" type="qcurve"/>
      <point x="485" y="234" type="line"/>
      <point x="444" y="-2" type="line"/>
      <point x="327" y="-20"/>
    </contour>
    <contour>
      <point x="803" y="939" type="line"/>
      <point x="645" y="939" type="line"/>
      <point x="872" y="1413" type="line"/>
      <point x="1145" y="1413" type="line"/>
    </contour>
  </outline>
</glyph>
<glyph name="Lslash" format="2">
  <advance width="1094"/>
  <unicode hex="0141"/>
  <outline>
    <contour>
      <point x="970" y="0" type="line"/>
      <point x="83" y="0" type="line"/>
      <point x="176" y="407" type="line"/>
      <point x="-18" y="278" type="line"/>
      <point x="59" y="569" type="line"/>
      <point x="240" y="688" type="line"/>
      <point x="408" y="1413" type="line"/>
      <point x="691" y="1413" type="line"/>
      <point x="576" y="907" type="line"/>
      <point x="801" y="1055" type="line"/>
      <point x="724" y="772" type="line"/>
      <point x="512" y="629" type="line"/>
      <point x="429" y="270" type="line"/>
      <point x="1033" y="270" type="line"/>
    </contour>
  </outline>
</glyph>
<glyph name="Tbar" format="2">
  <advance width="1159"/>
  <unicode hex="0166"/>
  <outline>
    <contour>
      <point x="606" y="0" type="line"/>
      <point x="323" y="0" type="line"/>
      <point x="465" y="618" type="line"/>
      <point x="288" y="618" type="line"/>
      <point x="328" y="797" type="line"/>
      <point x="506" y="797" type="line"/>
      <point x="589" y="1156" type="line"/>
      <point x="156" y="1156" type="line"/>
      <point x="216" y="1413" type="line"/>
      <point x="1363" y="1413" type="line"/>
      <point x="1303" y="1156" type="line"/>
      <point x="871" y="1156" type="line"/>
      <point x="788" y="797" type="line"/>
      <point x="963" y="797" type="line"/>
      <point x="923" y="618" type="line"/>
      <point x="747" y="618" type="line"/>
    </contour>
  </outline>
</glyph>
<glyph name="florin" format="2">
  <advance width="1020"/>
  <unicode hex="0192"/>
  <outline>
    <contour>
      <point x="-170" y="-457" type="qcurve"/>
      <point x="-159" y="-400"/>
      <point x="-150" y="-344" type="qcurve" smooth="yes"/>
      <point x="-141" y="-287"/>
      <point x="-130" y="-230" type="qcurve"/>
      <point x="-117" y="-230" type="line" smooth="yes"/>
      <point x="66" y="-230"/>
      <point x="237" y="-116"/>
      <point x="280" y="53" type="qcurve"/>
      <point x="446" y="775" type="line"/>
      <point x="268" y="775" type="line"/>
      <point x="303" y="924" type="line"/>
      <point x="311" y="962"/>
      <point x="320" y="999" type="qcurve"/>
      <point x="498" y="999" type="line"/>
      <point x="526" y="1118"/>
      <point x="600" y="1300"/>
      <point x="676" y="1366" type="qcurve" smooth="yes"/>
      <point x="715" y="1400"/>
      <point x="832" y="1447"/>
      <point x="902" y="1447" type="qcurve" smooth="yes"/>
      <point x="980" y="1447"/>
      <point x="1084" y="1389"/>
      <point x="1148" y="1324" type="qcurve"/>
      <point x="1114" y="1294"/>
      <point x="1081" y="1265" type="qcurve" smooth="yes"/>
      <point x="1039" y="1227" type="line" smooth="yes"/>
      <point x="1007" y="1198"/>
      <point x="972" y="1168" type="qcurve"/>
      <point x="951" y="1191"/>
      <point x="925" y="1213"/>
      <point x="899" y="1220"/>
      <point x="876" y="1220" type="qcurve" smooth="yes"/>
      <point x="835" y="1220"/>
      <point x="764" y="1161"/>
      <point x="750" y="1102" type="qcurve" smooth="yes"/>
      <point x="726" y="999" type="line"/>
      <point x="1030" y="999" type="line"/>
      <point x="1021" y="962"/>
      <point x="1013" y="924" type="qcurve"/>
      <point x="978" y="775" type="line"/>
      <point x="673" y="775" type="line"/>
      <point x="503" y="30" type="line" smooth="yes"/>
      <point x="392" y="-457"/>
    </contour>
  </outline>
</glyph>
<glyph name="dotlessj" format="2">
  <advance width="537"/>
  <unicode hex="0237"/>
  <outline>
    <contour>
      <point x="-111" y="-438" type="qcurve" smooth="yes"/>
      <point x="-193" y="-438"/>
      <point x="-281" y="-400" type="qcurve"/>
      <point x="-182" y="-185" type="line"/>
      <point x="-134" y="-197"/>
      <point x="-87" y="-197" type="qcurve" smooth="yes"/>
      <point x="-45" y="-197"/>
      <point x="-2" y="-140"/>
      <point x="8" y="-84" type="qcurve"/>
      <point x="26" y="-2"/>
      <point x="257" y="999" type="qcurve"/>
      <point x="513" y="999" type="line"/>
      <point x="255" y="-115" type="line"/>
      <point x="235" y="-210"/>
      <point x="137" y="-355"/>
      <point x="-13" y="-438"/>
    </contour>
  </outline>
</glyph>
<glyph name="aturned" format="2">
  <advance width="1106"/>
  <unicode hex="0250"/>
  <outline>
    <contour>
      <point x="476" y="-20" type="qcurve" smooth="yes"/>
      <point x="386" y="-20"/>
      <point x="247" y="26"/>
      <point x="151" y="109"/>
      <point x="101" y="227"/>
      <point x="101" y="297" type="qcurve" smooth="yes"/>
      <point x="101" y="359"/>
      <point x="114" y="402" type="qcurve"/>
      <point x="250" y="995" type="line"/>
      <point x="459" y="995" type="line"/>
      <point x="460" y="965"/>
      <point x="460" y="934" type="qcurve" smooth="yes"/>
      <point x="460" y="902"/>
      <point x="461" y="871" type="qcurve"/>
      <point x="500" y="914"/>
      <point x="577" y="971"/>
      <point x="658" y="1003"/>
      <point x="746" y="1016"/>
      <point x="795" y="1016" type="qcurve" smooth="yes"/>
      <point x="914" y="1016"/>
      <point x="998" y="959" type="qcurve" smooth="yes"/>
      <point x="1115" y="881"/>
      <point x="1117" y="734" type="qcurve"/>
      <point x="1117" y="641"/>
      <point x="1082" y="578" type="qcurve" smooth="yes"/>
      <point x="1007" y="446"/>
      <point x="817" y="410" type="qcurve" smooth="yes"/>
      <point x="726" y="392"/>
      <point x="563" y="389" type="qcurve"/>
      <point x="421" y="382"/>
      <point x="371" y="381" type="qcurve"/>
      <point x="364" y="353"/>
      <point x="364" y="330" type="qcurve" smooth="yes"/>
      <point x="364" y="218"/>
      <point x="512" y="218" type="qcurve" smooth="yes"/>
      <point x="547" y="218"/>
      <point x="622" y="243"/>
      <point x="691" y="284"/>
      <point x="748" y="336"/>
      <point x="767" y="364" type="qcurve"/>
      <point x="797" y="335" type="line"/>
      <point x="820" y="314"/>
      <point x="841" y="292" type="qcurve"/>
      <point x="871" y="264" type="line"/>
      <point x="893" y="242"/>
      <point x="915" y="221" type="qcurve" smooth="yes"/>
      <point x="945" y="192" type="line"/>
      <point x="893" y="140"/>
      <point x="840" y="99" type="qcurve"/>
      <point x="681" y="-20"/>
    </contour>
    <contour>
      <point x="415" y="573" type="qcurve"/>
      <point x="472" y="575"/>
      <point x="529" y="579" type="qcurve" smooth="yes"/>
      <point x="585" y="582"/>
      <point x="642" y="584" type="qcurve"/>
      <point x="677" y="584"/>
      <point x="747" y="607"/>
      <point x="804" y="646"/>
      <point x="840" y="697"/>
      <point x="840" y="722" type="qcurve" smooth="yes"/>
      <point x="840" y="751"/>
      <point x="774" y="786"/>
      <point x="721" y="786" type="qcurve" smooth="yes"/>
      <point x="714" y="786" type="line" smooth="yes"/>
      <point x="669" y="786"/>
      <point x="623" y="769" type="qcurve" smooth="yes"/>
      <point x="572" y="751"/>
      <point x="486" y="689"/>
      <point x="424" y="612"/>
    </contour>
  </outline>
</glyph>
<glyph name="circumflex" format="2">
  <advance width="620"/>
  <unicode hex="02C6"/>
  <outline>
    <contour>
      <point x="742" y="1098" type="line"/>
      <point x="552" y="1098" type="line"/>
      <point x="467" y="1230" type="line"/>
      <point x="321" y="1098" type="line"/>
      <point x="117" y="1098" type="line"/>
      <point x="508" y="1449" type="line"/>
    </contour>
  </outline>
</glyph>
<glyph name="caron" format="2">
  <advance width="627"/>
  <unicode hex="02C7"/>
  <outline>
    <contour>
      <point x="455" y="1078" type="line"/>
      <point x="216" y="1410" type="line"/>
      <point x="410" y="1410" type="line"/>
      <point x="492" y="1290" type="line"/>
      <point x="641" y="1410" type="line"/>
      <point x="842" y="1410" type="line"/>
    </contour>
  </outline>
</glyph>
<glyph name="breve" format="2">
  <advance width="803"/>
  <unicode hex="02D8"/>
  <outline>
    <contour>
      <point x="564" y="1143" type="qcurve" smooth="yes"/>
      <point x="286" y="1143"/>
      <point x="286" y="1335" type="qcurve" smooth="yes"/>
      <point x="286" y="1365"/>
      <point x="297" y="1413" type="qcurve"/>
      <point x="476" y="1413" type="line"/>
      <point x="472" y="1394"/>
      <point x="472" y="1373" type="qcurve" smooth="yes"/>
      <point x="472" y="1328"/>
      <point x="522" y="1295"/>
      <point x="571" y="1295" type="qcurve" smooth="yes"/>
      <point x="634" y="1295"/>
      <point x="735" y="1359"/>
      <point x="750" y="1413" type="qcurve"/>
      <point x="930" y="1413" type="line"/>
      <point x="897" y="1270"/>
      <point x="727" y="1143"/>
    </contour>
  </outline>
</glyph>
<glyph name="ring" format="2">
  <advance width="631"/>
  <unicode hex="02DA"/>
  <outline>
    <contour>
      <point x="462" y="1066" type="qcurve" smooth="yes"/>
      <point x="372" y="1066"/>
      <point x="260" y="1185"/>
      <point x="260" y="1268" type="qcurve" smooth="yes"/>
      <point x="260" y="1342"/>
      <point x="340" y="1468"/>
      <point x="468" y="1544"/>
      <point x="540" y="1544" type="qcurve" smooth="yes"/>
      <point x="628" y="1544"/>
      <point x="744" y="1428"/>
      <point x="744" y="1342" type="qcurve" smooth="yes"/>
      <point x="744" y="1263"/>
      <point x="658" y="1138"/>
      <point x="528" y="1066"/>
    </contour>
    <contour>
      <point x="483" y="1205" type="qcurve" smooth="yes"/>
      <point x="536" y="1205"/>
      <point x="572" y="1248" type="qcurve"/>
      <point x="602" y="1287"/>
      <point x="602" y="1330" type="qcurve" smooth="yes"/>
      <point x="602" y="1349"/>
      <point x="600" y="1351" type="qcurve"/>
      <point x="596" y="1381"/>
      <point x="551" y="1412"/>
      <point x="519" y="1412" type="qcurve" smooth="yes"/>
      <point x="466" y="1412"/>
      <point x="402" y="1339"/>
      <point x="402" y="1285" type="qcurve" smooth="yes"/>
      <point x="402" y="1248"/>
      <point x="444" y="1205"/>
    </contour>
  </outline>
</glyph>
<glyph name="hungarumlaut" format="2">
  <advance width="888"/>
  <unicode hex="02DD"/>
  <outline>
    <contour>
      <point x="351" y="1072" type="line"/>
      <point x="155" y="1072" type="line"/>
      <point x="461" y="1413" type="line"/>
      <point x="694" y="1413" type="line"/>
    </contour>
    <contour>
      <point x="705" y="1072" type="line"/>
      <point x="509" y="1072" type="line"/>
      <point x="815" y="1413" type="line"/>
      <point x="1100" y="1413" type="line"/>
    </contour>
  </outline>
</glyph>
<glyph name="uni02F5" format="2">
  <advance width="991"/>
  <unicode hex="02F5"/>
  <outline>
    <contour>
      <point x="988" y="655" type="line"/>
      <point x="806" y="655" type="line"/>
      <point x="479" y="999" type="line"/>
      <point x="759" y="999" type="line"/>
    </contour>
    <contour>
      <point x="429" y="655" type="line"/>
      <point x="248" y="655" type="line"/>
      <point x="-79" y="999" type="line"/>
      <point x="200" y="999" type="line"/>
    </contour>
  </outline>
</glyph>
<glyph name="uni02F6" format="2">
  <advance width="991"/>
  <unicode hex="02F6"/>
  <outline>
    <contour>
      <point x="282" y="655" type="line"/>
      <point x="99" y="655" type="line"/>
      <point x="329" y="999" type="line"/>
      <point x="609" y="999" type="line"/>
    </contour>
    <contour>
      <point x="647" y="655" type="line"/>
      <point x="465" y="655" type="line"/>
      <point x="694" y="999" type="line"/>
      <point x="975" y="999" type="line"/>
    </contour>
  </outline>
</glyph>
<glyph name="acutecmb" format="2">
  <unicode hex="0301"/>
  <anchor x="-232" y="999" name="_t.ringcmb_1"/>
  <outline>
    <contour>
      <point x="-176" y="1124" type="line"/>
      <point x="-374" y="1124" type="line"/>
      <point x="-79" y="1413" type="line"/>
      <point x="206" y="1413" type="line"/>
    </contour>
  </outline>
</glyph>
<glyph name="circumflexcmb" format="2">
  <unicode hex="0302"/>
  <anchor x="-211" y="999" name="_t.ringcmb_1"/>
  <outline>
    <contour>
      <point x="137" y="1098" type="line"/>
      <point x="-53" y="1098" type="line"/>
      <point x="-138" y="1230" type="line"/>
      <point x="-284" y="1098" type="line"/>
      <point x="-488" y="1098" type="line"/>
      <point x="-97" y="1449" type="line"/>
    </contour>
  </outline>
</glyph>
<glyph name="tildecmb" format="2">
  <unicode hex="0303"/>
  <anchor x="-277" y="1020" name="_t.ringcmb_1"/>
  <outline>
    <contour>
      <point x="-115" y="1119" type="qcurve"/>
      <point x="-150" y="1120"/>
      <point x="-199" y="1133"/>
      <point x="-234" y="1156"/>
      <point x="-259" y="1190"/>
      <point x="-271" y="1213" type="qcurve" smooth="yes"/>
      <point x="-286" y="1242"/>
      <point x="-297" y="1254" type="qcurve"/>
      <point x="-308" y="1263"/>
      <point x="-324" y="1263" type="qcurve" smooth="yes"/>
      <point x="-329" y="1263" type="line"/>
      <point x="-372" y="1253"/>
      <point x="-402" y="1195" type="qcurve"/>
      <point x="-420" y="1163"/>
      <point x="-431" y="1122" type="qcurve"/>
      <point x="-602" y="1122" type="line"/>
      <point x="-577" y="1240"/>
      <point x="-528" y="1310" type="qcurve" smooth="yes"/>
      <point x="-454" y="1415"/>
      <point x="-334" y="1420" type="qcurve"/>
      <point x="-299" y="1420"/>
      <point x="-253" y="1408"/>
      <point x="-219" y="1385"/>
      <point x="-191" y="1350"/>
      <point x="-178" y="1328" type="qcurve" smooth="yes"/>
      <point x="-162" y="1301"/>
      <point x="-138" y="1280"/>
      <point x="-123" y="1280" type="qcurve" smooth="yes"/>
      <point x="-119" y="1280" type="line"/>
      <point x="-112" y="1282"/>
      <point x="-88" y="1296" type="qcurve"/>
      <point x="-70" y="1312"/>
      <point x="-34" y="1374"/>
      <point x="-24" y="1413" type="qcurve"/>
      <point x="155" y="1413" type="line"/>
      <point x="122" y="1264"/>
      <point x="-17" y="1119"/>
    </contour>
  </outline>
</glyph>
<glyph name="macroncmb" format="2">
  <unicode hex="0304"/>
  <anchor x="-303" y="999" name="_t.ringcmb_1"/>
  <outline>
    <contour>
      <point x="15" y="1136" type="line"/>
      <point x="-550" y="1136" type="line"/>
      <point x="-515" y="1284" type="line"/>
      <point x="49" y="1284" type="line"/>
    </contour>
  </outline>
</glyph>
<glyph name="brevecmb" format="2">
  <unicode hex="0306"/>
  <anchor x="-291" y="999" name="_t.ringcmb_1"/>
  <outline>
    <contour>
      <point x="-240" y="1143" type="qcurve" smooth="yes"/>
      <point x="-518" y="1143"/>
      <point x="-518" y="1335" type="qcurve" smooth="yes"/>
      <point x="-518" y="1365"/>
      <point x="-507" y="1413" type="qcurve"/>
      <point x="-328" y="1413" type="line"/>
      <point x="-332" y="1394"/>
      <point x="-332" y="1373" type="qcurve" smooth="yes"/>
      <point x="-332" y="1328"/>
      <point x="-282" y="1295"/>
      <point x="-233" y="1295" type="qcurve" smooth="yes"/>
      <point x="-170" y="1295"/>
      <point x="-69" y="1359"/>
      <point x="-54" y="1413" type="qcurve"/>
      <point x="126" y="1413" type="line"/>
      <point x="93" y="1270"/>
      <point x="-77" y="1143"/>
    </contour>
  </outline>
</glyph>
<glyph name="dotaccentcmb" format="2">
  <unicode hex="0307"/>
  <anchor x="-141" y="999" name="_t.ringcmb_1"/>
  <outline>
    <contour>
      <point x="44" y="1178" type="line"/>
      <point x="-238" y="1178" type="line"/>
      <point x="-185" y="1413" type="line"/>
      <point x="97" y="1413" type="line"/>
    </contour>
  </outline>
</glyph>
<glyph name="dieresiscmb" format="2">
  <unicode hex="0308"/>
  <anchor x="-305" y="999" name="_t.ringcmb_1"/>
  <outline>
    <contour>
      <point x="-337" y="1178" type="line"/>
      <point x="-553" y="1178" type="line"/>
      <point x="-500" y="1413" type="line"/>
      <point x="-284" y="1413" type="line"/>
    </contour>
    <contour>
      <point x="23" y="1178" type="line"/>
      <point x="-194" y="1178" type="line"/>
      <point x="-139" y="1413" type="line"/>
      <point x="76" y="1413" type="line"/>
    </contour>
  </outline>
</glyph>
<glyph name="caroncmb" format="2">
  <unicode hex="030C"/>
  <anchor x="-213" y="999" name="_t.ringcmb_1"/>
  <outline>
    <contour>
      <point x="-174" y="1078" type="line"/>
      <point x="-413" y="1410" type="line"/>
      <point x="-219" y="1410" type="line"/>
      <point x="-137" y="1290" type="line"/>
      <point x="12" y="1410" type="line"/>
      <point x="213" y="1410" type="line"/>
    </contour>
  </outline>
</glyph>
<glyph name="ogonekcmb" format="2">
  <unicode hex="0328"/>
  <anchor x="-282" y="0" name="_b.ogonekcmb_2"/>
  <outline>
    <contour>
      <point x="-463" y="-451" type="qcurve" smooth="yes"/>
      <point x="-506" y="-451"/>
      <point x="-581" y="-427"/>
      <point x="-633" y="-381"/>
      <point x="-662" y="-315"/>
      <point x="-662" y="-275" type="qcurve" smooth="yes"/>
      <point x="-662" y="-209"/>
      <point x="-599" y="-130" type="qcurve"/>
      <point x="-559" y="-76"/>
      <point x="-489" y="-18" type="qcurve" smooth="yes"/>
      <point x="-463" y="3"/>
      <point x="-443" y="13" type="qcurve"/>
      <point x="-445" y="10" type="line"/>
      <point x="-413" y="4"/>
      <point x="-376" y="1" type="qcurve"/>
      <point x="-235" y="-5" type="line"/>
      <point x="-249" y="-10"/>
      <point x="-262" y="-16" type="qcurve" smooth="yes"/>
      <point x="-359" y="-59"/>
      <point x="-418" y="-109" type="qcurve" smooth="yes"/>
      <point x="-505" y="-184"/>
      <point x="-505" y="-259" type="qcurve" smooth="yes"/>
      <point x="-505" y="-281"/>
      <point x="-479" y="-290"/>
      <point x="-458" y="-290" type="qcurve" smooth="yes"/>
      <point x="-399" y="-290"/>
      <point x="-337" y="-226" type="qcurve"/>
      <point x="-223" y="-337" type="line"/>
      <point x="-322" y="-451"/>
    </contour>
  </outline>
</glyph>
<glyph name="afii10055" format="2">
  <advance width="629"/>
  <unicode hex="0406"/>
  <outline>
    <contour>
      <point x="342" y="0" type="line"/>
      <point x="59" y="0" type="line"/>
      <point x="384" y="1410" type="line"/>
      <point x="667" y="1410" type="line"/>
    </contour>
  </outline>
</glyph>
<glyph name="afii10145" format="2">
  <advance width="1503"/>
  <unicode hex="040F"/>
  <outline>
    <contour>
      <point x="707" y="-307" type="line"/>
      <point x="423" y="-307" type="line"/>
      <point x="495" y="0" type="line"/>
      <point x="59" y="0" type="line"/>
      <point x="384" y="1410" type="line"/>
      <point x="668" y="1410" type="line"/>
      <point x="403" y="263" type="line"/>
      <point x="991" y="263" type="line"/>
      <point x="1257" y="1410" type="line"/>
      <point x="1541" y="1410" type="line"/>
      <point x="1215" y="0" type="line"/>
      <point x="779" y="0" type="line"/>
    </contour>
  </outline>
</glyph>
<glyph name="afii10018" format="2">
  <advance width="1281"/>
  <unicode hex="0411"/>
  <outline>
    <contour>
      <point x="651" y="0" type="qcurve" smooth="yes"/>
      <point x="58" y="0" type="line"/>
      <point x="139" y="355"/>
      <point x="221" y="707" type="qcurve" smooth="yes"/>
      <point x="302" y="1058"/>
      <point x="383" y="1410" type="qcurve"/>
      <point x="1231" y="1410" type="line"/>
      <point x="1183" y="1205"/>
      <point x="1170" y="1154" type="qcurve"/>
      <point x="608" y="1154" type="line"/>
      <point x="539" y="860" type="line"/>
      <point x="825" y="860" type="line" smooth="yes"/>
      <point x="1017" y="860"/>
      <point x="1206" y="687"/>
      <point x="1206" y="534" type="qcurve" smooth="yes"/>
      <point x="1206" y="428"/>
      <point x="1126" y="233"/>
      <point x="979" y="86"/>
      <point x="774" y="0"/>
    </contour>
    <contour>
      <point x="695" y="272" type="line" smooth="yes"/>
      <point x="745" y="272"/>
      <point x="857" y="317"/>
      <point x="935" y="417"/>
      <point x="935" y="500" type="qcurve" smooth="yes"/>
      <point x="935" y="549"/>
      <point x="854" y="618"/>
      <point x="773" y="618" type="qcurve" smooth="yes"/>
      <point x="483" y="618" type="line"/>
      <point x="404" y="272" type="line"/>
    </contour>
  </outline>
</glyph>
<glyph name="afii10021" format="2">
  <advance width="1479"/>
  <unicode hex="0414"/>
  <outline>
    <contour>
      <point x="1280" y="-324" type="line"/>
      <point x="996" y="-324" type="line"/>
      <point x="1070" y="0" type="line"/>
      <point x="175" y="0" type="line"/>
      <point x="99" y="-324" type="line"/>
      <point x="-186" y="-324" type="line"/>
      <point x="-49" y="263" type="line"/>
      <point x="105" y="263" type="line"/>
      <point x="840" y="1413" type="line"/>
      <point x="1047" y="1413" type="line"/>
      <point x="1253" y="263" type="line"/>
      <point x="1416" y="263" type="line"/>
    </contour>
    <contour>
      <point x="943" y="263" type="line"/>
      <point x="840" y="938" type="line"/>
      <point x="420" y="263" type="line"/>
    </contour>
  </outline>
</glyph>
<glyph name="afii10025" format="2">
  <advance width="1116"/>
  <unicode hex="0417"/>
  <outline>
    <contour>
      <point x="407" y="-20" type="qcurve" smooth="yes"/>
      <point x="396" y="-20" type="line" smooth="yes"/>
      <point x="323" y="-20"/>
      <point x="188" y="9"/>
      <point x="75" y="66"/>
      <point x="-12" y="147"/>
      <point x="-36" y="199" type="qcurve"/>
      <point x="216" y="326" type="line"/>
      <point x="226" y="297"/>
      <point x="261" y="262"/>
      <point x="314" y="243"/>
      <point x="384" y="237"/>
      <point x="429" y="237" type="qcurve" smooth="yes"/>
      <point x="485" y="237"/>
      <point x="590" y="266"/>
      <point x="634" y="295" type="qcurve" smooth="yes"/>
      <point x="731" y="359"/>
      <point x="750" y="459" type="qcurve"/>
      <point x="755" y="477"/>
      <point x="755" y="497" type="qcurve" smooth="yes"/>
      <point x="755" y="563"/>
      <point x="640" y="629"/>
      <point x="539" y="629" type="qcurve" smooth="yes"/>
      <point x="414" y="629" type="line"/>
      <point x="465" y="870" type="line"/>
      <point x="587" y="870" type="line" smooth="yes"/>
      <point x="631" y="870"/>
      <point x="718" y="901"/>
      <point x="786" y="956"/>
      <point x="828" y="1030"/>
      <point x="828" y="1073" type="qcurve" smooth="yes"/>
      <point x="828" y="1122"/>
      <point x="743" y="1172"/>
      <point x="677" y="1172" type="qcurve" smooth="yes"/>
      <point x="607" y="1172"/>
      <point x="547" y="1146" type="qcurve"/>
      <point x="481" y="1115"/>
      <point x="453" y="1064" type="qcurve"/>
      <point x="384" y="1070"/>
      <point x="246" y="1081"/>
      <point x="176" y="1086" type="qcurve"/>
      <point x="201" y="1170"/>
      <point x="311" y="1300"/>
      <point x="456" y="1390"/>
      <point x="540" y="1413" type="qcurve" smooth="yes"/>
      <point x="619" y="1434"/>
      <point x="697" y="1434" type="qcurve" smooth="yes"/>
      <point x="707" y="1434" type="line" smooth="yes"/>
      <point x="871" y="1434"/>
      <point x="984" y="1350" type="qcurve"/>
      <point x="1100" y="1258"/>
      <point x="1100" y="1109" type="qcurve" smooth="yes"/>
      <point x="1100" y="1095"/>
      <point x="1097" y="1054" type="qcurve"/>
      <point x="1089" y="1017" type="line" smooth="yes"/>
      <point x="1049" y="830"/>
      <point x="874" y="756" type="qcurve"/>
      <point x="941" y="739"/>
      <point x="984" y="677" type="qcurve" smooth="yes"/>
      <point x="1031" y="609"/>
      <point x="1031" y="509" type="qcurve" smooth="yes"/>
      <point x="1031" y="388"/>
      <point x="929" y="191"/>
      <point x="755" y="52"/>
      <point x="640" y="15" type="qcurve" smooth="yes"/>
      <point x="530" y="-20"/>
    </contour>
  </outline>
</glyph>
<glyph name="afii10026" format="2">
  <advance width="1463"/>
  <unicode hex="0418"/>
  <outline>
    <contour>
      <point x="1176" y="0" type="line"/>
      <point x="906" y="0" type="line"/>
      <point x="1116" y="916" type="line"/>
      <point x="320" y="0" type="line"/>
      <point x="58" y="0" type="line"/>
      <point x="383" y="1413" type="line"/>
      <point x="654" y="1413" type="line"/>
      <point x="444" y="499" type="line"/>
      <point x="1241" y="1413" type="line"/>
      <point x="1502" y="1413" type="line"/>
    </contour>
  </outline>
</glyph>
<glyph name="afii10027" format="2">
  <advance width="1501"/>
  <unicode hex="0419"/>
  <outline>
    <contour>
      <point x="1014" y="1553" type="qcurve" smooth="yes"/>
      <point x="737" y="1553"/>
      <point x="737" y="1742" type="qcurve" smooth="yes"/>
      <point x="737" y="1777"/>
      <point x="748" y="1824" type="qcurve"/>
      <point x="929" y="1824" type="line"/>
      <point x="927" y="1811" type="line"/>
      <point x="924" y="1795"/>
      <point x="924" y="1783" type="qcurve" smooth="yes"/>
      <point x="924" y="1740"/>
      <point x="977" y="1709"/>
      <point x="1024" y="1709" type="qcurve" smooth="yes"/>
      <point x="1085" y="1709"/>
      <point x="1183" y="1771"/>
      <point x="1199" y="1824" type="qcurve"/>
      <point x="1379" y="1824" type="line"/>
      <point x="1351" y="1682"/>
      <point x="1180" y="1553"/>
    </contour>
    <contour>
      <point x="1165" y="1028" type="qcurve"/>
      <point x="385" y="0" type="line"/>
      <point x="58" y="0" type="line"/>
      <point x="229" y="743" type="line"/>
      <point x="305" y="1069"/>
      <point x="383" y="1410" type="qcurve"/>
      <point x="667" y="1410" type="line"/>
      <point x="436" y="409" type="line"/>
      <point x="439" y="420"/>
      <point x="445" y="435" type="qcurve"/>
      <point x="427" y="378" type="line"/>
      <point x="1213" y="1410" type="line"/>
      <point x="1540" y="1410" type="line"/>
      <point x="1214" y="0" type="line"/>
      <point x="930" y="0" type="line"/>
      <point x="980" y="221"/>
      <point x="1172" y="1050" type="qcurve"/>
      <point x="1169" y="1039"/>
    </contour>
  </outline>
</glyph>
<glyph name="afii10028" format="2">
  <advance width="1376"/>
  <unicode hex="041A"/>
  <outline>
    <contour>
      <point x="1255" y="0" type="qcurve"/>
      <point x="905" y="0" type="line"/>
      <point x="855" y="456" type="line"/>
      <point x="836" y="651"/>
      <point x="718" y="651" type="qcurve" smooth="yes"/>
      <point x="490" y="651" type="line"/>
      <point x="342" y="0" type="line"/>
      <point x="58" y="0" type="line"/>
      <point x="229" y="743" type="line"/>
      <point x="305" y="1069"/>
      <point x="383" y="1410" type="qcurve"/>
      <point x="667" y="1410" type="line"/>
      <point x="552" y="920" type="line"/>
      <point x="695" y="920" type="line"/>
      <point x="911" y="1166"/>
      <point x="1127" y="1410" type="qcurve"/>
      <point x="1516" y="1410" type="line"/>
      <point x="947" y="840" type="line"/>
      <point x="994" y="840"/>
      <point x="1058" y="754"/>
      <point x="1099" y="627"/>
      <point x="1112" y="560" type="qcurve"/>
      <point x="1148" y="415"/>
      <point x="1184" y="280" type="qcurve" smooth="yes"/>
      <point x="1219" y="145"/>
    </contour>
  </outline>
</glyph>
<glyph name="afii10030" format="2">
  <advance width="1807"/>
  <unicode hex="041C"/>
  <outline>
    <contour>
      <point x="1520" y="0" type="line"/>
      <point x="1249" y="0" type="line"/>
      <point x="1479" y="988" type="line"/>
      <point x="952" y="123" type="line"/>
      <point x="683" y="123" type="line"/>
      <point x="557" y="988" type="line"/>
      <point x="327" y="0" type="line"/>
      <point x="58" y="0" type="line"/>
      <point x="383" y="1413" type="line"/>
      <point x="749" y="1413" type="line"/>
      <point x="889" y="448" type="line"/>
      <point x="1476" y="1413" type="line"/>
      <point x="1846" y="1413" type="line"/>
    </contour>
  </outline>
</glyph>
<glyph name="afii10031" format="2">
  <advance width="1500"/>
  <unicode hex="041D"/>
  <outline>
    <contour>
      <point x="1213" y="0" type="line"/>
      <point x="930" y="0" type="line"/>
      <point x="1061" y="574" type="line"/>
      <point x="473" y="574" type="line"/>
      <point x="341" y="0" type="line"/>
      <point x="58" y="0" type="line"/>
      <point x="383" y="1413" type="line"/>
      <point x="666" y="1413" type="line"/>
      <point x="532" y="838" type="line"/>
      <point x="1121" y="838" type="line"/>
      <point x="1256" y="1413" type="line"/>
      <point x="1539" y="1413" type="line"/>
    </contour>
  </outline>
</glyph>
<glyph name="afii10033" format="2">
  <advance width="1503"/>
  <unicode hex="041F"/>
  <outline>
    <contour>
      <point x="1215" y="0" type="line"/>
      <point x="931" y="0" type="line"/>
      <point x="1193" y="1147" type="line"/>
      <point x="605" y="1147" type="line"/>
      <point x="343" y="0" type="line"/>
      <point x="59" y="0" type="line"/>
      <point x="384" y="1410" type="line"/>
      <point x="1541" y="1410" type="line"/>
    </contour>
  </outline>
</glyph>
<glyph name="afii10034" format="2">
  <advance width="1172"/>
  <unicode hex="0420"/>
  <outline>
    <contour>
      <point x="339" y="0" type="qcurve"/>
      <point x="59" y="0" type="line"/>
      <point x="230" y="743" type="line"/>
      <point x="306" y="1069"/>
      <point x="384" y="1410" type="qcurve"/>
      <point x="834" y="1410" type="line" smooth="yes"/>
      <point x="960" y="1410"/>
      <point x="1154" y="1331"/>
      <point x="1263" y="1178"/>
      <point x="1263" y="1068" type="qcurve" smooth="yes"/>
      <point x="1263" y="970"/>
      <point x="1192" y="802"/>
      <point x="1131" y="740" type="qcurve"/>
      <point x="1040" y="653"/>
      <point x="792" y="570"/>
      <point x="652" y="570" type="qcurve" smooth="yes"/>
      <point x="471" y="570" type="line"/>
      <point x="446" y="460"/>
      <point x="422" y="355" type="qcurve" smooth="yes"/>
      <point x="389" y="215" type="line" smooth="yes"/>
      <point x="364" y="110"/>
    </contour>
    <contour>
      <point x="699" y="837" type="line" smooth="yes"/>
      <point x="818" y="837"/>
      <point x="958" y="922"/>
      <point x="979" y="1012" type="qcurve"/>
      <point x="985" y="1031"/>
      <point x="985" y="1046" type="qcurve" smooth="yes"/>
      <point x="985" y="1095"/>
      <point x="891" y="1143"/>
      <point x="784" y="1143" type="qcurve" smooth="yes"/>
      <point x="603" y="1143" type="line"/>
      <point x="576" y="1028" type="line"/>
      <point x="552" y="931"/>
      <point x="531" y="837" type="qcurve"/>
    </contour>
  </outline>
</glyph>
<glyph name="afii10035" format="2">
  <advance width="1437"/>
  <unicode hex="0421"/>
  <outline>
    <contour>
      <point x="661" y="-20" type="qcurve" smooth="yes"/>
      <point x="650" y="-20" type="line" smooth="yes"/>
      <point x="516" y="-20"/>
      <point x="414" y="18" type="qcurve" smooth="yes"/>
      <point x="202" y="98"/>
      <point x="131" y="302" type="qcurve"/>
      <point x="97" y="396"/>
      <point x="97" y="509" type="qcurve"/>
      <point x="98" y="668"/>
      <point x="146" y="813" type="qcurve"/>
      <point x="190" y="954"/>
      <point x="278" y="1083" type="qcurve"/>
      <point x="396" y="1248"/>
      <point x="569" y="1340" type="qcurve" smooth="yes"/>
      <point x="751" y="1436"/>
      <point x="968" y="1436" type="qcurve" smooth="yes"/>
      <point x="1182" y="1436"/>
      <point x="1472" y="1213"/>
      <point x="1514" y="1010" type="qcurve"/>
      <point x="1231" y="927" type="line"/>
      <point x="1225" y="1054"/>
      <point x="1072" y="1164"/>
      <point x="932" y="1164" type="qcurve" smooth="yes"/>
      <point x="923" y="1164" type="line" smooth="yes"/>
      <point x="723" y="1164"/>
      <point x="580" y="1031" type="qcurve" smooth="yes"/>
      <point x="443" y="903"/>
      <point x="395" y="691" type="qcurve" smooth="yes"/>
      <point x="376" y="608"/>
      <point x="376" y="542" type="qcurve" smooth="yes"/>
      <point x="376" y="401"/>
      <point x="536" y="251"/>
      <point x="696" y="251" type="qcurve" smooth="yes"/>
      <point x="839" y="251"/>
      <point x="1053" y="379"/>
      <point x="1138" y="515" type="qcurve"/>
      <point x="1198" y="483"/>
      <point x="1316" y="418"/>
      <point x="1375" y="385" type="qcurve"/>
      <point x="1246" y="186"/>
      <point x="879" y="-20"/>
    </contour>
  </outline>
</glyph>
<glyph name="afii10036" format="2">
  <advance width="1163"/>
  <unicode hex="0422"/>
  <outline>
    <contour>
      <point x="609" y="0" type="line"/>
      <point x="324" y="0" type="line"/>
      <point x="590" y="1153" type="line"/>
      <point x="158" y="1153" type="line"/>
      <point x="218" y="1410" type="line"/>
      <point x="1365" y="1410" type="line"/>
      <point x="1305" y="1153" type="line"/>
      <point x="873" y="1153" type="line"/>
    </contour>
  </outline>
</glyph>
<glyph name="afii10037" format="2">
  <advance width="1105"/>
  <unicode hex="0423"/>
  <outline>
    <contour>
      <point x="388" y="0" type="line"/>
      <point x="87" y="0" type="line"/>
      <point x="384" y="457" type="line"/>
      <point x="207" y="1410" type="line"/>
      <point x="501" y="1410" type="line"/>
      <point x="606" y="770" type="line"/>
      <point x="1022" y="1410" type="line"/>
      <point x="1324" y="1410" type="line"/>
    </contour>
  </outline>
</glyph>
<glyph name="afii10039" format="2">
  <advance width="1366"/>
  <unicode hex="0425"/>
  <outline>
    <contour>
      <point x="1239" y="0" type="line"/>
      <point x="906" y="0" type="line"/>
      <point x="693" y="524" type="line"/>
      <point x="234" y="0" type="line"/>
      <point x="-111" y="0" type="line"/>
      <point x="531" y="707" type="line"/>
      <point x="224" y="1413" type="line"/>
      <point x="558" y="1413" type="line"/>
      <point x="767" y="881" type="line"/>
      <point x="1226" y="1413" type="line"/>
      <point x="1569" y="1413" type="line"/>
      <point x="930" y="707" type="line"/>
    </contour>
  </outline>
</glyph>
<glyph name="afii10040" format="2">
  <advance width="1543"/>
  <unicode hex="0426"/>
  <outline>
    <contour>
      <point x="1292" y="-324" type="line"/>
      <point x="1008" y="-324" type="line"/>
      <point x="1084" y="0" type="line"/>
      <point x="58" y="0" type="line"/>
      <point x="383" y="1410" type="line"/>
      <point x="667" y="1410" type="line"/>
      <point x="402" y="263" type="line"/>
      <point x="990" y="263" type="line"/>
      <point x="1256" y="1410" type="line"/>
      <point x="1540" y="1410" type="line"/>
      <point x="1274" y="263" type="line"/>
      <point x="1429" y="263" type="line"/>
    </contour>
  </outline>
</glyph>
<glyph name="afii10041" format="2">
  <advance width="1357"/>
  <unicode hex="0427"/>
  <outline>
    <contour>
      <point x="1070" y="0" type="line"/>
      <point x="786" y="0" type="line"/>
      <point x="842" y="230"/>
      <point x="896" y="459" type="qcurve"/>
      <point x="746" y="409"/>
      <point x="620" y="409" type="qcurve" smooth="yes"/>
      <point x="461" y="409"/>
      <point x="258" y="502"/>
      <point x="162" y="675"/>
      <point x="162" y="794" type="qcurve" smooth="yes"/>
      <point x="162" y="892"/>
      <point x="214" y="1135"/>
      <point x="246" y="1255" type="qcurve" smooth="yes"/>
      <point x="267" y="1337"/>
      <point x="284" y="1410" type="qcurve"/>
      <point x="568" y="1410" type="line"/>
      <point x="552" y="1340"/>
      <point x="531" y="1260" type="qcurve" smooth="yes"/>
      <point x="500" y="1139"/>
      <point x="449" y="910"/>
      <point x="449" y="844" type="qcurve" smooth="yes"/>
      <point x="449" y="760"/>
      <point x="545" y="684"/>
      <point x="657" y="684" type="qcurve" smooth="yes"/>
      <point x="838" y="684"/>
      <point x="967" y="803" type="qcurve"/>
      <point x="1068" y="1233"/>
      <point x="1111" y="1410" type="qcurve"/>
      <point x="1395" y="1410" type="line"/>
      <point x="1317" y="1069"/>
      <point x="1241" y="743" type="qcurve"/>
    </contour>
  </outline>
</glyph>
<glyph name="afii10042" format="2">
  <advance width="1818"/>
  <unicode hex="0428"/>
  <outline>
    <contour>
      <point x="1531" y="0" type="line"/>
      <point x="58" y="0" type="line"/>
      <point x="383" y="1410" type="line"/>
      <point x="667" y="1410" type="line"/>
      <point x="402" y="263" type="line"/>
      <point x="714" y="263" type="line"/>
      <point x="979" y="1410" type="line"/>
      <point x="1262" y="1410" type="line"/>
      <point x="998" y="263" type="line"/>
      <point x="1308" y="263" type="line"/>
      <point x="1573" y="1410" type="line"/>
      <point x="1857" y="1410" type="line"/>
    </contour>
  </outline>
</glyph>
<glyph name="afii10043" format="2">
  <advance width="1861"/>
  <unicode hex="0429"/>
  <outline>
    <contour>
      <point x="1610" y="-324" type="line"/>
      <point x="1326" y="-324" type="line"/>
      <point x="1402" y="0" type="line"/>
      <point x="59" y="0" type="line"/>
      <point x="384" y="1410" type="line"/>
      <point x="668" y="1410" type="line"/>
      <point x="403" y="263" type="line"/>
      <point x="715" y="263" type="line"/>
      <point x="980" y="1410" type="line"/>
      <point x="1263" y="1410" type="line"/>
      <point x="999" y="263" type="line"/>
      <point x="1309" y="263" type="line"/>
      <point x="1574" y="1410" type="line"/>
      <point x="1858" y="1410" type="line"/>
      <point x="1593" y="263" type="line"/>
      <point x="1747" y="263" type="line"/>
    </contour>
  </outline>
</glyph>
<glyph name="afii10044" format="2">
  <advance width="1417"/>
  <unicode hex="042A"/>
  <outline>
    <contour>
      <point x="776" y="0" type="qcurve" smooth="yes"/>
      <point x="301" y="0" type="line"/>
      <point x="367" y="290"/>
      <point x="434" y="577" type="qcurve" smooth="yes"/>
      <point x="501" y="864"/>
      <point x="567" y="1152" type="qcurve"/>
      <point x="158" y="1152" type="line"/>
      <point x="218" y="1410" type="line"/>
      <point x="909" y="1410" type="line"/>
      <point x="777" y="840" type="line"/>
      <point x="946" y="840" type="line" smooth="yes"/>
      <point x="1143" y="840"/>
      <point x="1258" y="752" type="qcurve" smooth="yes"/>
      <point x="1377" y="661"/>
      <point x="1377" y="505" type="qcurve" smooth="yes"/>
      <point x="1377" y="390"/>
      <point x="1281" y="203"/>
      <point x="1115" y="70"/>
      <point x="1004" y="34" type="qcurve" smooth="yes"/>
      <point x="897" y="0"/>
    </contour>
    <contour>
      <point x="812" y="268" type="line" smooth="yes"/>
      <point x="927" y="268"/>
      <point x="1069" y="355"/>
      <point x="1093" y="448" type="qcurve" smooth="yes"/>
      <point x="1097" y="465"/>
      <point x="1097" y="479" type="qcurve" smooth="yes"/>
      <point x="1097" y="531"/>
      <point x="1000" y="573"/>
      <point x="896" y="573" type="qcurve" smooth="yes"/>
      <point x="714" y="573" type="line"/>
      <point x="642" y="268" type="line"/>
    </contour>
  </outline>
</glyph>
<glyph name="afii10046" format="2">
  <advance width="1173"/>
  <unicode hex="042C"/>
  <outline>
    <contour>
      <point x="532" y="0" type="qcurve" smooth="yes"/>
      <point x="59" y="0" type="line"/>
      <point x="140" y="355"/>
      <point x="222" y="707" type="qcurve" smooth="yes"/>
      <point x="303" y="1058"/>
      <point x="384" y="1410" type="qcurve"/>
      <point x="665" y="1410" type="line"/>
      <point x="533" y="840" type="line"/>
      <point x="703" y="840" type="line" smooth="yes"/>
      <point x="900" y="840"/>
      <point x="1015" y="752" type="qcurve" smooth="yes"/>
      <point x="1134" y="660"/>
      <point x="1134" y="503" type="qcurve" smooth="yes"/>
      <point x="1134" y="391"/>
      <point x="1037" y="204"/>
      <point x="871" y="71"/>
      <point x="760" y="35" type="qcurve" smooth="yes"/>
      <point x="653" y="0"/>
    </contour>
    <contour>
      <point x="569" y="268" type="line" smooth="yes"/>
      <point x="804" y="268"/>
      <point x="850" y="448" type="qcurve"/>
      <point x="854" y="467"/>
      <point x="854" y="481" type="qcurve" smooth="yes"/>
      <point x="854" y="531"/>
      <point x="759" y="573"/>
      <point x="653" y="573" type="qcurve" smooth="yes"/>
      <point x="471" y="573" type="line"/>
      <point x="400" y="268" type="line"/>
    </contour>
  </outline>
</glyph>
<glyph name="afii10048" format="2">
  <advance width="2041"/>
  <unicode hex="042E"/>
  <outline>
    <contour>
      <point x="1170" y="-20" type="qcurve" smooth="yes"/>
      <point x="1028" y="-20"/>
      <point x="815" y="58"/>
      <point x="674" y="199"/>
      <point x="604" y="394"/>
      <point x="604" y="509" type="qcurve" smooth="yes"/>
      <point x="604" y="545"/>
      <point x="607" y="586" type="qcurve"/>
      <point x="506" y="577"/>
      <point x="474" y="575" type="qcurve"/>
      <point x="343" y="0" type="line"/>
      <point x="59" y="0" type="line"/>
      <point x="140" y="355"/>
      <point x="222" y="707" type="qcurve" smooth="yes"/>
      <point x="303" y="1058"/>
      <point x="384" y="1410" type="qcurve"/>
      <point x="668" y="1410" type="line"/>
      <point x="634" y="1268"/>
      <point x="601" y="1125" type="qcurve" smooth="yes"/>
      <point x="568" y="982"/>
      <point x="534" y="838" type="qcurve"/>
      <point x="567" y="842"/>
      <point x="600" y="845" type="qcurve" smooth="yes"/>
      <point x="632" y="847"/>
      <point x="665" y="850" type="qcurve"/>
      <point x="712" y="975"/>
      <point x="865" y="1190"/>
      <point x="1072" y="1347"/>
      <point x="1199" y="1391" type="qcurve" smooth="yes"/>
      <point x="1323" y="1434"/>
      <point x="1469" y="1434" type="qcurve" smooth="yes"/>
      <point x="1488" y="1434" type="line" smooth="yes"/>
      <point x="1623" y="1434"/>
      <point x="1830" y="1356"/>
      <point x="1969" y="1212"/>
      <point x="2039" y="1014"/>
      <point x="2039" y="895" type="qcurve" smooth="yes"/>
      <point x="2039" y="823"/>
      <point x="2014" y="676"/>
      <point x="1991" y="602" type="qcurve" smooth="yes"/>
      <point x="1945" y="454"/>
      <point x="1858" y="330" type="qcurve" smooth="yes"/>
      <point x="1745" y="168"/>
      <point x="1572" y="76" type="qcurve" smooth="yes"/>
      <point x="1390" y="-20"/>
    </contour>
    <contour>
      <point x="1206" y="230" type="line" smooth="yes"/>
      <point x="1309" y="230"/>
      <point x="1480" y="307"/>
      <point x="1611" y="444"/>
      <point x="1699" y="628"/>
      <point x="1722" y="731" type="qcurve" smooth="yes"/>
      <point x="1732" y="775"/>
      <point x="1743" y="855"/>
      <point x="1743" y="894" type="qcurve" smooth="yes"/>
      <point x="1743" y="1105"/>
      <point x="1579" y="1163" type="qcurve" smooth="yes"/>
      <point x="1524" y="1182"/>
      <point x="1438" y="1183" type="qcurve"/>
      <point x="1336" y="1183"/>
      <point x="1168" y="1106"/>
      <point x="1037" y="970"/>
      <point x="948" y="786"/>
      <point x="924" y="681" type="qcurve"/>
      <point x="903" y="601"/>
      <point x="903" y="518" type="qcurve" smooth="yes"/>
      <point x="903" y="383"/>
      <point x="1045" y="230"/>
      <point x="1198" y="230" type="qcurve" smooth="yes"/>
    </contour>
  </outline>
</glyph>
<glyph name="afii10049" format="2">
  <advance width="1275"/>
  <unicode hex="042F"/>
  <outline>
    <contour>
      <point x="987" y="-2" type="line"/>
      <point x="703" y="-2" type="line"/>
      <point x="751" y="214" type="line"/>
      <point x="838" y="595" type="line"/>
      <point x="683" y="595" type="line"/>
      <point x="507" y="367"/>
      <point x="224" y="-2" type="qcurve"/>
      <point x="-116" y="-2" type="line"/>
      <point x="415" y="617" type="line"/>
      <point x="330" y="651"/>
      <point x="251" y="828"/>
      <point x="251" y="928" type="qcurve" smooth="yes"/>
      <point x="251" y="1086"/>
      <point x="404" y="1302"/>
      <point x="673" y="1413"/>
      <point x="846" y="1413" type="qcurve" smooth="yes"/>
      <point x="1312" y="1413" type="line"/>
    </contour>
    <contour>
      <point x="889" y="821" type="line"/>
      <point x="967" y="1159" type="line"/>
      <point x="768" y="1159" type="line" smooth="yes"/>
      <point x="653" y="1159"/>
      <point x="517" y="1054"/>
      <point x="517" y="963" type="qcurve" smooth="yes"/>
      <point x="517" y="896"/>
      <point x="609" y="825"/>
      <point x="687" y="821" type="qcurve"/>
    </contour>
  </outline>
</glyph>
<glyph name="afii10066" format="2">
  <advance width="1266"/>
  <unicode hex="0431"/>
  <outline>
    <contour>
      <point x="588" y="-20" type="qcurve" smooth="yes"/>
      <point x="577" y="-20" type="line" smooth="yes"/>
      <point x="477" y="-20"/>
      <point x="312" y="31"/>
      <point x="193" y="130"/>
      <point x="128" y="277"/>
      <point x="128" y="376" type="qcurve" smooth="yes"/>
      <point x="128" y="459"/>
      <point x="148" y="541" type="qcurve" smooth="yes"/>
      <point x="167" y="622"/>
      <point x="186" y="702" type="qcurve" smooth="yes"/>
      <point x="204" y="781"/>
      <point x="258" y="918"/>
      <point x="319" y="1031"/>
      <point x="384" y="1117"/>
      <point x="413" y="1144" type="qcurve"/>
      <point x="485" y="1218"/>
      <point x="641" y="1310"/>
      <point x="825" y="1371"/>
      <point x="1046" y="1411"/>
      <point x="1181" y="1430" type="qcurve"/>
      <point x="1239" y="1436" type="line"/>
      <point x="1190" y="1162" type="line"/>
      <point x="1070" y="1156"/>
      <point x="859" y="1117"/>
      <point x="691" y="1064"/>
      <point x="575" y="1006"/>
      <point x="549" y="982" type="qcurve" smooth="yes"/>
      <point x="519" y="953"/>
      <point x="467" y="856"/>
      <point x="444" y="782" type="qcurve"/>
      <point x="525" y="868"/>
      <point x="740" y="962"/>
      <point x="861" y="962" type="qcurve" smooth="yes"/>
      <point x="1049" y="962"/>
      <point x="1238" y="788"/>
      <point x="1238" y="627" type="qcurve" smooth="yes"/>
      <point x="1238" y="554"/>
      <point x="1197" y="399"/>
      <point x="1118" y="254"/>
      <point x="1003" y="126"/>
      <point x="857" y="31"/>
      <point x="768" y="5" type="qcurve" smooth="yes"/>
      <point x="684" y="-20"/>
    </contour>
    <contour>
      <point x="606" y="217" type="qcurve" smooth="yes"/>
      <point x="662" y="217"/>
      <point x="768" y="262"/>
      <point x="856" y="337"/>
      <point x="918" y="442"/>
      <point x="930" y="502" type="qcurve" smooth="yes"/>
      <point x="934" y="522"/>
      <point x="940" y="561"/>
      <point x="940" y="577" type="qcurve" smooth="yes"/>
      <point x="940" y="724"/>
      <point x="749" y="724" type="qcurve" smooth="yes"/>
      <point x="738" y="724" type="line" smooth="yes"/>
      <point x="688" y="724"/>
      <point x="640" y="701" type="qcurve" smooth="yes"/>
      <point x="586" y="675"/>
      <point x="497" y="594"/>
      <point x="436" y="495"/>
      <point x="417" y="408"/>
      <point x="417" y="375" type="qcurve" smooth="yes"/>
      <point x="417" y="300"/>
      <point x="509" y="217"/>
    </contour>
  </outline>
</glyph>
<glyph name="afii10068" format="2">
  <advance width="924"/>
  <unicode hex="0433"/>
  <outline>
    <contour>
      <point x="361" y="-20" type="qcurve" smooth="yes"/>
      <point x="295" y="-20"/>
      <point x="171" y="15"/>
      <point x="78" y="87"/>
      <point x="20" y="195"/>
      <point x="20" y="267" type="qcurve" smooth="yes"/>
      <point x="20" y="391"/>
      <point x="88" y="484" type="qcurve" smooth="yes"/>
      <point x="149" y="568"/>
      <point x="251" y="604" type="qcurve"/>
      <point x="277" y="614"/>
      <point x="314" y="626" type="qcurve"/>
      <point x="532" y="691" type="line" smooth="yes"/>
      <point x="571" y="702"/>
      <point x="596" y="721" type="qcurve"/>
      <point x="625" y="741"/>
      <point x="625" y="764" type="qcurve" smooth="yes"/>
      <point x="625" y="782"/>
      <point x="575" y="803"/>
      <point x="530" y="803" type="qcurve" smooth="yes"/>
      <point x="397" y="803"/>
      <point x="297" y="673" type="qcurve"/>
      <point x="125" y="799" type="line"/>
      <point x="208" y="901"/>
      <point x="315" y="955" type="qcurve" smooth="yes"/>
      <point x="429" y="1014"/>
      <point x="554" y="1014" type="qcurve" smooth="yes"/>
      <point x="605" y="1014"/>
      <point x="654" y="1004" type="qcurve" smooth="yes"/>
      <point x="751" y="984"/>
      <point x="816" y="917" type="qcurve"/>
      <point x="858" y="871"/>
      <point x="871" y="801" type="qcurve"/>
      <point x="873" y="776"/>
      <point x="873" y="752" type="qcurve" smooth="yes"/>
      <point x="873" y="657"/>
      <point x="776" y="502"/>
      <point x="693" y="461" type="qcurve"/>
      <point x="676" y="454"/>
      <point x="660" y="447" type="qcurve" smooth="yes"/>
      <point x="644" y="440"/>
      <point x="545" y="412" type="qcurve"/>
      <point x="393" y="371"/>
      <point x="351" y="358"/>
      <point x="344" y="354" type="qcurve" smooth="yes"/>
      <point x="281" y="322"/>
      <point x="281" y="282" type="qcurve"/>
      <point x="282" y="273" type="line" smooth="yes"/>
      <point x="284" y="250"/>
      <point x="300" y="232" type="qcurve"/>
      <point x="318" y="223"/>
      <point x="368" y="204"/>
      <point x="402" y="204" type="qcurve" smooth="yes"/>
      <point x="450" y="204"/>
      <point x="526" y="232"/>
      <point x="586" y="278"/>
      <point x="633" y="340"/>
      <point x="653" y="373" type="qcurve"/>
      <point x="849" y="260" type="line"/>
      <point x="815" y="197"/>
      <point x="711" y="94"/>
      <point x="581" y="21"/>
      <point x="436" y="-20"/>
    </contour>
  </outline>
</glyph>
<glyph name="afii10072" format="2">
  <advance width="1550"/>
  <unicode hex="0436"/>
  <outline>
    <contour>
      <point x="1441" y="0" type="line"/>
      <point x="1120" y="0" type="line"/>
      <point x="1092" y="271" type="line"/>
      <point x="1087" y="343"/>
      <point x="1081" y="374" type="qcurve" smooth="yes"/>
      <point x="1074" y="412"/>
      <point x="1033" y="451"/>
      <point x="987" y="451" type="qcurve" smooth="yes"/>
      <point x="903" y="451" type="line"/>
      <point x="798" y="0" type="line"/>
      <point x="525" y="0" type="line"/>
      <point x="629" y="451" type="line"/>
      <point x="558" y="451" type="line" smooth="yes"/>
      <point x="513" y="451"/>
      <point x="447" y="400"/>
      <point x="393" y="320"/>
      <point x="369" y="276" type="qcurve" smooth="yes"/>
      <point x="357" y="254" type="line"/>
      <point x="328" y="206"/>
      <point x="300" y="159" type="qcurve"/>
      <point x="264" y="95" type="line"/>
      <point x="236" y="48"/>
      <point x="207" y="0" type="qcurve"/>
      <point x="-122" y="0" type="line"/>
      <point x="167" y="472" type="line"/>
      <point x="190" y="505"/>
      <point x="259" y="571"/>
      <point x="336" y="617"/>
      <point x="371" y="617" type="qcurve"/>
      <point x="162" y="999" type="line"/>
      <point x="470" y="999" type="line"/>
      <point x="559" y="796" type="line"/>
      <point x="626" y="647" type="line"/>
      <point x="674" y="647" type="line"/>
      <point x="761" y="1029"/>
      <point x="851" y="1410" type="qcurve"/>
      <point x="1124" y="1410" type="line"/>
      <point x="1037" y="1029"/>
      <point x="947" y="647" type="qcurve"/>
      <point x="991" y="647" type="line"/>
      <point x="1087" y="755"/>
      <point x="1186" y="864" type="qcurve" smooth="yes"/>
      <point x="1308" y="999" type="line"/>
      <point x="1629" y="999" type="line"/>
      <point x="1227" y="617" type="line"/>
      <point x="1262" y="617"/>
      <point x="1317" y="562"/>
      <point x="1354" y="485"/>
      <point x="1362" y="449" type="qcurve"/>
    </contour>
  </outline>
</glyph>
<glyph name="afii10073" format="2">
  <advance width="1048"/>
  <unicode hex="0437"/>
  <outline>
    <contour>
      <point x="232" y="-437" type="qcurve" smooth="yes"/>
      <point x="174" y="-437"/>
      <point x="43" y="-402"/>
      <point x="-71" y="-333"/>
      <point x="-155" y="-232"/>
      <point x="-167" y="-166" type="qcurve"/>
      <point x="-30" y="-93"/>
      <point x="106" y="-19" type="qcurve"/>
      <point x="105" y="-32" type="line"/>
      <point x="105" y="-64"/>
      <point x="117" y="-89" type="qcurve" smooth="yes"/>
      <point x="131" y="-120"/>
      <point x="179" y="-159"/>
      <point x="241" y="-181"/>
      <point x="269" y="-181" type="qcurve" smooth="yes"/>
      <point x="323" y="-181"/>
      <point x="377" y="-168" type="qcurve" smooth="yes"/>
      <point x="490" y="-140"/>
      <point x="555" y="-65" type="qcurve" smooth="yes"/>
      <point x="604" y="-7"/>
      <point x="604" y="79" type="qcurve" smooth="yes"/>
      <point x="604" y="130"/>
      <point x="546" y="191"/>
      <point x="474" y="191" type="qcurve" smooth="yes"/>
      <point x="286" y="191" type="line"/>
      <point x="342" y="432" type="line"/>
      <point x="520" y="432" type="line" smooth="yes"/>
      <point x="607" y="432"/>
      <point x="664" y="487" type="qcurve" smooth="yes"/>
      <point x="726" y="547"/>
      <point x="726" y="645" type="qcurve" smooth="yes"/>
      <point x="726" y="661" type="line"/>
      <point x="725" y="691"/>
      <point x="699" y="717" type="qcurve"/>
      <point x="646" y="746"/>
      <point x="570" y="746" type="qcurve" smooth="yes"/>
      <point x="530" y="746"/>
      <point x="492" y="735" type="qcurve" smooth="yes"/>
      <point x="379" y="700"/>
      <point x="259" y="537" type="qcurve"/>
      <point x="137" y="612"/>
      <point x="15" y="685" type="qcurve"/>
      <point x="76" y="779"/>
      <point x="202" y="905"/>
      <point x="344" y="981"/>
      <point x="506" y="1012"/>
      <point x="600" y="1012" type="qcurve" smooth="yes"/>
      <point x="734" y="1012"/>
      <point x="949" y="887"/>
      <point x="985" y="778" type="qcurve"/>
      <point x="998" y="732"/>
      <point x="998" y="686" type="qcurve" smooth="yes"/>
      <point x="998" y="441"/>
      <point x="754" y="315" type="qcurve"/>
      <point x="823" y="273"/>
      <point x="879" y="167"/>
      <point x="879" y="93" type="qcurve" smooth="yes"/>
      <point x="879" y="-74"/>
      <point x="703" y="-321"/>
      <point x="538" y="-384" type="qcurve"/>
      <point x="395" y="-437"/>
    </contour>
  </outline>
</glyph>
<glyph name="afii10077" format="2">
  <advance width="1016"/>
  <unicode hex="043B"/>
  <outline>
    <contour>
      <point x="923" y="0" type="line"/>
      <point x="629" y="0" type="line"/>
      <point x="549" y="646" type="line"/>
      <point x="164" y="0" type="line"/>
      <point x="-136" y="0" type="line"/>
      <point x="511" y="999" type="line"/>
      <point x="733" y="999" type="line"/>
    </contour>
  </outline>
</glyph>
<glyph name="afii10078" format="2">
  <advance width="1488"/>
  <unicode hex="043C"/>
  <outline>
    <contour>
      <point x="1238" y="0" type="line"/>
      <point x="991" y="0" type="line"/>
      <point x="1143" y="647" type="line"/>
      <point x="732" y="0" type="line"/>
      <point x="534" y="0" type="line"/>
      <point x="419" y="645" type="line"/>
      <point x="267" y="0" type="line"/>
      <point x="21" y="0" type="line"/>
      <point x="250" y="999" type="line"/>
      <point x="583" y="999" type="line"/>
      <point x="700" y="324" type="line"/>
      <point x="1131" y="1002" type="line"/>
      <point x="1471" y="1002" type="line"/>
    </contour>
  </outline>
</glyph>
<glyph name="afii10079" format="2">
  <advance width="1209"/>
  <unicode hex="043D"/>
  <outline>
    <contour>
      <point x="959" y="0" type="line"/>
      <point x="681" y="0" type="line"/>
      <point x="786" y="454" type="line"/>
      <point x="403" y="454" type="line"/>
      <point x="299" y="0" type="line"/>
      <point x="21" y="0" type="line"/>
      <point x="250" y="999" type="line"/>
      <point x="528" y="999" type="line"/>
      <point x="448" y="656" type="line"/>
      <point x="831" y="656" type="line"/>
      <point x="911" y="999" type="line"/>
      <point x="1188" y="999" type="line"/>
    </contour>
  </outline>
</glyph>
<glyph name="afii10081" format="2">
  <advance width="1178"/>
  <unicode hex="043F"/>
  <outline>
    <contour>
      <point x="956" y="0" type="qcurve"/>
      <point x="678" y="0" type="line"/>
      <point x="710" y="144"/>
      <point x="744" y="287" type="qcurve" smooth="yes"/>
      <point x="811" y="575"/>
      <point x="818" y="619" type="qcurve"/>
      <point x="820" y="627" type="line"/>
      <point x="823" y="650"/>
      <point x="823" y="671" type="qcurve" smooth="yes"/>
      <point x="823" y="715"/>
      <point x="779" y="761"/>
      <point x="723" y="761" type="qcurve" smooth="yes"/>
      <point x="716" y="761" type="line" smooth="yes"/>
      <point x="673" y="761"/>
      <point x="626" y="743" type="qcurve"/>
      <point x="524" y="701"/>
      <point x="458" y="612" type="qcurve" smooth="yes"/>
      <point x="427" y="570"/>
      <point x="420" y="530" type="qcurve"/>
      <point x="299" y="0" type="line"/>
      <point x="21" y="0" type="line"/>
      <point x="78" y="251"/>
      <point x="136" y="501" type="qcurve" smooth="yes"/>
      <point x="193" y="750"/>
      <point x="250" y="999" type="qcurve"/>
      <point x="528" y="999" type="line"/>
      <point x="522" y="980"/>
      <point x="518" y="961" type="qcurve"/>
      <point x="502" y="905" type="line"/>
      <point x="574" y="967"/>
      <point x="725" y="1016"/>
      <point x="801" y="1016" type="qcurve" smooth="yes"/>
      <point x="947" y="1016"/>
      <point x="1029" y="932" type="qcurve"/>
      <point x="1105" y="849"/>
      <point x="1105" y="709" type="qcurve" smooth="yes"/>
      <point x="1105" y="648"/>
      <point x="1090" y="586" type="qcurve"/>
      <point x="1024" y="293"/>
    </contour>
  </outline>
</glyph>
<glyph name="afii10082" format="2">
  <advance width="1170"/>
  <unicode hex="0440"/>
  <outline>
    <contour>
      <point x="196" y="-438" type="qcurve"/>
      <point x="-82" y="-438" type="line"/>
      <point x="250" y="999" type="line"/>
      <point x="528" y="999" type="line"/>
      <point x="506" y="919" type="line"/>
      <point x="571" y="978"/>
      <point x="719" y="1020"/>
      <point x="798" y="1020" type="qcurve" smooth="yes"/>
      <point x="963" y="1020"/>
      <point x="1054" y="909" type="qcurve" smooth="yes"/>
      <point x="1140" y="804"/>
      <point x="1140" y="633" type="qcurve" smooth="yes"/>
      <point x="1140" y="543"/>
      <point x="1116" y="454" type="qcurve" smooth="yes"/>
      <point x="1066" y="267"/>
      <point x="941" y="139" type="qcurve" smooth="yes"/>
      <point x="878" y="73"/>
      <point x="800" y="32" type="qcurve" smooth="yes"/>
      <point x="701" y="-20"/>
      <point x="597" y="-20" type="qcurve"/>
      <point x="543" y="-19"/>
      <point x="506" y="-12" type="qcurve" smooth="yes"/>
      <point x="424" y="3"/>
      <point x="371" y="47" type="qcurve" smooth="yes"/>
      <point x="343" y="70"/>
      <point x="325" y="98" type="qcurve"/>
      <point x="223" y="-331"/>
    </contour>
    <contour>
      <point x="549" y="234" type="qcurve" smooth="yes"/>
      <point x="658" y="234"/>
      <point x="820" y="383"/>
      <point x="853" y="525" type="qcurve" smooth="yes"/>
      <point x="863" y="570"/>
      <point x="863" y="610" type="qcurve" smooth="yes"/>
      <point x="863" y="681"/>
      <point x="786" y="774"/>
      <point x="699" y="774" type="qcurve" smooth="yes"/>
      <point x="641" y="774"/>
      <point x="514" y="713"/>
      <point x="415" y="581"/>
      <point x="397" y="475" type="qcurve"/>
      <point x="385" y="424"/>
      <point x="385" y="390" type="qcurve" smooth="yes"/>
      <point x="385" y="320"/>
      <point x="462" y="234"/>
    </contour>
  </outline>
</glyph>
<glyph name="afii10084" format="2">
  <advance width="1753"/>
  <unicode hex="0442"/>
  <outline>
    <contour>
      <point x="1530" y="0" type="qcurve"/>
      <point x="1253" y="0" type="line"/>
      <point x="1385" y="574" type="line"/>
      <point x="1397" y="630"/>
      <point x="1397" y="664" type="qcurve" smooth="yes"/>
      <point x="1397" y="714"/>
      <point x="1350" y="760"/>
      <point x="1294" y="760" type="qcurve" smooth="yes"/>
      <point x="1286" y="760" type="line" smooth="yes"/>
      <point x="1200" y="760"/>
      <point x="1054" y="624"/>
      <point x="1033" y="532" type="qcurve" smooth="yes"/>
      <point x="944" y="136"/>
      <point x="912" y="0" type="qcurve"/>
      <point x="634" y="0" type="line"/>
      <point x="776" y="614"/>
      <point x="778" y="628" type="qcurve" smooth="yes"/>
      <point x="780" y="651"/>
      <point x="780" y="667" type="qcurve" smooth="yes"/>
      <point x="780" y="712"/>
      <point x="735" y="760"/>
      <point x="678" y="760" type="qcurve" smooth="yes"/>
      <point x="670" y="760" type="line" smooth="yes"/>
      <point x="627" y="760"/>
      <point x="587" y="743" type="qcurve" smooth="yes"/>
      <point x="499" y="704"/>
      <point x="449" y="617" type="qcurve" smooth="yes"/>
      <point x="425" y="575"/>
      <point x="416" y="532" type="qcurve" smooth="yes"/>
      <point x="327" y="136"/>
      <point x="295" y="0" type="qcurve"/>
      <point x="21" y="0" type="line"/>
      <point x="78" y="251"/>
      <point x="136" y="501" type="qcurve" smooth="yes"/>
      <point x="193" y="750"/>
      <point x="250" y="999" type="qcurve"/>
      <point x="525" y="999" type="line"/>
      <point x="505" y="924" type="line"/>
      <point x="568" y="980"/>
      <point x="693" y="1018"/>
      <point x="757" y="1018" type="qcurve" smooth="yes"/>
      <point x="929" y="1018"/>
      <point x="1009" y="879" type="qcurve"/>
      <point x="1089" y="951"/>
      <point x="1280" y="1016"/>
      <point x="1374" y="1016" type="qcurve" smooth="yes"/>
      <point x="1454" y="1016"/>
      <point x="1570" y="967"/>
      <point x="1644" y="883"/>
      <point x="1680" y="769"/>
      <point x="1680" y="704" type="qcurve" smooth="yes"/>
      <point x="1680" y="646"/>
      <point x="1665" y="586" type="qcurve"/>
      <point x="1645" y="493"/>
    </contour>
  </outline>
</glyph>
<glyph name="afii10085" format="2">
  <advance width="1047"/>
  <unicode hex="0443"/>
  <outline>
    <contour>
      <point x="272" y="-430" type="line"/>
      <point x="-33" y="-430" type="line"/>
      <point x="266" y="33" type="line"/>
      <point x="97" y="999" type="line"/>
      <point x="392" y="999" type="line"/>
      <point x="480" y="343" type="line"/>
      <point x="879" y="999" type="line"/>
      <point x="1184" y="999" type="line"/>
    </contour>
  </outline>
</glyph>
<glyph name="afii10086" format="2">
  <advance width="1523"/>
  <unicode hex="0444"/>
  <outline>
    <contour>
      <point x="682" y="-430" type="line"/>
      <point x="410" y="-430" type="line"/>
      <point x="512" y="-19" type="line"/>
      <point x="461" y="-20" type="line"/>
      <point x="366" y="-20"/>
      <point x="205" y="42"/>
      <point x="89" y="153"/>
      <point x="28" y="304"/>
      <point x="28" y="388" type="qcurve"/>
      <point x="29" y="476"/>
      <point x="75" y="628"/>
      <point x="160" y="766"/>
      <point x="280" y="882"/>
      <point x="352" y="924" type="qcurve" smooth="yes"/>
      <point x="498" y="1009"/>
      <point x="666" y="1009" type="qcurve" smooth="yes"/>
      <point x="679" y="1009"/>
      <point x="684" y="1008" type="qcurve" smooth="yes"/>
      <point x="693" y="1007"/>
      <point x="703" y="1007" type="qcurve" smooth="yes"/>
      <point x="713" y="1007"/>
      <point x="735" y="1006" type="qcurve"/>
      <point x="761" y="1108"/>
      <point x="786" y="1209" type="qcurve" smooth="yes"/>
      <point x="810" y="1310"/>
      <point x="836" y="1410" type="qcurve"/>
      <point x="1108" y="1410" type="line"/>
      <point x="1084" y="1310"/>
      <point x="1059" y="1211" type="qcurve" smooth="yes"/>
      <point x="1033" y="1111"/>
      <point x="1009" y="1010" type="qcurve"/>
      <point x="1027" y="1012"/>
      <point x="1061" y="1012" type="qcurve" smooth="yes"/>
      <point x="1156" y="1012"/>
      <point x="1317" y="951"/>
      <point x="1432" y="839"/>
      <point x="1493" y="688"/>
      <point x="1493" y="604" type="qcurve"/>
      <point x="1492" y="513"/>
      <point x="1445" y="360"/>
      <point x="1402" y="291" type="qcurve" smooth="yes"/>
      <point x="1312" y="147"/>
      <point x="1021" y="-20"/>
      <point x="854" y="-20" type="qcurve" smooth="yes"/>
      <point x="823" y="-20"/>
      <point x="807" y="-17" type="qcurve"/>
      <point x="786" y="-15" type="line"/>
      <point x="770" y="-81"/>
      <point x="753" y="-145" type="qcurve"/>
    </contour>
    <contour>
      <point x="496" y="214" type="qcurve" smooth="yes"/>
      <point x="522" y="214"/>
      <point x="555" y="222" type="qcurve"/>
      <point x="695" y="775" type="line"/>
      <point x="674" y="776"/>
      <point x="652" y="776" type="qcurve" smooth="yes"/>
      <point x="567" y="776"/>
      <point x="434" y="696"/>
      <point x="345" y="559"/>
      <point x="325" y="470" type="qcurve" smooth="yes"/>
      <point x="315" y="429"/>
      <point x="315" y="386" type="qcurve" smooth="yes"/>
      <point x="315" y="311"/>
      <point x="399" y="214"/>
    </contour>
    <contour>
      <point x="874" y="214" type="qcurve" smooth="yes"/>
      <point x="959" y="214"/>
      <point x="1089" y="296"/>
      <point x="1176" y="434"/>
      <point x="1196" y="520" type="qcurve" smooth="yes"/>
      <point x="1206" y="563"/>
      <point x="1206" y="605" type="qcurve" smooth="yes"/>
      <point x="1206" y="683"/>
      <point x="1120" y="776"/>
      <point x="1025" y="776" type="qcurve" smooth="yes"/>
      <point x="1000" y="776"/>
      <point x="979" y="772" type="qcurve"/>
      <point x="968" y="771" type="line"/>
      <point x="931" y="624"/>
      <point x="894" y="483" type="qcurve" smooth="yes"/>
      <point x="826" y="218" type="line"/>
      <point x="832" y="215"/>
      <point x="848" y="214"/>
    </contour>
  </outline>
</glyph>
<glyph name="afii10087" format="2">
  <advance width="1070"/>
  <unicode hex="0445"/>
  <outline>
    <contour>
      <point x="947" y="0" type="line"/>
      <point x="617" y="0" type="line"/>
      <point x="496" y="323" type="line"/>
      <point x="222" y="0" type="line"/>
      <point x="-118" y="0" type="line"/>
      <point x="345" y="504" type="line"/>
      <point x="120" y="999" type="line"/>
      <point x="446" y="999" type="line"/>
      <point x="570" y="683" type="line"/>
      <point x="844" y="999" type="line"/>
      <point x="1187" y="999" type="line"/>
      <point x="719" y="504" type="line"/>
    </contour>
  </outline>
</glyph>
<glyph name="afii10091" format="2">
  <advance width="1782"/>
  <unicode hex="0449"/>
  <outline>
    <contour>
      <point x="1538" y="-307" type="qcurve"/>
      <point x="1303" y="-307" type="line"/>
      <point x="1374" y="-23" type="line"/>
      <point x="1340" y="-23"/>
      <point x="1310" y="-1" type="qcurve"/>
      <point x="1252" y="45"/>
      <point x="1252" y="102" type="qcurve"/>
      <point x="1187" y="37"/>
      <point x="1051" y="-18"/>
      <point x="991" y="-18" type="qcurve" smooth="yes"/>
      <point x="900" y="-18"/>
      <point x="779" y="53"/>
      <point x="739" y="119" type="qcurve"/>
      <point x="660" y="50"/>
      <point x="473" y="-16"/>
      <point x="375" y="-16" type="qcurve" smooth="yes"/>
      <point x="296" y="-16"/>
      <point x="181" y="33"/>
      <point x="106" y="117"/>
      <point x="69" y="231"/>
      <point x="69" y="295" type="qcurve" smooth="yes"/>
      <point x="69" y="354"/>
      <point x="84" y="414" type="qcurve"/>
      <point x="218" y="999" type="line"/>
      <point x="496" y="999" type="line"/>
      <point x="364" y="426" type="line"/>
      <point x="351" y="365"/>
      <point x="351" y="335" type="qcurve" smooth="yes"/>
      <point x="351" y="240"/>
      <point x="454" y="240" type="qcurve" smooth="yes"/>
      <point x="547" y="240"/>
      <point x="624" y="310" type="qcurve" smooth="yes"/>
      <point x="693" y="373"/>
      <point x="716" y="468" type="qcurve"/>
      <point x="797" y="827"/>
      <point x="837" y="999" type="qcurve"/>
      <point x="1115" y="999" type="line"/>
      <point x="1081" y="854"/>
      <point x="1047" y="711" type="qcurve" smooth="yes"/>
      <point x="1013" y="567"/>
      <point x="980" y="422" type="qcurve" smooth="yes"/>
      <point x="968" y="367"/>
      <point x="968" y="335" type="qcurve" smooth="yes"/>
      <point x="968" y="289"/>
      <point x="1014" y="240"/>
      <point x="1071" y="240" type="qcurve" smooth="yes"/>
      <point x="1079" y="240" type="line" smooth="yes"/>
      <point x="1121" y="240"/>
      <point x="1162" y="257" type="qcurve"/>
      <point x="1250" y="296"/>
      <point x="1300" y="383" type="qcurve" smooth="yes"/>
      <point x="1324" y="425"/>
      <point x="1332" y="468" type="qcurve"/>
      <point x="1413" y="827"/>
      <point x="1453" y="999" type="qcurve"/>
      <point x="1728" y="999" type="line"/>
      <point x="1554" y="241" type="line" smooth="yes"/>
      <point x="1550" y="222"/>
      <point x="1550" y="202" type="qcurve" smooth="yes"/>
      <point x="1550" y="154"/>
      <point x="1614" y="109"/>
      <point x="1672" y="109" type="qcurve"/>
      <point x="1606" y="-99"/>
    </contour>
  </outline>
</glyph>
<glyph name="afii10095" format="2">
  <advance width="1010"/>
  <unicode hex="044D"/>
  <outline>
    <contour>
      <point x="373" y="-20" type="qcurve" smooth="yes"/>
      <point x="363" y="-20" type="line" smooth="yes"/>
      <point x="285" y="-20"/>
      <point x="156" y="25"/>
      <point x="60" y="109"/>
      <point x="1" y="226"/>
      <point x="-8" y="298" type="qcurve"/>
      <point x="252" y="367" type="line"/>
      <point x="258" y="307"/>
      <point x="333" y="241"/>
      <point x="399" y="241" type="qcurve" smooth="yes"/>
      <point x="479" y="241"/>
      <point x="542" y="278" type="qcurve"/>
      <point x="613" y="318"/>
      <point x="654" y="403" type="qcurve"/>
      <point x="570" y="400"/>
      <point x="488" y="398" type="qcurve" smooth="yes"/>
      <point x="405" y="395"/>
      <point x="322" y="391" type="qcurve"/>
      <point x="367" y="596" type="line"/>
      <point x="452" y="598"/>
      <point x="537" y="602" type="qcurve" smooth="yes"/>
      <point x="622" y="605"/>
      <point x="707" y="607" type="qcurve"/>
      <point x="707" y="615" type="line" smooth="yes"/>
      <point x="707" y="657"/>
      <point x="693" y="691" type="qcurve"/>
      <point x="674" y="726"/>
      <point x="598" y="754"/>
      <point x="545" y="754" type="qcurve" smooth="yes"/>
      <point x="469" y="754"/>
      <point x="348" y="675"/>
      <point x="312" y="606" type="qcurve"/>
      <point x="129" y="699"/>
      <point x="76" y="727" type="qcurve"/>
      <point x="164" y="862"/>
      <point x="428" y="1016"/>
      <point x="577" y="1016" type="qcurve" smooth="yes"/>
      <point x="772" y="1016"/>
      <point x="879" y="903" type="qcurve"/>
      <point x="979" y="794"/>
      <point x="979" y="620" type="qcurve" smooth="yes"/>
      <point x="979" y="468"/>
      <point x="905" y="318" type="qcurve"/>
      <point x="826" y="166"/>
      <point x="693" y="75" type="qcurve"/>
      <point x="550" y="-20"/>
    </contour>
  </outline>
</glyph>
<glyph name="afii10096" format="2">
  <advance width="1647"/>
  <unicode hex="044E"/>
  <outline>
    <contour>
      <point x="971" y="-20" type="qcurve" smooth="yes"/>
      <point x="961" y="-20" type="line" smooth="yes"/>
      <point x="862" y="-20"/>
      <point x="698" y="42"/>
      <point x="581" y="152"/>
      <point x="518" y="299"/>
      <point x="518" y="383" type="qcurve" smooth="yes"/>
      <point x="518" y="424"/>
      <point x="522" y="465" type="qcurve"/>
      <point x="492" y="463"/>
      <point x="463" y="460" type="qcurve" smooth="yes"/>
      <point x="433" y="456"/>
      <point x="403" y="454" type="qcurve"/>
      <point x="299" y="0" type="line"/>
      <point x="21" y="0" type="line"/>
      <point x="102" y="355"/>
      <point x="184" y="708" type="qcurve" smooth="yes"/>
      <point x="265" y="1060"/>
      <point x="346" y="1413" type="qcurve"/>
      <point x="624" y="1413" type="line"/>
      <point x="448" y="656" type="line"/>
      <point x="483" y="658"/>
      <point x="520" y="662" type="qcurve" smooth="yes"/>
      <point x="556" y="665"/>
      <point x="591" y="667" type="qcurve"/>
      <point x="635" y="745"/>
      <point x="697" y="809" type="qcurve" smooth="yes"/>
      <point x="821" y="936"/>
      <point x="993" y="987" type="qcurve" smooth="yes"/>
      <point x="1076" y="1011"/>
      <point x="1179" y="1012" type="qcurve"/>
      <point x="1274" y="1012"/>
      <point x="1433" y="953"/>
      <point x="1550" y="843"/>
      <point x="1612" y="690"/>
      <point x="1612" y="598" type="qcurve" smooth="yes"/>
      <point x="1612" y="522"/>
      <point x="1568" y="369"/>
      <point x="1487" y="231"/>
      <point x="1369" y="112"/>
      <point x="1225" y="26"/>
      <point x="1140" y="3" type="qcurve"/>
      <point x="1060" y="-20"/>
    </contour>
    <contour>
      <point x="988" y="214" type="qcurve" smooth="yes"/>
      <point x="1074" y="214"/>
      <point x="1207" y="296"/>
      <point x="1295" y="434"/>
      <point x="1314" y="520" type="qcurve" smooth="yes"/>
      <point x="1324" y="563"/>
      <point x="1324" y="605" type="qcurve" smooth="yes"/>
      <point x="1324" y="684"/>
      <point x="1238" y="776"/>
      <point x="1144" y="776" type="qcurve" smooth="yes"/>
      <point x="1062" y="776"/>
      <point x="923" y="693"/>
      <point x="832" y="555"/>
      <point x="818" y="470" type="qcurve"/>
      <point x="807" y="428"/>
      <point x="807" y="386" type="qcurve" smooth="yes"/>
      <point x="807" y="214"/>
    </contour>
  </outline>
</glyph>
<glyph name="afii10099" format="2">
  <advance width="1172"/>
  <unicode hex="0452"/>
  <outline>
    <contour>
      <point x="408" y="-432" type="qcurve" smooth="yes"/>
      <point x="296" y="-432"/>
      <point x="183" y="-388" type="qcurve"/>
      <point x="197" y="-368"/>
      <point x="212" y="-347" type="qcurve" smooth="yes"/>
      <point x="227" y="-326"/>
      <point x="334" y="-170" type="qcurve"/>
      <point x="366" y="-171" type="line"/>
      <point x="439" y="-170" type="line"/>
      <point x="480" y="-170"/>
      <point x="559" y="-136"/>
      <point x="593" y="-105" type="qcurve" smooth="yes"/>
      <point x="665" y="-39"/>
      <point x="692" y="68" type="qcurve"/>
      <point x="751" y="324" type="line"/>
      <point x="817" y="603"/>
      <point x="820" y="628" type="qcurve" smooth="yes"/>
      <point x="822" y="649"/>
      <point x="822" y="665" type="qcurve" smooth="yes"/>
      <point x="822" y="709"/>
      <point x="775" y="753"/>
      <point x="718" y="753" type="qcurve" smooth="yes"/>
      <point x="710" y="753" type="line" smooth="yes"/>
      <point x="668" y="753"/>
      <point x="625" y="738" type="qcurve" smooth="yes"/>
      <point x="577" y="722"/>
      <point x="494" y="657"/>
      <point x="431" y="564"/>
      <point x="419" y="502" type="qcurve"/>
      <point x="306" y="0" type="line"/>
      <point x="24" y="0" type="line"/>
      <point x="89" y="281"/>
      <point x="153" y="561" type="qcurve" smooth="yes"/>
      <point x="217" y="840"/>
      <point x="283" y="1122" type="qcurve"/>
      <point x="146" y="1122" type="line"/>
      <point x="186" y="1301" type="line"/>
      <point x="323" y="1301" type="line"/>
      <point x="349" y="1413" type="line"/>
      <point x="630" y="1413" type="line"/>
      <point x="605" y="1301" type="line"/>
      <point x="821" y="1301" type="line"/>
      <point x="781" y="1122" type="line"/>
      <point x="565" y="1122" type="line"/>
      <point x="511" y="919" type="line"/>
      <point x="579" y="979"/>
      <point x="705" y="1024"/>
      <point x="774" y="1024" type="qcurve" smooth="yes"/>
      <point x="855" y="1024"/>
      <point x="978" y="980"/>
      <point x="1059" y="897"/>
      <point x="1100" y="779"/>
      <point x="1100" y="704" type="qcurve" smooth="yes"/>
      <point x="1100" y="642"/>
      <point x="1082" y="565" type="qcurve" smooth="yes"/>
      <point x="1053" y="438"/>
      <point x="1027" y="310" type="qcurve" smooth="yes"/>
      <point x="1001" y="182"/>
      <point x="965" y="57" type="qcurve" smooth="yes"/>
      <point x="888" y="-207"/>
      <point x="752" y="-323" type="qcurve" smooth="yes"/>
      <point x="623" y="-432"/>
    </contour>
  </outline>
</glyph>
<glyph name="afii10102" format="2">
  <advance width="911"/>
  <unicode hex="0455"/>
  <outline>
    <contour>
      <point x="348" y="-20" type="qcurve" smooth="yes"/>
      <point x="338" y="-20" type="line" smooth="yes"/>
      <point x="264" y="-20"/>
      <point x="202" y="2" type="qcurve" smooth="yes"/>
      <point x="135" y="26"/>
      <point x="36" y="110"/>
      <point x="-24" y="221"/>
      <point x="-29" y="282" type="qcurve"/>
      <point x="197" y="351" type="line"/>
      <point x="212" y="276"/>
      <point x="237" y="247" type="qcurve"/>
      <point x="271" y="204"/>
      <point x="355" y="204" type="qcurve" smooth="yes"/>
      <point x="393" y="204"/>
      <point x="427" y="216" type="qcurve" smooth="yes"/>
      <point x="493" y="239"/>
      <point x="530" y="289" type="qcurve" smooth="yes"/>
      <point x="549" y="315"/>
      <point x="549" y="343" type="qcurve" smooth="yes"/>
      <point x="549" y="380"/>
      <point x="425" y="421" type="qcurve"/>
      <point x="274" y="464" type="line"/>
      <point x="178" y="507"/>
      <point x="152" y="587" type="qcurve"/>
      <point x="141" y="616"/>
      <point x="141" y="653" type="qcurve" smooth="yes"/>
      <point x="141" y="743"/>
      <point x="218" y="878"/>
      <point x="342" y="968"/>
      <point x="500" y="1014"/>
      <point x="579" y="1014" type="qcurve" smooth="yes"/>
      <point x="696" y="1014"/>
      <point x="776" y="964" type="qcurve"/>
      <point x="802" y="945" type="line" smooth="yes"/>
      <point x="889" y="878"/>
      <point x="922" y="776" type="qcurve"/>
      <point x="717" y="696" type="line"/>
      <point x="698" y="746"/>
      <point x="629" y="803"/>
      <point x="560" y="803" type="qcurve" smooth="yes"/>
      <point x="499" y="803"/>
      <point x="455" y="777" type="qcurve"/>
      <point x="412" y="748"/>
      <point x="412" y="710" type="qcurve" smooth="yes"/>
      <point x="412" y="685"/>
      <point x="476" y="655"/>
      <point x="540" y="634" type="qcurve"/>
      <point x="598" y="618"/>
      <point x="699" y="578"/>
      <point x="775" y="519"/>
      <point x="819" y="436"/>
      <point x="819" y="376" type="qcurve" smooth="yes"/>
      <point x="819" y="277"/>
      <point x="733" y="128"/>
      <point x="597" y="29"/>
      <point x="429" y="-20"/>
    </contour>
  </outline>
</glyph>
<glyph name="afii10103" format="2">
  <advance width="544"/>
  <unicode hex="0456"/>
  <outline>
    <contour>
      <point x="569" y="1175" type="line"/>
      <point x="288" y="1175" type="line"/>
      <point x="343" y="1410" type="line"/>
      <point x="624" y="1410" type="line"/>
    </contour>
    <contour>
      <point x="292" y="0" type="line"/>
      <point x="23" y="0" type="line"/>
      <point x="252" y="999" type="line"/>
      <point x="522" y="999" type="line"/>
    </contour>
  </outline>
</glyph>
<glyph name="afii10106" format="2">
  <advance width="1704"/>
  <unicode hex="0459"/>
  <outline>
    <contour>
      <point x="124" y="-19" type="qcurve"/>
      <point x="0" y="-19"/>
      <point x="-111" y="44" type="qcurve"/>
      <point x="-12" y="201" type="line"/>
      <point x="1" y="189"/>
      <point x="42" y="189" type="qcurve" smooth="yes"/>
      <point x="109" y="189"/>
      <point x="178" y="384" type="qcurve" smooth="yes"/>
      <point x="223" y="514"/>
      <point x="294" y="838" type="qcurve"/>
      <point x="331" y="999" type="line"/>
      <point x="1163" y="999" type="line"/>
      <point x="1098" y="717" type="line"/>
      <point x="1226" y="717" type="line" smooth="yes"/>
      <point x="1439" y="717"/>
      <point x="1635" y="587"/>
      <point x="1635" y="458" type="qcurve" smooth="yes"/>
      <point x="1635" y="294"/>
      <point x="1492" y="92"/>
      <point x="1240" y="0"/>
      <point x="1078" y="0" type="qcurve" smooth="yes"/>
      <point x="654" y="0" type="line"/>
      <point x="839" y="797" type="line"/>
      <point x="564" y="797" type="line"/>
      <point x="520" y="604" type="line"/>
      <point x="460" y="349"/>
      <point x="333" y="47"/>
      <point x="244" y="6" type="qcurve" smooth="yes"/>
      <point x="193" y="-17"/>
    </contour>
    <contour>
      <point x="1116" y="239" type="line" smooth="yes"/>
      <point x="1199" y="239"/>
      <point x="1303" y="309"/>
      <point x="1329" y="387" type="qcurve"/>
      <point x="1331" y="394" type="line" smooth="yes"/>
      <point x="1334" y="406"/>
      <point x="1334" y="414" type="qcurve" smooth="yes"/>
      <point x="1334" y="453"/>
      <point x="1251" y="479"/>
      <point x="1184" y="479" type="qcurve" smooth="yes"/>
      <point x="1042" y="479" type="line"/>
      <point x="986" y="239" type="line"/>
    </contour>
  </outline>
</glyph>
<glyph name="afii10107" format="2">
  <advance width="1730"/>
  <unicode hex="045A"/>
  <outline>
    <contour>
      <point x="1104" y="0" type="qcurve"/>
      <point x="680" y="0" type="line"/>
      <point x="785" y="454" type="line"/>
      <point x="403" y="454" type="line"/>
      <point x="299" y="0" type="line"/>
      <point x="21" y="0" type="line"/>
      <point x="250" y="999" type="line"/>
      <point x="528" y="999" type="line"/>
      <point x="449" y="656" type="line"/>
      <point x="831" y="656" type="line"/>
      <point x="910" y="999" type="line"/>
      <point x="1188" y="999" type="line"/>
      <point x="1109" y="656" type="line"/>
      <point x="1238" y="656" type="line" smooth="yes"/>
      <point x="1455" y="656"/>
      <point x="1650" y="539"/>
      <point x="1650" y="413" type="qcurve" smooth="yes"/>
      <point x="1650" y="280"/>
      <point x="1566" y="118"/>
      <point x="1417" y="32"/>
      <point x="1219" y="1"/>
    </contour>
    <contour>
      <point x="1141" y="239" type="line" smooth="yes"/>
      <point x="1222" y="239"/>
      <point x="1328" y="285"/>
      <point x="1347" y="347" type="qcurve"/>
      <point x="1350" y="360"/>
      <point x="1350" y="371" type="qcurve" smooth="yes"/>
      <point x="1350" y="399"/>
      <point x="1300" y="417"/>
      <point x="1258" y="417" type="qcurve" smooth="yes"/>
      <point x="1056" y="417" type="line"/>
      <point x="1013" y="239" type="line"/>
    </contour>
  </outline>
</glyph>
<glyph name="afii10193" format="2">
  <advance width="1209"/>
  <unicode hex="045F"/>
  <outline>
    <contour>
      <point x="558" y="-307" type="line"/>
      <point x="279" y="-307" type="line"/>
      <point x="350" y="0" type="line"/>
      <point x="21" y="0" type="line"/>
      <point x="250" y="999" type="line"/>
      <point x="528" y="999" type="line"/>
      <point x="344" y="201" type="line"/>
      <point x="726" y="201" type="line"/>
      <point x="910" y="999" type="line"/>
      <point x="1188" y="999" type="line"/>
      <point x="959" y="0" type="line"/>
      <point x="629" y="0" type="line"/>
    </contour>
  </outline>
</glyph>
<glyph name="afii10194" format="2">
  <advance width="1073"/>
  <unicode hex="0463"/>
  <outline>
    <contour>
      <point x="447" y="0" type="qcurve" smooth="yes"/>
      <point x="24" y="0" type="line"/>
      <point x="91" y="286"/>
      <point x="154" y="561" type="qcurve" smooth="yes"/>
      <point x="216" y="836"/>
      <point x="283" y="1122" type="qcurve"/>
      <point x="102" y="1122" type="line"/>
      <point x="142" y="1301" type="line"/>
      <point x="323" y="1301" type="line"/>
      <point x="335" y="1357"/>
      <point x="349" y="1410" type="qcurve"/>
      <point x="628" y="1410" type="line"/>
      <point x="618" y="1375"/>
      <point x="610" y="1340" type="qcurve" smooth="yes"/>
      <point x="601" y="1301" type="line"/>
      <point x="901" y="1301" type="line"/>
      <point x="861" y="1122" type="line"/>
      <point x="562" y="1122" type="line"/>
      <point x="466" y="717" type="line"/>
      <point x="596" y="717" type="line" smooth="yes"/>
      <point x="794" y="717"/>
      <point x="1003" y="593"/>
      <point x="1003" y="458" type="qcurve" smooth="yes"/>
      <point x="1003" y="232"/>
      <point x="712" y="0"/>
    </contour>
    <contour>
      <point x="485" y="239" type="line" smooth="yes"/>
      <point x="656" y="239"/>
      <point x="698" y="387" type="qcurve"/>
      <point x="702" y="404"/>
      <point x="702" y="414" type="qcurve" smooth="yes"/>
      <point x="702" y="453"/>
      <point x="619" y="479"/>
      <point x="553" y="479" type="qcurve" smooth="yes"/>
      <point x="411" y="479" type="line"/>
      <point x="356" y="239" type="line"/>
    </contour>
  </outline>
</glyph>
<glyph name="Eiotifiedcyrillic" format="2">
  <advance width="1977"/>
  <unicode hex="0464"/>
  <outline>
    <contour>
      <point x="1202" y="-20" type="qcurve" smooth="yes"/>
      <point x="1191" y="-20" type="line" smooth="yes"/>
      <point x="1057" y="-20"/>
      <point x="955" y="18" type="qcurve" smooth="yes"/>
      <point x="744" y="97"/>
      <point x="670" y="300" type="qcurve" smooth="yes"/>
      <point x="636" y="393"/>
      <point x="636" y="503" type="qcurve" smooth="yes"/>
      <point x="636" y="562"/>
      <point x="638" y="586" type="qcurve"/>
      <point x="506" y="576"/>
      <point x="474" y="575" type="qcurve"/>
      <point x="343" y="0" type="line"/>
      <point x="59" y="0" type="line"/>
      <point x="140" y="355"/>
      <point x="222" y="707" type="qcurve" smooth="yes"/>
      <point x="303" y="1058"/>
      <point x="384" y="1410" type="qcurve"/>
      <point x="668" y="1410" type="line"/>
      <point x="634" y="1268"/>
      <point x="601" y="1125" type="qcurve" smooth="yes"/>
      <point x="568" y="982"/>
      <point x="534" y="838" type="qcurve"/>
      <point x="575" y="842"/>
      <point x="616" y="845" type="qcurve" smooth="yes"/>
      <point x="657" y="847"/>
      <point x="697" y="850" type="qcurve"/>
      <point x="742" y="976"/>
      <point x="896" y="1192"/>
      <point x="1104" y="1351"/>
      <point x="1233" y="1394" type="qcurve" smooth="yes"/>
      <point x="1356" y="1436"/>
      <point x="1499" y="1436" type="qcurve"/>
      <point x="1620" y="1435"/>
      <point x="1801" y="1379"/>
      <point x="1871" y="1323" type="qcurve" smooth="yes"/>
      <point x="2013" y="1212"/>
      <point x="2056" y="1010" type="qcurve"/>
      <point x="1773" y="927" type="line"/>
      <point x="1765" y="1050"/>
      <point x="1687" y="1110" type="qcurve"/>
      <point x="1614" y="1164"/>
      <point x="1473" y="1164" type="qcurve" smooth="yes"/>
      <point x="1383" y="1164"/>
      <point x="1229" y="1114"/>
      <point x="1104" y="1025"/>
      <point x="1009" y="901"/>
      <point x="979" y="827" type="qcurve"/>
      <point x="1116" y="829"/>
      <point x="1253" y="833" type="qcurve" smooth="yes"/>
      <point x="1390" y="836"/>
      <point x="1526" y="838" type="qcurve"/>
      <point x="1466" y="575" type="line"/>
      <point x="1030" y="565"/>
      <point x="918" y="564" type="qcurve"/>
      <point x="919" y="562"/>
      <point x="919" y="553" type="qcurve" smooth="yes"/>
      <point x="919" y="405"/>
      <point x="1074" y="251"/>
      <point x="1237" y="251" type="qcurve" smooth="yes"/>
      <point x="1380" y="251"/>
      <point x="1594" y="379"/>
      <point x="1680" y="515" type="qcurve"/>
      <point x="1740" y="483"/>
      <point x="1858" y="418"/>
      <point x="1917" y="385" type="qcurve"/>
      <point x="1787" y="186"/>
      <point x="1420" y="-20"/>
    </contour>
  </outline>
</glyph>
<glyph name="eiotifiedcyrillic" format="2">
  <advance width="1539"/>
  <unicode hex="0465"/>
  <outline>
    <contour>
      <point x="960" y="-22" type="qcurve" smooth="yes"/>
      <point x="947" y="-22" type="line"/>
      <point x="894" y="-17"/>
      <point x="881" y="-15" type="qcurve" smooth="yes"/>
      <point x="729" y="10"/>
      <point x="644" y="117" type="qcurve" smooth="yes"/>
      <point x="603" y="167"/>
      <point x="562" y="297"/>
      <point x="562" y="370" type="qcurve" smooth="yes"/>
      <point x="562" y="379"/>
      <point x="560" y="387" type="qcurve"/>
      <point x="517" y="384"/>
      <point x="474" y="382" type="qcurve" smooth="yes"/>
      <point x="430" y="379"/>
      <point x="386" y="375" type="qcurve"/>
      <point x="364" y="281"/>
      <point x="343" y="188" type="qcurve" smooth="yes"/>
      <point x="322" y="94"/>
      <point x="299" y="0" type="qcurve"/>
      <point x="21" y="0" type="line"/>
      <point x="78" y="251"/>
      <point x="136" y="501" type="qcurve" smooth="yes"/>
      <point x="193" y="750"/>
      <point x="250" y="999" type="qcurve"/>
      <point x="528" y="999" type="line"/>
      <point x="431" y="578" type="line"/>
      <point x="565" y="588"/>
      <point x="599" y="589" type="qcurve"/>
      <point x="664" y="774"/>
      <point x="813" y="892" type="qcurve" smooth="yes"/>
      <point x="969" y="1016"/>
      <point x="1177" y="1016" type="qcurve" smooth="yes"/>
      <point x="1330" y="1016"/>
      <point x="1433" y="931" type="qcurve" smooth="yes"/>
      <point x="1532" y="849"/>
      <point x="1560" y="705" type="qcurve"/>
      <point x="1288" y="627" type="line"/>
      <point x="1286" y="692"/>
      <point x="1210" y="754"/>
      <point x="1144" y="754" type="qcurve" smooth="yes"/>
      <point x="1053" y="754"/>
      <point x="923" y="662"/>
      <point x="879" y="566" type="qcurve"/>
      <point x="965" y="570"/>
      <point x="1047" y="573" type="qcurve" smooth="yes"/>
      <point x="1129" y="575"/>
      <point x="1213" y="578" type="qcurve"/>
      <point x="1168" y="373" type="line"/>
      <point x="1083" y="371"/>
      <point x="999" y="368" type="qcurve" smooth="yes"/>
      <point x="915" y="364"/>
      <point x="830" y="362" type="qcurve"/>
      <point x="836" y="341"/>
      <point x="844" y="326" type="qcurve"/>
      <point x="862" y="278"/>
      <point x="940" y="241"/>
      <point x="998" y="241" type="qcurve" smooth="yes"/>
      <point x="1036" y="241"/>
      <point x="1105" y="263"/>
      <point x="1165" y="303"/>
      <point x="1213" y="358"/>
      <point x="1229" y="390" type="qcurve"/>
      <point x="1458" y="275" type="line"/>
      <point x="1415" y="202"/>
      <point x="1303" y="89"/>
      <point x="1237" y="51" type="qcurve" smooth="yes"/>
      <point x="1110" y="-22"/>
    </contour>
  </outline>
</glyph>
